<?xml version="1.0" standalone="no"?>
<!DOCTYPE svg PUBLIC "-//W3C//DTD SVG 20010904//EN"
 "http://www.w3.org/TR/2001/REC-SVG-20010904/DTD/svg10.dtd">
<svg version="1.0" xmlns="http://www.w3.org/2000/svg"
 width="260.000000pt" height="260.000000pt" viewBox="0 0 260.000000 260.000000"
 preserveAspectRatio="xMidYMid meet">
<metadata>
Created by potrace 1.11, written by Peter Selinger 2001-2013
</metadata>
<g transform="translate(0.000000,260.000000) scale(0.100000,-0.100000)"
fill="#000000" stroke="none">
<path d="M1256 2550 c-20 -22 -36 -44 -36 -49 0 -12 29 -41 41 -41 6 0 5 -8
-1 -20 -9 -16 -20 -20 -50 -18 -44 2 -58 21 -34 45 25 26 13 56 -34 82 -54 29
-73 17 -38 -24 17 -19 22 -33 16 -40 -11 -13 -7 -44 12 -82 l13 -28 158 0
c115 0 161 3 169 12 6 7 7 13 3 13 -4 0 -2 7 5 15 7 8 10 15 6 15 -3 0 -1 11
4 24 5 14 5 27 -1 33 -6 6 -2 18 11 33 36 42 18 52 -45 26 -47 -20 -62 -50
-35 -73 26 -23 25 -41 -2 -48 -30 -7 -52 -2 -72 14 -16 14 -22 32 -8 29 4 0
14 2 23 6 21 9 14 42 -15 74 -40 45 -51 45 -90 2z m58 -36 c20 -8 9 -34 -15
-34 -12 0 -19 7 -19 20 0 21 8 24 34 14z"/>
<path d="M1209 2347 c-35 -4 -60 -14 -71 -27 -9 -11 -28 -20 -41 -20 -29 0
-47 -35 -27 -54 8 -8 15 -7 25 7 9 13 15 15 21 6 7 -13 -21 -39 -42 -39 -17 0
-8 -49 13 -72 15 -16 17 -16 43 12 35 38 77 40 109 6 24 -25 20 -33 -21 -42
-93 -22 -207 -23 -244 -3 -46 24 -61 79 -39 149 l7 25 -27 -25 c-36 -34 -48
-58 -47 -97 3 -73 59 -115 153 -114 69 0 115 7 187 29 69 21 85 7 42 -37 -35
-34 -74 -40 -106 -16 -27 21 -34 19 -34 -10 0 -14 12 -37 26 -52 21 -21 32
-24 61 -20 20 4 53 18 74 32 47 30 50 18 9 -29 -37 -42 -97 -66 -171 -70 -53
-3 -144 17 -164 35 -17 17 -27 9 -23 -16 3 -14 4 -25 3 -25 -2 0 -30 28 -63
63 -161 166 -165 172 -138 210 9 12 23 32 32 45 9 12 18 33 19 45 3 22 -1 23
-42 21 -25 -2 -48 -5 -51 -9 -4 -3 -5 -26 -4 -50 1 -43 -13 -70 -23 -43 -5 12
-12 71 -14 116 -1 9 -6 10 -18 4 -10 -5 -27 -8 -38 -6 -44 7 -47 -49 -5 -96
21 -23 27 -37 20 -44 -7 -7 -23 3 -51 32 -43 44 -59 52 -59 27 0 -8 -9 -19
-20 -25 -25 -14 -26 -52 -1 -74 11 -10 37 -19 57 -20 49 -4 83 -41 60 -65 -9
-8 -30 -15 -48 -15 -49 -1 -51 -37 -5 -81 34 -33 35 -33 41 -12 3 12 14 32 24
45 l18 23 62 -69 c60 -69 66 -82 31 -82 -10 0 -31 -12 -46 -26 l-28 -25 30 7
c46 11 102 7 126 -9 20 -14 23 -13 52 20 42 47 108 73 134 52 15 -13 8 -29
-14 -29 -24 0 -80 -30 -108 -58 -34 -34 -85 -109 -78 -115 3 -3 19 3 36 14 36
21 63 24 73 8 10 -18 -16 -35 -96 -62 -41 -14 -111 -39 -155 -56 -44 -17 -83
-31 -87 -31 -19 0 -48 43 -48 71 0 36 -28 89 -48 89 -7 0 -11 -4 -8 -9 3 -5
-5 -16 -17 -24 -31 -20 -28 -53 6 -83 21 -18 24 -24 13 -34 -11 -8 -24 -2 -61
30 -42 36 -74 53 -61 32 3 -5 -6 -19 -19 -30 -30 -26 -31 -33 -8 -61 13 -15
32 -23 66 -26 27 -2 51 -6 54 -9 12 -12 -47 -29 -91 -27 -44 2 -48 1 -37 -13
7 -8 10 -23 7 -34 -7 -21 12 -50 34 -52 29 -4 39 0 72 30 39 36 42 36 69 9 18
-18 19 -23 6 -37 -8 -9 -18 -27 -21 -39 -6 -19 -2 -25 19 -33 15 -6 31 -8 35
-5 5 3 13 -3 19 -12 8 -14 10 -2 11 49 0 70 2 74 41 82 13 3 35 8 49 11 14 3
46 10 73 14 l47 8 0 -53 c0 -31 4 -54 11 -54 5 0 8 4 5 8 -8 14 31 89 55 106
13 9 32 16 42 16 13 0 17 5 13 15 -3 8 2 21 10 30 31 31 42 15 40 -57 -1 -27
1 -48 4 -48 12 0 49 40 80 85 32 47 57 55 53 16 -2 -11 -17 -40 -34 -63 l-31
-43 73 -67 c40 -38 85 -73 101 -80 15 -7 28 -16 28 -20 0 -5 4 -8 10 -8 25 0
127 -101 135 -133 7 -25 4 -50 -13 -117 -5 -19 -7 -68 -6 -107 2 -58 7 -82 29
-118 27 -47 29 -81 6 -123 -22 -41 -10 -45 27 -9 21 20 40 37 42 37 3 0 4 -19
3 -42 -3 -47 16 -143 25 -133 4 3 7 23 9 43 6 100 31 154 50 105 4 -9 15 -25
25 -35 15 -15 17 -33 16 -110 -1 -110 -11 -152 -44 -185 -28 -28 -38 -24 -101
36 -29 28 -51 41 -70 41 -27 0 -29 -2 -28 -42 l0 -43 45 -5 c31 -3 45 -10 45
-20 0 -11 -17 -16 -70 -21 -38 -3 -64 -6 -57 -7 7 -1 11 -11 8 -25 -2 -12 0
-32 5 -45 10 -27 41 -25 95 9 27 16 38 19 47 10 9 -9 3 -20 -28 -47 -22 -18
-43 -34 -47 -34 -5 0 -8 -4 -8 -10 0 -5 6 -10 13 -10 8 0 19 -11 25 -25 13
-27 45 -33 66 -12 13 12 27 46 32 75 8 47 59 56 69 12 7 -33 18 -43 53 -48 16
-2 25 5 34 23 6 14 15 25 20 25 22 0 3 20 -33 34 l-42 17 21 22 c31 34 72 119
107 225 33 97 33 97 13 113 -30 24 -18 42 31 46 40 3 94 24 104 40 3 5 -20 8
-51 9 -93 1 -164 52 -207 147 -35 78 -39 130 -14 210 11 37 18 74 15 82 -9 23
11 18 62 -17 99 -67 209 -205 272 -340 18 -38 33 -68 34 -68 5 0 -4 73 -14
112 -11 39 -66 156 -80 168 -3 3 -16 20 -29 37 -21 30 -21 33 -4 34 88 3 149
42 179 115 8 18 24 36 36 39 49 15 93 41 120 70 42 45 79 127 83 181 2 27 4
54 4 61 1 6 13 25 27 42 26 32 19 40 -18 20 -11 -6 -22 -8 -25 -5 -13 12 -19
74 -10 104 12 48 0 52 -18 7 -9 -20 -19 -34 -23 -30 -10 10 -31 85 -23 85 3 0
6 18 6 40 0 22 -3 40 -7 40 -8 0 -19 -32 -23 -66 -4 -36 -7 -36 -45 -2 -19 17
-55 47 -80 66 -70 56 -183 175 -205 215 l-20 37 26 23 c26 22 59 76 59 97 0 6
-10 0 -22 -13 -30 -31 -55 -40 -62 -21 -9 22 -10 21 34 68 37 40 77 113 67
123 -3 2 -15 -8 -27 -24 -22 -28 -68 -63 -84 -63 -5 0 -6 15 -3 34 8 47 0 49
-35 13 -39 -41 -56 -76 -61 -120 -4 -39 21 -93 48 -103 8 -4 15 -14 15 -23 0
-58 95 -172 313 -378 104 -98 141 -183 115 -268 -5 -16 -10 -36 -12 -44 -4
-20 -84 -90 -111 -97 -41 -10 -45 38 -10 119 10 23 -17 23 -52 0 -22 -15 -27
-15 -37 -2 -23 29 -45 40 -93 45 -41 4 -45 3 -29 -8 102 -70 121 -91 130 -142
5 -28 4 -28 -33 -22 -53 8 -95 31 -130 71 -34 39 -62 121 -55 162 10 60 56
133 121 192 l65 60 -20 25 -20 26 -38 -26 c-35 -24 -66 -54 -113 -110 -31 -36
-61 -129 -61 -190 0 -144 73 -234 219 -269 52 -12 59 -23 33 -53 -40 -46 -119
-59 -188 -31 -16 7 -31 13 -34 13 -3 1 -12 6 -20 11 -31 20 -57 34 -117 64
-65 31 -84 53 -135 156 -47 93 -45 130 4 85 27 -25 43 -26 33 -2 -20 48 -27
174 -11 201 4 5 17 -1 33 -15 40 -37 55 -32 37 12 -20 48 -14 132 12 172 2 2
17 -11 34 -30 30 -31 31 -32 25 -8 -3 14 -9 65 -12 113 l-6 88 39 -20 c49 -26
72 -28 48 -4 -32 33 -62 117 -68 193 -4 57 -13 90 -38 139 -18 36 -31 70 -30
76 11 30 9 46 -4 60 -20 20 -63 19 -85 -1 -15 -14 -23 -14 -54 -4 -45 15 -123
18 -196 7z m116 -47 c6 0 3 -6 -5 -13 -8 -7 -16 -19 -18 -27 -6 -27 -54 -42
-67 -20 -3 6 3 10 14 10 11 0 23 5 26 10 4 6 -8 10 -28 10 -33 0 -59 24 -35
32 9 3 78 2 113 -2z m110 -204 c34 -18 71 -50 77 -68 9 -21 -21 -48 -54 -48
-22 0 -25 -4 -21 -27 8 -49 5 -115 -5 -125 -19 -19 -29 2 -30 59 -1 32 -4 73
-8 91 -6 32 -6 32 33 32 22 0 43 3 46 7 8 7 -43 43 -89 63 -39 17 -35 43 4 33
14 -3 35 -11 47 -17z m-123 -248 c11 -13 25 -34 30 -48 11 -29 14 -133 3 -150
-16 -27 -28 1 -29 72 -1 64 -5 80 -23 100 -13 14 -23 30 -23 36 0 19 21 14 42
-10z m-140 -123 c21 -20 25 -35 26 -78 0 -50 -26 -129 -48 -142 -16 -10 -24
26 -11 47 30 48 32 120 4 151 -19 21 -21 47 -4 47 5 0 20 -11 33 -25z m-134
-42 c-32 -35 -44 -58 -52 -105 -9 -49 -36 -52 -36 -5 1 44 32 109 65 136 40
31 58 11 23 -26z m332 -198 c0 -38 -28 -87 -68 -118 -26 -20 -39 -24 -46 -16
-8 8 -2 18 20 37 33 28 64 80 64 107 0 8 7 15 15 15 9 0 15 -9 15 -25z m-147
-19 c-3 -49 -102 -141 -126 -117 -8 8 -5 16 11 27 39 27 68 60 82 93 15 37 36
35 33 -3z"/>
<path d="M2071 2249 c-1 -25 17 -54 66 -107 21 -23 26 -53 10 -69 -4 -3 -21 3
-37 15 -35 26 -37 27 -37 5 0 -9 17 -33 37 -53 l37 -37 -18 -34 c-9 -19 -42
-59 -72 -90 -45 -45 -53 -58 -43 -71 27 -37 49 -29 96 33 25 33 50 65 55 72 6
7 19 32 30 57 10 25 28 58 39 74 12 19 20 47 20 77 1 44 -3 52 -44 94 -46 47
-68 58 -50 26 16 -30 12 -51 -9 -51 -18 0 -38 19 -68 66 -11 17 -12 17 -12 -7z"/>
<path d="M889 1190 c-37 -11 -70 -29 -106 -61 -35 -30 -48 -30 -95 3 -24 17
-28 17 -28 4 0 -9 10 -26 22 -38 21 -21 21 -23 5 -26 -10 -2 -26 0 -35 4 -18
8 -47 7 -101 -1 -36 -5 -91 -49 -91 -72 0 -17 3 -17 42 6 88 52 328 36 251
-16 -21 -14 -22 -17 -8 -44 9 -16 16 -32 16 -36 1 -5 6 -19 11 -33 9 -24 12
-86 5 -121 -11 -58 -82 -119 -155 -133 -31 -5 -38 -1 -82 44 -47 49 -90 65
-105 40 -3 -5 -2 -10 4 -10 5 0 4 -12 -4 -27 -14 -26 -13 -28 11 -41 15 -8 35
-12 45 -9 24 6 57 -22 38 -33 -6 -4 -43 -7 -80 -6 -64 2 -83 -4 -60 -19 5 -3
8 -16 5 -29 -5 -29 19 -56 48 -56 11 0 34 11 50 25 23 19 33 23 44 15 16 -14
8 -37 -16 -45 -9 -3 -25 -14 -34 -24 -16 -18 -16 -20 7 -45 13 -14 31 -26 38
-26 27 0 59 31 59 56 0 33 27 84 45 84 18 0 26 -13 32 -53 8 -52 52 -65 71
-21 7 14 16 23 21 19 5 -3 12 -1 16 4 3 6 -10 21 -29 33 -43 27 -41 39 5 51
19 4 71 20 117 33 70 22 81 28 73 42 -24 47 29 56 98 17 24 -14 46 -23 50 -20
3 4 -15 26 -41 50 -33 32 -57 46 -86 51 -47 7 -51 15 -54 94 -2 70 8 113 32
135 24 22 88 26 157 10 52 -12 170 -18 185 -8 5 2 -4 15 -20 28 -25 22 -26 25
-15 56 15 40 2 66 -52 99 -19 12 -33 26 -30 30 3 5 0 12 -7 17 -16 10 -234 13
-269 3z"/>
</g>
</svg>
