<svg height="36" viewBox="0 0 212 36" width="212" xmlns="http://www.w3.org/2000/svg"><g fill="#fff" fill-rule="evenodd" transform=""><path d="m63.128364 14.903066c-1.2482373-2.1398723-2.9643836-3.8255956-5.1498786-5.0566814-2.185495-1.23059751-4.602305-1.8463846-7.2499501-1.8463846-2.6481251 0-5.0644552.61578709-7.2494703 1.8463846-2.185495 1.2310858-3.9026011 2.9168091-5.1503585 5.0566814-.8100824 1.3888172-1.3552564 2.8728592-1.6393612 4.4516377-.046071.2573511-.2716271.4414524-.5283772.4414524h-7.3214563c-.25723 0-.4823062-.1841013-.5283772-.4414524-.2841048-1.5787785-.8297587-3.0628205-1.6398411-4.4516377-1.2477574-2.1398723-2.9643836-3.8255956-5.1498786-5.0566814-2.1850151-1.23059751-4.602305-1.8463846-7.2494702-1.8463846-2.648605 0-5.0644552.61578709-7.24995021 1.8463846-2.185495 1.2310858-3.90212119 2.9168091-5.15035845 5.0566814-1.24775736 2.1403607-1.87163604 4.5053542-1.87163604 7.096934 0 2.5910914.62387868 4.9570616 1.87163604 7.0964456 1.24823726 2.1403607 2.96486345 3.826084 5.15035845 5.0566815 2.18549501 1.2310858 4.60134521 1.8468729 7.24995021 1.8468729 2.6471652 0 5.0644551-.6157871 7.2494702-1.8468729 2.185495-1.2305975 3.9021212-2.9163208 5.1498786-5.0566815.0071986-.0122083.0143972-.0244166.0215958-.0371132.1146977-.198263-.0287944-.4487774-.2553104-.4487774h-5.7324852c-.1396529 0-.2730669.0576232-.3738473.1562663-1.6590374 1.6241934-3.6784847 2.4372667-6.0593017 2.4372667-2.4835171 0-4.57399058-.8824165-6.27142049-2.6487146-1.02412085-1.0655412-1.73774208-2.2839304-2.14374313-3.6541909-.10317993-.348181.16268836-.697827.52021884-.697827h5.53380388 10.9529101 5.5194067 5.8841357 1.8937118c.2567501 0 .4823062.1841013.5283772.4414525.2841048 1.5787785.8292788 3.0633088 1.6393612 4.4516376 1.2477574 2.1403607 2.9648635 3.826084 5.1503585 5.0566815 2.1850151 1.2310858 4.6013452 1.8468729 7.2494703 1.8468729 2.6476451 0 5.0644551-.6157871 7.2499501-1.8468729 2.185495-1.2305975 3.9016413-2.9163208 5.1498786-5.0566815 1.2482372-2.139384 1.871636-4.5053542 1.871636-7.0964456 0-2.5915798-.6233988-4.9565733-1.871636-7.096934zm-56.74800473 4.8930901c-.36040992 0-.6253184-.3540409-.52117866-.7051519.40648096-1.3673305 1.11914237-2.5827898 2.1413436-3.6463776 1.69742991-1.7662981 3.78790339-2.649203 6.27142049-2.649203 2.4825572 0 4.5730307.8829049 6.2709405 2.649203 1.0222012 1.0635878 1.7348626 2.2790471 2.1413436 3.6463776.1041397.351111-.1607687.7051519-.5216586.7051519zm50.61959643 8.7592173c-1.6979098 1.7662981-3.7883833 2.6487146-6.2714204 2.6487146-2.4830372 0-4.5735107-.8824165-6.2709406-2.6487146-1.6979098-1.7662981-2.5463848-3.9515853-2.5463848-6.5553734s.848475-4.7890753 2.5463848-6.5553734c1.6974299-1.7662981 3.7879034-2.649203 6.2709406-2.649203 2.4830371 0 4.5735106.8829049 6.2714204 2.649203 1.6974299 1.7662981 2.5463848 3.9515853 2.5463848 6.5553734s-.8489549 4.7890753-2.5463848 6.5553734z"/><path d="m70.8325117 35c-.5864998 0-1.038023-.1578938-1.3560106-.4736813-.3179876-.3157876-.4765011-.7641868-.4765011-1.3461517v-22.360334c0-.5814879.1585135-1.03036414.4765011-1.34615169.3179876-.31578754.7695108-.47368131 1.3560106-.47368131h8.0227026c2.4185311 0 4.3134875.63157508 5.6848691 1.8942482 1.3713816 1.2631502 2.0568323 2.9780387 2.0568323 5.1441886 0 1.2383451-.2834029 2.3030548-.8506889 3.194606-.5672861.8910743-1.3367969 1.5479314-2.3094931 1.9681864 1.3214258.3591964 2.4122867 1.0928539 3.2725824 2.2009724.8602958 1.1081186 1.2906839 2.448546 1.2906839 4.0208055 0 2.2410421-.7171533 4.0642143-2.1509796 5.4690395-1.4338264 1.4053023-3.3350272 2.1079534-5.7036026 2.1079534zm10.6031096-18.5527566c0-.9902945-.2709139-1.7520962-.8137025-2.284451-.5418278-.5323548-1.268588-.7985322-2.1783592-.7985322h-4.2265453v6.1473626h4.2265453c.8977626 0 1.6206801-.2661774 2.1692327-.7985323.5485527-.5323548.822829-1.2879552.822829-2.2658471zm1.253217 10.7343913c0-1.0523071-.2930097-1.8947252-.8790292-2.5258233-.5860194-.6315751-1.3531285-.9473626-2.3003666-.9473626h-5.2924282v6.927291h5.2924282c.9472381 0 1.7143472-.3157875 2.3003666-.9473626.5860195-.6310981.8790292-1.4668379.8790292-2.5067425z"/><path d="m104.162602 34.7094527c-2.546429 0-4.8698979-.5860135-6.9718163-1.7585135-2.101449-1.172027-3.7522857-2.7772973-4.9520408-4.8153378-1.2002245-2.0375676-1.800102-4.2903379-1.800102-6.7578379s.5998775-4.7197973 1.800102-6.7578378c1.1997551-2.0375676 2.8505918-3.6428379 4.9520408-4.81533786 2.1019184-1.17202703 4.4253873-1.75851352 6.9718163-1.75851352 2.668 0 5.09849.65695946 7.291469 1.97040538.487225.2946622.770266.665946.849592 1.1138514.079327.4483784-.04553.9114189-.375041 1.3905405l-.621.9204054c-.621469.9331757-1.443836 1.0987162-2.467102.4970946-1.534898-.8835135-3.094204-1.3257432-4.677918-1.3257432-2.387775 0-4.3981632.8409459-6.0306938 2.5228378s-2.448796 3.762973-2.448796 6.2422973c0 2.4797973.8162654 4.5608784 2.448796 6.2422973 1.6325306 1.6818919 3.6429188 2.5228378 6.0306938 2.5228378 1.681347 0 3.313408-.4847972 4.897592-1.4548648 1.010122-.6262162 1.83953-.4847973 2.485408.4237838l.657612.9388513c.340776.4668243.490041.9147297.447327 1.3441892-.042245.4299324-.283041.7917568-.721919 1.0864189-2.314081 1.4856081-4.903224 2.2281757-7.76602 2.2281757zm-1.425531-28.21c-.889489 0-1.620326-.3377027-2.192979-1.01263513l-2.5947757-3.07527027c-.4998979-.60162162-.6486939-1.12-.4477959-1.55608108.200898-.43560811.6853061-.65364865 1.4527551-.65364865h.5299388c.9016937 0 1.6325307.34385135 2.1929797 1.03108108l1.517061 1.82283784 1.516592-1.82283784c.55998-.68722973 1.291286-1.03108108 2.19298-1.03108108h.529938c.767449 0 1.251857.21804054 1.452286.65364865.201367.43608108.052102.95445946-.447327 1.55608108l-2.594775 3.07527027c-.573122.67493243-1.303959 1.01263513-2.19298 1.01263513z"/><path d="m127.869651 9c1.051485 0 1.752474.49276213 2.103437 1.4778094l7.876788 22.4528759c.219176.6282359.198146 1.1300614-.061687 1.5059535-.259834.3758922-.71501.5633612-1.365996.5633612h-1.753409c-1.025314 0-1.699666-.4956243-2.024925-1.4868728l-1.37581-4.3633061h-9.265215l-1.375342 4.3633061c-.342083.9912485-1.052887 1.4868728-2.131009 1.4868728h-1.84594c-.685568 0-1.161773-.1965324-1.429084-.5910283-.268245-.3935419-.292546-.9196955-.074305-1.5784607l7.877256-22.4533529c.350495-.91826442 1.051484-1.3771581 2.102969-1.3771581zm-1.233742 5.6274103-3.275024 10.2139621h6.550048z"/><path d="m142 10.819833c0-.5819649.161138-1.03084116.483413-1.34662871.322763-.31531052.780861-.47320429 1.37527-.47320429h2.124974c.986299 0 1.726267.41357674 2.219904 1.2407302l9.716948 16.2401615v-15.6624897c0-.5810109.161138-1.02941016.483413-1.34519771.321302-.31531052.779888-.47320429 1.374296-.47320429h1.36456c.593435 0 1.051046.15789377 1.373809.47320429.322275.31578755.483413.76466381.483413 1.34662871v22.3598569c0 .582442-.161138 1.0308412-.483413 1.3466288-.322763.3157875-.780374.4736813-1.373809.4736813h-2.12254c-.985326 0-1.724807-.4150078-2.21747-1.2450234l-9.723277-16.2497019v15.6744152c0 .582442-.161138 1.0308412-.4839 1.3466288-.321789.3157875-.779888.4736813-1.373322.4736813h-1.365533c-.593435 0-1.051047-.1578938-1.373323-.4736813-.322275-.3157876-.483413-.7641868-.483413-1.3466288z"/><path d="m173.442439 19.6041648h1.533255l5.97797-9.3791763c.525195-.81665899 1.274349-1.2249885 2.247461-1.2249885h1.863532c.75506 0 1.25466.20798092 1.497323.62441978.242171.41596182.166369.94116132-.229865 1.57464452l-6.833935 10.6413724 8.054632 10.9581139c.447425.6043849.558666 1.1224291.335692 1.5541326-.223467.4317036-.724051.6473168-1.500769.6473168h-1.871407c-.96819 0-1.726204-.3787542-2.273549-1.1357857l-7.114006-9.7102284h-1.686334v9.025704c0 .582442-.162924 1.0308412-.488771 1.3466288-.325848.3157875-.789023.4736813-1.389035.4736813h-1.686334c-.600505 0-1.063681-.1578938-1.389528-.4736813-.32634-.3157876-.488771-.7641868-.488771-1.3466288v-22.3598569c0-.5819649.162431-1.03084116.488771-1.34662871.325847-.31531052.789023-.47320429 1.389528-.47320429h1.686334c.600012 0 1.063187.15789377 1.389035.47320429.325847.31578755.488771.76466381.488771 1.34662871z"/><path d="m201.8695 9c1.051488 0 1.75248.49276213 2.103443 1.4778094l7.87728 22.4528759c.21871.6282359.19768 1.1300614-.061687 1.5059535-.260302.3758922-.715479.5633612-1.366.5633612h-1.753414c-1.025318 0-1.700139-.4956243-2.024932-1.4868728l-1.375814-4.3633061h-9.265711l-1.375346 4.3633061c-.342085.9912485-1.05289 1.4868728-2.131483 1.4868728h-1.845946c-.685103 0-1.160842-.1965324-1.428621-.5910283-.268247-.3935419-.29208-.9196955-.074306-1.5784607l7.877281-22.4533529c.350496-.91826442 1.051488-1.3771581 2.103443-1.3771581zm-1.234213 5.6274103-3.2741 10.2139621h6.549134z"/></g></svg>