<?xml version="1.0" encoding="UTF-8" standalone="no"?>
<svg width="64px" height="27px" viewBox="0 0 64 27" version="1.1" xmlns="http://www.w3.org/2000/svg" xmlns:xlink="http://www.w3.org/1999/xlink">
    <!-- Generator: sketchtool 50.2 (55047) - http://www.bohemiancoding.com/sketch -->
    <title>3CA9BB68-E1F8-4313-A985-382109B32230</title>
    <desc>Created with sketchtool.</desc>
    <defs></defs>
    <g id="Page-1" stroke="none" stroke-width="1" fill="none" fill-rule="evenodd">
        <g id="HP-infobox" transform="translate(-136.000000, -541.000000)" fill="#FFFFFF">
            <path d="M198.157158,547.656528 C196.928125,545.59308 195.238381,543.967561 193.086509,542.780442 C190.934637,541.593795 188.555008,541 185.948096,541 C183.340712,541 180.961556,541.593795 178.810156,542.780442 C176.658284,543.967561 174.967595,545.59308 173.739034,547.656528 C172.941414,548.995745 172.404628,550.426785 172.124894,551.949179 C172.079532,552.197339 171.857446,552.374865 171.604645,552.374865 L164.395827,552.374865 C164.142554,552.374865 163.920941,552.197339 163.875579,551.949179 C163.595845,550.426785 163.058586,548.995745 162.260966,547.656528 C161.032405,545.59308 159.342188,543.967561 157.190316,542.780442 C155.038917,541.593795 152.658816,541 150.052376,541 C147.444519,541 145.065836,541.593795 142.913964,542.780442 C140.762092,543.967561 139.071875,545.59308 137.842842,547.656528 C136.614281,549.720447 136,552.000977 136,554.5 C136,556.998552 136.614281,559.280024 137.842842,561.343001 C139.071875,563.40692 140.762092,565.032439 142.913964,566.219087 C145.065836,567.406205 147.444519,568 150.052376,568 C152.658816,568 155.038917,567.406205 157.190316,566.219087 C159.342188,565.032439 161.032405,563.40692 162.260966,561.343001 C162.268054,561.331229 162.275142,561.319457 162.282229,561.307213 C162.395163,561.116031 162.253878,560.874464 162.030847,560.874464 L156.386554,560.874464 C156.249049,560.874464 156.117688,560.930029 156.018458,561.025149 C154.384944,562.591336 152.396565,563.375371 150.052376,563.375371 C147.607067,563.375371 145.548755,562.524469 143.877439,560.821253 C142.869074,559.793767 142.166432,558.618891 141.766677,557.297569 C141.665084,556.961823 141.926862,556.624664 142.278892,556.624664 L147.727561,556.624664 L158.511964,556.624664 L163.946457,556.624664 L169.740068,556.624664 L171.604645,556.624664 C171.857446,556.624664 172.079532,556.802191 172.124894,557.050351 C172.404628,558.572744 172.941414,560.004255 173.739034,561.343001 C174.967595,563.40692 176.658284,565.032439 178.810156,566.219087 C180.961556,567.406205 183.340712,568 185.948096,568 C188.555008,568 190.934637,567.406205 193.086509,566.219087 C195.238381,565.032439 196.928125,563.40692 198.157158,561.343001 C199.386192,559.280024 200,556.998552 200,554.5 C200,552.000977 199.386192,549.720447 198.157158,547.656528 Z M142.2822,552.374865 C141.927335,552.374865 141.666502,552.033468 141.769039,551.694897 C142.169267,550.3764 142.870964,549.20435 143.877439,548.178747 C145.548755,546.475531 147.607067,545.624158 150.052376,545.624158 C152.49674,545.624158 154.555053,546.475531 156.226841,548.178747 C157.233316,549.20435 157.935013,550.3764 158.335241,551.694897 C158.437778,552.033468 158.176945,552.374865 157.821608,552.374865 L142.2822,552.374865 Z M192.123033,560.821253 C190.451245,562.524469 188.392933,563.375371 185.948096,563.375371 C183.50326,563.375371 181.444947,562.524469 179.773632,560.821253 C178.101844,559.118037 177.266422,557.010796 177.266422,554.5 C177.266422,551.989204 178.101844,549.881963 179.773632,548.178747 C181.444947,546.475531 183.50326,545.624158 185.948096,545.624158 C188.392933,545.624158 190.451245,546.475531 192.123033,548.178747 C193.794349,549.881963 194.630243,551.989204 194.630243,554.5 C194.630243,557.010796 193.794349,559.118037 192.123033,560.821253 Z" id="Fill-1"></path>
        </g>
    </g>
</svg>