<?xml version="1.0" encoding="utf-8"?>
<!-- Generator: Adobe Illustrator 21.0.0, SVG Export Plug-In . SVG Version: 6.00 Build 0)  -->
<svg version="1.1" id="Layer_1" xmlns="http://www.w3.org/2000/svg" xmlns:xlink="http://www.w3.org/1999/xlink" x="0px" y="0px"
	 viewBox="0 0 133 74.3" style="enable-background:new 0 0 133 74.3;" xml:space="preserve">
<style type="text/css">
	.st0{fill:#FFFFFF;}
</style>
<g>
	<g>
		<g>
			<path class="st0" d="M28.9,45.7c-0.3,0.1-1,0.1-1.7-0.9c-0.7-1,0.4-1.2,0.4-1.9s-1.6-2-2.2-2.2c-0.6-0.2-0.2-0.8-0.5-1
				c-0.3-0.2-0.9-0.3-5.3-0.3c-4.4,0-5.3,2.6-5.8,2.6c-1.4,0-2.6-1.4-2.6-1.4c-0.2,1.4,1.7,2.1,1.1,2.3c-0.9,0.2-1.4-0.3-2.8-0.3
				c-3.6,0-3.9,2.6-3.9,2.6c2.1-2.1,8.7-1.9,8.7-0.8c0,1-1.1,0.5-1.1,0.8c0,0.3,1.4,2.3,1.4,4.9c0,4-3.8,5.1-5,5.1s-1.6-1.3-2.6-2.2
				c-1-1-2.3-0.1-2.3-0.1s0.6-0.1,0.6,0.3c0,0.4-0.5,0.4-0.5,1c0,1.2,1.8,0.9,2.1,0.9c0.3,0,1,0.2,1,0.9c0,0.7-5.3,0-4.5,0.4
				c0.8,0.4,0.5,1,0.5,1.6c0,0.6,0.5,1.1,1.1,1.1s1.2-0.4,1.8-1c0.6-0.6,1-0.3,1.2-0.1c0.2,0.2,0.2,0.7-0.1,0.9
				C7.5,59,5.6,60.4,6,60.4c0.4,0,0.8,0,0.8,0.2c0,0.7,0.7,1,1.1,1c0.4,0,1.5-0.3,1.5-1.4c0-1.5,0.6-2.4,1.4-2.4
				c0.8,0,0.8,1.1,0.8,1.7c0,0.6,0.4,1,1.1,1s0.8-0.7,0.8-1c0-0.3,1-0.2,1.2-0.2c0.2,0-0.5-0.6-1.4-1.2c-0.9-0.6-0.7-0.9-0.3-1
				c0.4-0.1,6.8-1.8,6.3-2c-0.4-0.2-0.6-0.7-0.3-1.2c0.7-1.2,4.4,1.3,4.4,1.3c-1.2-2.1-3.2-3.1-4.1-3.1c-0.9,0-0.9-0.4-0.9-0.4
				c-0.9-5.1,0.4-6.3,2.1-6.5c1.7-0.1,3.3,0.5,5.4,0.7C28,46.4,29.2,45.7,28.9,45.7z"/>
			<path class="st0" d="M53.7,17.4c0.1-0.6,0.9-1.4,1.2-2.3c0.4-1,0.2-2.6-0.6-3.2c-0.8-0.5-1.9-2-1.9-2c0,0.7,0.7,2.2,0.1,2.3
				C51.2,12.5,50,9.7,50,9.7s-0.2,1.7,0.8,2.6c1.1,1,2.3,2.5,1.4,3.1c-0.8,0.6-2-1.3-2-1.3c-0.3,2.1,1.9,2.9,1.9,2.9
				c0.2,1.7-4,5.3-4,5.3l1.4,1.2C51.8,21.2,53.5,18.4,53.7,17.4z"/>
			<path class="st0" d="M56.8,31c-1.4-0.4-1.3,0.6-1.7,0.5c-1.1-0.6-0.2-4.3-0.2-4.3c-0.2-0.1-0.6,0.5-0.7,1c-0.1,0.6-0.2,1-0.6,0.9
				c-1-0.4-0.5-4.7-0.5-4.7c-0.4,0.3-0.7,1.1-0.7,1.9c0,0.8-0.4,1-0.4,1c-0.4-0.4-1.6-1.6-4.3-3.7c-5.8-5.1-4.8-6.4-4.8-6.4
				c1.7-0.8,2.3-3.7,2-3.1c-0.3,0.6-1.7,2-2.3,1.2c-0.6-0.8,1-1.7,1.9-3c1-1.3,1-2.8,0.8-2.4c-0.1,0.4-1.8,2.5-2.7,2.5
				c-1,0,0.1-2.4-0.1-2.3c-0.2,0.1-2.8,2.3-2.8,4.5s1.7,2.7,1.7,2.7c0.4,3.5,3.3,5.3,5,7.4c1.7,2.1,7.1,4.9,7.1,9.5
				c0,4.6-4.4,5.6-4.4,5.6c-0.9-2.5,0.8-3.9,0.8-3.9c-1.1-0.4-1.9,0.4-2,0.6c-0.1,0.2-0.3,0.5-0.7,0c-1.3-2.1-3.9-1.4-3.9-1.4
				c5.2,2.4,4,4.9,4,4.9c-2.3,0-6-2-6-6.1c0-4.1,5.2-7.5,5.2-7.5l-1.2-1.3c0,0-5.8,3.3-5.8,8.8c0,7.6,7.6,7.6,7.6,7.8
				c0,0.8-1.2,2.5-3.6,2.5c-2.4,0-5-1.9-5.7-2.3c-0.7-0.4-2.5-1.1-3.1-1.7c-0.6-0.6-1.4-2.2-2.3-4c-0.9-1.7-0.4-2.8-0.1-2.3
				c0.3,0.5,2,1.8,1.7,1.2c-1.5-3-0.4-6.8-0.2-6.4c0.6,1.2,2.5,2,2,1.4c-1.6-2.6-0.1-5.5,0-5.7c0.2-0.2,0.5,0.4,1,1
				c0.5,0.6,1.1,0.7,0.8,0.4c-0.8-1.4-0.7-6.1-0.4-5.9c1.1,1.1,2.5,1.3,2.5,1.3c-1.9-2-2.3-4.5-2.3-6.6s-2-4.5-2-4.7
				c0-0.2,0.4-0.6,0.4-1.3c0-0.2-0.1-1.2-1.4-1.2c-1.3,0-1.6,1.1-1.6,1.1s-1.1-0.6-4.1-0.6c-3.1,0-4.7,0.6-4.7,1.1
				c0,0.5-1,0.4-1,0.4c-1.2,0-1.2,1.6-0.6,1.6c0.6,0,0.4-0.8,0.9-0.8c0.1,0,0.4,0,0.4,0.4c0,1.1-1.4,0.7-1.5,1.1
				c-0.3,1.4,1.1,2.3,1.1,2.3S24,12,25.7,12s2,1.6,2,1.6s-2.3,0.9-5.5,0.9c-5.8,0-3.3-5.1-3.3-5.1c-3.2,1.9-2.5,6.3,2,6.3
				c4.5,0,6.9-1.7,7.2-1.2c0.3,0.8-1,2.3-2.3,2.3c-1.3,0-2.1-0.9-2.1-0.9c-0.5,1.1,0.4,2.7,2,2.7c1.6,0,3.2-1.7,3.2-1.7
				c0.6,0.6-0.9,3.2-4.7,3.6c-3.7,0.4-5.6-1.3-5.6-1.3c-0.2,0.2-0.3,0.8,0,1.2c0.3,0.4-0.1,0.4-0.1,0.4L13,15.1
				c-1.1-1.9,0.4-2.5,1-3.4c0.6-0.9,0.1-2,0.1-2c0,0.4-0.5,0.9-0.8,0.6c-0.3-0.3-0.7-0.3-1-0.2c-0.2,0.1-0.8,0.2-0.6,1.6
				c0.2,1.3-0.1,1.4-0.4,1.4s-0.5-0.2-0.5-1c0-1.1-0.3-3.4-0.5-2.6C10,10,8.7,9.4,8.5,9.6c-0.4,0.6-0.6,1.6,0.4,2.4
				c1,0.8,0.9,1.4,0.6,1.6c-0.3,0.2-0.5,0-1.2-0.8c-0.7-0.9-1.9-1.7-1.8-1.5c0.1,0.2,0.1,0.8-0.1,1c-0.2,0.2-1,0.1-1,1.1
				c0,1,1.3,1.7,2.3,1.6c1-0.1,1.6,0.6,1.7,1.2c0.1,0.6-0.5,1.3-1,1.1C8,17.1,6.8,17,6.8,18.3c0,1.3,1.4,1.2,1.4,1.5
				c0,0.3,0.2,1,0.3,0.7c0.5-1.2,1.3-2.7,1.7-2.3c0.4,0.4,1.9,2.5,2.6,3c0.7,0.5,0.7,1,0.4,1c-1.7,0-2.7,1.4-2.4,1.4
				c0.2-0.1,1.1-0.4,2.5-0.4c1.4,0,1.9,1,2.1,0.8c0.7-1.2,2.4-2.5,3.6-2.5s1.3,0.4,1.3,0.6c0,0.2-0.2,0.5-0.7,0.5
				c-3,0-6.2,5.7-4.8,4.6c1.4-1.1,2.5-1,2.8-0.4c0.3,0.6-0.8,0.9-0.8,0.9s-6.2,2.2-7.3,2.7C8.3,31.1,7.9,31,7.9,31
				c-1.7-0.4-1-2.1-1.3-2.8c-0.5-1.2-1.7-2.1-1.5-1.7c0.2,0.4,0.1,1-0.1,1s-0.9,0.1-0.9,0.8c0,0.7,0.1,1.1,0.9,1.5
				c0.7,0.4,0.4,0.9,0.3,1c-0.1,0.1-0.6,0.4-1-0.1c-0.4-0.5-2.6-2.4-2.4-1.9c0.1,0.5-0.1,0.8-0.1,0.8s-1,0.2-1,1
				c0,1.5,1.6,1.5,2.3,1.6c0.7,0,1.3-0.2,1.3,0.3c0,1.2-2.6,0.7-3.1,0.7c-0.5,0-0.7,0.2-0.6,0.2c0.2,0,0.5,0.3,0.5,0.6
				c0,0.3-0.2,0.5-0.2,0.8S1.3,36,2.5,36c1.3,0,1.7-1.7,2.6-1.7c0.8,0,1.3,0.5,1.3,1.3c0,0.8-0.8,0.2-0.8,1.6c0,1.4,1.9,0.5,1.9,0.7
				c0,0.2,0.2,1,0.3,0.7c0.1-0.5,0.1-1.1,0-2.3c-0.1-1.2-0.1-1.6,0.5-1.7c3.7-0.9,5.7-1.2,5.5-0.8c-0.6,1.5,0,2.9,0,2.9
				c0.3-1.8,0.9-2.5,1.4-3.1c0.7-0.9,2-0.4,1.8-0.8s-0.1-1.5,0.9-1.5c1.1,0,0.2,3.5,0.6,3.3c0.4-0.2,1.3-1,1.9-1.9
				c0.6-0.9,1.1-2.2,1.9-1.5c0.8,0.7-2,3.2-1.7,3.6c0.3,0.4,2,2.1,3.7,3.4c1.8,1.2,5.8,3.5,5.8,5.5c0,2-0.7,2.3-0.7,4.6
				c0,5.2,1.6,4.6,1.6,5.8c0,1.2-1.1,3-1.1,3c1.4-0.6,2.2-2.1,2.4-1.9c0.2,0.2,0,0.9,0,1.7c0.1,2.1,0.9,3.6,0.9,3.6
				c-0.1-4.2,0.7-5.2,1.2-5s0.2,0.8,0.4,1c1,0.4,1.1,0.3,1.1,3.8c0,3.5-0.9,5.3-2.1,5.3c-1.2,0-2.4-2.2-3.2-2.5s-1.6-0.1-1.6-0.1
				s0.4,0.2,0.4,0.5c0,0.4-0.5,0.5-0.5,1c0,0.9,1.2,1,1.6,0.9c0.4-0.1,1.2-0.2,1.3,0.7c0.1,0.9-4,0.4-4,0.4c0.3,0.4,0.9,0.4,0.7,0.7
				c-0.5,0.9-0.1,2.1,0.8,2c0.8-0.1,2-1,2.2-1.2c0.2-0.2,0.7-0.4,1,0.3c0.3,0.7-2.6,2.4-2.6,2.4c0.6,0.3,1-0.1,1,0.2
				c0,0.6,0.3,1.3,1.3,1.3c1,0,1.3-1.2,1.5-2.2c0.2-1,1-1.3,1.2-1.3c0.2-0.1,0.8-0.1,0.8,0.5s0.3,1.7,1.4,1.7c1.1,0,1.1-1.1,1.2-1.3
				c0.1-0.2,0.8-0.1,0.8-0.1c-0.5-0.4-1.6-1-1.8-1c-0.2-0.1-1-0.2-0.4-0.7c2.4-2.6,4.2-9.5,3.9-9.5c-1.2,0-1.3-1.3-0.4-1.3
				c3.1,0.1,3.9-1.4,3.9-1.4s-1.3,0.4-2.7,0.1c-5.8-1.6-5.7-8.4-5.3-9.1c0.4-0.7,0.9-2.2,0.8-2.9c-0.2-0.8,0.2-0.7,0.2-0.7
				c6.9,3.7,9.9,12.3,9.9,12.3c0.2-5.2-4.3-9.8-4.3-9.8c5.4,0.5,6-4,6-4c4.7-0.7,6.5-5.6,6.3-7.6C55.1,31.9,56.8,31,56.8,31z
				 M22,25.8c-0.1,0-1.6,1-1.9,3.9c0,0.3-0.3,0.5-0.5,0.5c0,0,0,0-0.1,0c-0.3,0-0.5-0.3-0.5-0.6c0.3-3.4,2.3-4.6,2.4-4.7
				c0.3-0.1,0.6-0.1,0.7,0.2C22.3,25.3,22.2,25.6,22,25.8z M27.8,11.2c-0.7,0-0.9-0.3-1.1-0.6c0,0,1.6-0.2,1.6-0.5
				c0-0.2-0.5-0.1-0.5-0.1l-1.4,0c0,0-0.3-0.3-0.3-0.7c0,0,0-0.3,0.5-0.3H29c0,0,0.5,0,0.5,0.4S29,9.7,29,9.7S29,11.2,27.8,11.2z
				 M27.9,21.2c0.2-0.2,0.5-0.3,0.7-0.2c0.1,0.1,2.5,1.5,1.5,6c-0.1,0.2-0.3,0.4-0.5,0.4c0,0-0.1,0-0.1,0c-0.3-0.1-0.5-0.3-0.4-0.6
				c0.8-3.7-0.9-4.8-1-4.9C27.8,21.8,27.7,21.4,27.9,21.2z M24,24.5c0.1-0.3,0.5-0.3,0.7-0.2c0,0,1,0.5,1.3,1.8c0.4,1.3,0,2.9-1,4.7
				c-0.1,0.2-0.3,0.3-0.5,0.3c-0.1,0-0.2,0-0.3-0.1c-0.3-0.1-0.3-0.5-0.2-0.7c0.9-1.5,1.2-2.8,0.9-3.8c-0.2-0.8-0.8-1.2-0.8-1.2
				C23.9,25.1,23.8,24.7,24,24.5z M23.7,35.4c-0.1,0-0.2,0.1-0.2,0.1c-0.2,0-0.4-0.1-0.5-0.3c-0.1-0.3,0-0.6,0.2-0.7
				c2.5-1.3,2.6-3,2.6-3c0-0.3,0.3-0.5,0.6-0.5c0.3,0,0.5,0.3,0.5,0.6C26.9,31.7,26.7,33.9,23.7,35.4z M28.1,35.4
				c-0.1,0-0.2,0.1-0.2,0.1c-0.2,0-0.4-0.1-0.5-0.3c-0.1-0.3,0-0.6,0.2-0.7c2.1-1.1,2.2-3.1,2.2-3.2c0-0.3,0.2-0.5,0.5-0.5
				c0,0,0,0,0,0c0.3,0,0.5,0.2,0.5,0.5C30.8,31.3,30.8,34,28.1,35.4z M31.5,21.8c0.3-3-0.3-3.9-0.3-3.9c-0.1-0.2-0.2-0.4-0.1-0.6
				c0.1-0.2,0.3-0.3,0.5-0.3l0.2,0c1.2,0,1.6-0.1,1.8-0.2c-0.1-0.4-1.5-1.3-3-1.8c-0.3-0.1-0.4-0.4-0.3-0.7c0.1-0.3,0.4-0.4,0.7-0.3
				c0.9,0.3,3.7,1.4,3.7,2.8c0,0.3-0.1,0.5-0.3,0.7c-0.4,0.4-1.1,0.5-1.9,0.5c0.2,0.7,0.3,1.8,0.2,3.8c0,0.3-0.3,0.5-0.5,0.5
				c0,0,0,0,0,0C31.7,22.4,31.4,22.1,31.5,21.8z"/>
			<path class="st0" d="M23.2,3c0.4,0,0.7,0.3,0.7,0.7c0,0.3-0.2,0.5-0.4,0.6L24.2,7h9.1l0.8-2.8c-0.2-0.1-0.3-0.3-0.3-0.6
				c0-0.4,0.3-0.7,0.7-0.7c0,0,0,0,0,0l0.3-1.1c0,0-3.1,0.6-3.1,1.9c0,0.7,0.9,0.8,0.9,0.8s0.5,1.2-0.7,1.2c-0.5,0-1.1,0-1.1,0
				s-1-0.1-1.3-1.1c0,0,1.3-0.1,1.3-1.1c0-0.9-2.1-2.3-2.1-2.3s-2.1,1.3-2.1,2.5c0,0.6,1.2,0.8,1.2,0.8S28,5.8,27,5.8
				c-0.6,0-1.2,0-1.2,0s-1.1,0-1.1-1.1c0,0,1-0.1,1-1c0-0.9-2.1-1.8-2.9-1.9L23.2,3C23.2,3,23.2,3,23.2,3z M28.8,3
				c0.4,0,0.7,0.3,0.7,0.7c0,0.4-0.3,0.7-0.7,0.7c-0.4,0-0.7-0.3-0.7-0.7C28.1,3.3,28.4,3,28.8,3z"/>
		</g>
		<g>
			<path class="st0" d="M70.2,11.2H74c1.8,0,3.1,1.3,3.1,3.1s-1.3,3.2-3.1,3.2h-2v3.3h-1.7V11.2z M73.6,16c1,0,1.6-0.7,1.6-1.7
				c0-1-0.6-1.6-1.6-1.6H72V16H73.6z"/>
			<path class="st0" d="M83.5,11c2.8,0,5,2.2,5,4.9c0,2.8-2.1,5-5,5c-2.8,0-5-2.2-5-5C78.6,13.2,80.7,11,83.5,11z M83.5,19.4
				c1.8,0,3.2-1.5,3.2-3.4c0-1.9-1.4-3.3-3.2-3.3c-1.8,0-3.2,1.4-3.2,3.3C80.4,17.9,81.8,19.4,83.5,19.4z"/>
			<path class="st0" d="M91,11.2h3.1c1,0,1.5,0.1,1.9,0.3c1,0.4,1.6,1.4,1.6,2.6c0,1.2-0.6,2.2-1.6,2.6v0c0,0,0.1,0.1,0.3,0.5l2,3.6
				h-2l-1.9-3.6h-1.7v3.6H91V11.2z M94.3,15.7c0.9,0,1.5-0.6,1.5-1.5c0-0.9-0.4-1.5-1.8-1.5h-1.3v3H94.3z"/>
			<path class="st0" d="M102.6,12.7h-3.2v-1.5h8.1v1.5h-3.2v8.1h-1.7V12.7z"/>
			<path class="st0" d="M113.7,18.3h-3.4l-0.8,2.5h-1.8l3.4-9.6h1.8l3.4,9.6h-1.8L113.7,18.3z M112,12.9c0,0-0.2,0.9-0.4,1.5
				l-0.9,2.6h2.5l-0.9-2.6C112.2,13.8,112,12.9,112,12.9L112,12.9z M112.3,8.7h1.8l-1.4,1.8h-1.4L112.3,8.7z"/>
			<path class="st0" d="M118.2,11.2h1.7v8.1h4.2v1.5h-5.9V11.2z"/>
			<path class="st0" d="M69,32.4h1.9l2.1,6.3c0.2,0.6,0.4,1.4,0.4,1.4h0c0,0,0.2-0.9,0.4-1.4l2.1-6.3h1.9L74.3,42h-1.7L69,32.4z"/>
			<path class="st0" d="M79.6,32.4h5.8v1.5h-4v2.5h3.2v1.5h-3.2v2.6h4.2V42h-6V32.4z"/>
			<path class="st0" d="M88.1,32.4h3.1c1,0,1.5,0.1,1.9,0.3c1,0.4,1.6,1.4,1.6,2.6c0,1.2-0.6,2.2-1.6,2.6v0c0,0,0.1,0.1,0.3,0.5
				l2,3.6h-2l-1.9-3.6h-1.7V42h-1.7V32.4z M89,29.9h1.4l0.7,1.1h0l0.7-1.1h1.4L92,31.7h-1.7L89,29.9z M91.4,36.9
				c0.9,0,1.5-0.6,1.5-1.5c0-0.9-0.4-1.5-1.8-1.5h-1.3v3H91.4z"/>
			<path class="st0" d="M97.7,32.4h5.8v1.5h-4v2.5h3.2v1.5h-3.2v2.6h4.2V42h-6V32.4z"/>
			<path class="st0" d="M105.3,38.6h1.7V39c0,1.1,0.6,1.5,1.3,1.5c0.7,0,1.2-0.4,1.2-1.4v-5.2h-2.5v-1.5h4.2v6.8c0,2.1-1.5,3-3,3
				c-1.5,0-3-0.9-3-3V38.6z"/>
			<path class="st0" d="M114.3,32.4h1.7l3.6,5.6c0.4,0.6,0.8,1.5,0.8,1.5h0c0,0-0.1-0.9-0.1-1.5v-5.6h1.7V42h-1.7l-3.6-5.5
				c-0.4-0.6-0.8-1.5-0.8-1.5h0c0,0,0.1,0.9,0.1,1.5V42h-1.7V32.4z"/>
			<path class="st0" d="M125.3,32.4h5.8v1.5h-4v2.5h3.2v1.5H127v2.6h4.2V42h-6V32.4z M128.6,29.9h1.8l-1.4,1.8h-1.4L128.6,29.9z"/>
			<path class="st0" d="M70.5,60.7c0,0,1,1,2.4,1c0.7,0,1.4-0.4,1.4-1.2c0-1.7-4.5-1.4-4.5-4.4c0-1.6,1.4-2.8,3.2-2.8
				c1.9,0,2.9,1,2.9,1l-0.8,1.4c0,0-0.9-0.8-2.1-0.8c-0.8,0-1.5,0.5-1.5,1.2c0,1.7,4.5,1.3,4.5,4.4c0,1.5-1.2,2.8-3.2,2.8
				c-2.1,0-3.3-1.3-3.3-1.3L70.5,60.7z"/>
			<path class="st0" d="M78.4,53.5h3.7c1.8,0,3.1,1.3,3.1,3.1s-1.3,3.2-3.1,3.2h-2v3.3h-1.7V53.5z M81.8,58.3c1,0,1.6-0.7,1.6-1.7
				c0-1-0.6-1.6-1.6-1.6h-1.7v3.3H81.8z"/>
			<path class="st0" d="M87.4,53.5h3.1c1,0,1.5,0.1,1.9,0.3c1,0.4,1.6,1.4,1.6,2.6c0,1.2-0.6,2.2-1.6,2.6v0c0,0,0.1,0.1,0.3,0.5
				l2,3.6h-2l-1.9-3.6h-1.7v3.6h-1.7V53.5z M90.7,58.1c0.9,0,1.5-0.6,1.5-1.5c0-0.9-0.4-1.5-1.8-1.5h-1.3v3H90.7z"/>
			<path class="st0" d="M101.8,60.7h-3.4l-0.8,2.5h-1.8l3.4-9.6h1.8l3.4,9.6h-1.8L101.8,60.7z M100.1,55.2c0,0-0.2,0.9-0.4,1.5
				l-0.9,2.6h2.5l-0.9-2.6C100.3,56.2,100.1,55.2,100.1,55.2L100.1,55.2z M100.4,51.1h1.8l-1.4,1.8h-1.4L100.4,51.1z"/>
			<path class="st0" d="M104.7,53.5h1.9l2.1,6.3c0.2,0.6,0.4,1.4,0.4,1.4h0c0,0,0.2-0.9,0.4-1.4l2.1-6.3h1.9l-3.5,9.6h-1.7
				L104.7,53.5z"/>
			<path class="st0" d="M117.8,59.1l-3.2-5.6h2l1.5,2.8c0.3,0.6,0.6,1.3,0.6,1.3h0c0,0,0.3-0.7,0.6-1.3l1.5-2.8h2l-3.2,5.6v4h-1.7
				V59.1z"/>
		</g>
	</g>
</g>
</svg>
