<svg width="144" height="50" fill="none" xmlns="http://www.w3.org/2000/svg">
  <g clip-path="url(#clip0)" fill="#fff">
    <path d="M20 31.5c-.2 0-.7 0-1.2-.6-.5-.8.3-.9.3-1.4 0-.5-1.2-1.4-1.6-1.6-.4-.1-.1-.5-.3-.7-.3-.1-.7-.2-3.8-.2-3 0-3.7 1.9-4 1.9-1 0-1.9-1-1.9-1-.1 1 1.2 1.5.8 1.6-.6.1-1-.2-2-.2-2.5 0-2.7 1.8-2.7 1.8 1.5-1.5 6.1-1.3 6.1-.5 0 .7-.8.3-.8.5 0 .3 1 1.7 1 3.5 0 2.9-2.6 3.7-3.5 3.7-.8 0-1.1-1-1.8-1.6-.7-.7-1.6 0-1.6 0s.4-.1.4.2c0 .2-.4.2-.4.7 0 .8 1.3.6 1.5.6.2 0 .7.2.7.7 0 .5-3.7 0-3.1.2.5.3.3.8.3 1.2 0 .4.4.8.8.8s.8-.3 1.2-.7c.5-.5.7-.3.9-.1v.6c-.5.3-1.8 1.2-1.6 1.2.3 0 .6 0 .6.2 0 .5.5.7.8.7.3 0 1-.2 1-1 0-1 .5-1.7 1-1.7.6 0 .6.8.6 1.2 0 .4.3.7.7.7.5 0 .6-.5.6-.7 0-.2.7-.1.9-.1 0 0-.4-.5-1-.9-.7-.4-.5-.6-.2-.7.2 0 4.7-1.3 4.4-1.4-.3-.2-.4-.5-.2-.9.5-.9 3 1 3 1-.8-1.6-2.2-2.3-2.8-2.3-.6 0-.6-.3-.6-.3-.7-3.6.2-4.5 1.4-4.6 1.2 0 2.3.3 3.8.5 1.7.2 2.5-.4 2.3-.3zM36 11.7c0-.5.6-1 .9-1.7.2-.7.1-1.9-.5-2.3a7.3 7.3 0 01-1.3-1.5c0 .5.5 1.6 0 1.7-1 .1-1.7-1.9-1.7-1.9s-.2 1.2.5 1.9c.8.7 1.7 1.8 1 2.2-.5.5-1.4-1-1.4-1-.2 1.6 1.4 2.2 1.4 2.2C35 12.5 32 15 32 15l1 .9c1.6-1.7 2.9-3.7 3-4.3z"/>
    <path fill-rule="evenodd" clip-rule="evenodd" d="M37 21.6c.2-.2.4-.4 1-.2 0 0-1.2.6-1 2 .1 1.4-1.1 4.8-4.3 5.3 0 0-.4 3.1-4 2.8 0 0 3 3.2 2.9 6.8 0 0-2-6-6.8-8.6 0 0-.2 0-.1.5 0 .5-.3 1.5-.5 2-.3.5-.4 5.2 3.6 6.3 1 .3 1.8 0 1.8 0s-.6 1-2.7 1c-.6 0-.5.8.3.8.2 0-1 4.8-2.6 6.6-.4.3 0 .4.1.5h.1c.2 0 1 .4 1.3.7h-.6v.2c0 .3-.2.8-.8.8-.7 0-1-.8-1-1.2 0-.4-.4-.4-.5-.3-.1 0-.7.2-.8.9-.1.7-.3 1.5-1 1.5s-.9-.5-.9-.9c0-.1 0 0-.2 0l-.5-.1s2-1.2 1.8-1.7c-.2-.5-.6-.4-.7-.2-.1.1-1 .7-1.5.8-.6 0-.9-.7-.5-1.4l-.2-.2-.3-.3s2.8.4 2.7-.2c0-.7-.6-.6-.9-.5-.2 0-1 0-1-.6l.1-.4.2-.3c0-.3-.3-.4-.3-.4h1.1l.8.8c.4.5.9 1 1.4 1 .8 0 1.4-1.2 1.4-3.7 0-2.3 0-2.3-.7-2.6l-.1-.3c0-.1 0-.3-.2-.4-.4-.1-1 .6-.8 3.5 0 0-.6-1-.7-2.5v-.6-.6l-.3.3c-.3.3-.7.8-1.3 1 0 0 .8-1.2.8-2 0-.3-.1-.5-.3-.7-.3-.4-.8-1-.8-3.4l.2-1.7c.1-.4.3-.8.3-1.5 0-1.2-2.1-2.6-3.5-3.5l-.5-.3a19 19 0 01-2.5-2.4l.5-.8c.4-.6 1-1.4.7-1.7-.5-.4-.8.2-1.1.7l-.2.4c-.4.6-1 1.1-1.3 1.3v-.7c0-.6 0-1.6-.4-1.6-.7 0-.8.8-.6 1 0 .2 0 .2-.3.2-.2 0-.7 0-1 .4-.3.4-.7 1-.9 2.1 0 0-.4-1 0-2 .1-.2-1.2 0-3.7.6-.4 0-.4.3-.4 1a6 6 0 010 1.6c-.1.2-.2-.3-.2-.5h-.3c-.3.1-1 .3-1-.4 0-.6.1-.7.3-.8.1 0 .2-.1.2-.4 0-.5-.3-.9-.9-.9-.2 0-.5.3-.7.6-.3.3-.5.6-1 .6-.8 0-1-.6-1-.8v-.3l.2-.3c0-.2-.2-.4-.4-.4l.4-.1h.3c.6 0 1.8.2 1.8-.5 0-.3-.2-.3-.5-.2h-.4-.1C.9 22 0 21.9 0 21c0-.6.7-.7.7-.7v-.6c-.1-.3 1.4 1 1.7 1.3.2.4.6.2.6.1.1 0 .3-.4-.2-.7-.5-.3-.6-.5-.6-1s.5-.6.6-.6c.2 0 .2-.4.1-.7-.1-.3.7.4 1 1.2v.6c0 .5 0 1.2.9 1.4l1-.3 5-1.9s.7-.2.5-.6c-.2-.4-1-.5-1.9.3-1 .7 1.2-3.2 3.3-3.2.3 0 .4-.3.4-.4 0-.1 0-.4-.8-.4-.9 0-2 .9-2.5 1.7h-.2c-.2-.2-.6-.5-1.2-.5-1 0-1.6.2-1.7.3-.2 0 .5-1 1.6-1 .2 0 .2-.4-.2-.7-.4-.2-.9-1-1.3-1.5l-.5-.6c-.3-.3-.8.8-1.2 1.6l-.2-.5-.2-.1c-.3-.2-.7-.3-.7-1 0-.9.7-.6 1-.5.4.2.8-.3.7-.8a1 1 0 00-1.1-.8c-.7 0-1.6-.4-1.6-1s.3-.7.5-.8h.2c.1-.2.1-.6 0-.8l1.3 1c.5.6.6.8.8.6.2 0 .3-.5-.4-1-.7-.6-.5-1.3-.3-1.7h.4c.3 0 .7 0 .9-.2.1-.6.3 1 .3 1.8 0 .5.1.7.3.7.2 0 .4-.1.3-1-.1-.9.2-1 .4-1.1l.7.1c.2.2.5-.1.5-.4 0 0 .4.8 0 1.4a3 3 0 01-.4.4c-.4.5-.9 1-.3 2l3.7 4s.3 0 0-.4c-.1-.3 0-.7 0-.8 0 0 1.4 1.2 3.9.9 2.6-.3 3.6-2 3.2-2.5 0 0-1.1 1.2-2.2 1.2-1 0-1.7-1.1-1.4-1.9 0 0 .6.6 1.5.6s1.7-1 1.5-1.6l-.9.2c-.8.2-2 .7-4 .7-3 0-3.5-3-1.3-4.4 0 0-1.7 3.5 2.2 3.5a11 11 0 003.8-.6s-.2-1.1-1.4-1.1c-1.1 0-1.5 1.2-1.5 1.2s-1-.7-.7-1.6c0-.1.1-.2.3-.2.3 0 .7-.1.7-.6 0-.3-.2-.3-.3-.3l-.3.3c0 .1 0 .3-.3.3-.4 0-.4-1.1.4-1.1 0 0 .7 0 .7-.3s1-.8 3.2-.8c2 0 2.6.7 2.6.7S22 5 22.8 5c.9 0 1 .7 1 .8 0 .4-.2.6-.2.7l-.1.2.2.4c.3.5 1.1 1.8 1.1 2.9 0 1.5.3 3.2 1.6 4.6 0 0-1-.2-1.7-1-.2 0-.3 3.2.3 4.2.2.2-.2.1-.6-.3l-.2-.3c-.2-.3-.3-.5-.4-.4-.1.2-1.1 2.2 0 4 .3.4-1-.2-1.4-1-.1-.3-.9 2.4.1 4.4.2.5-1-.4-1.1-.8-.2-.3-.6.4 0 1.6.7 1.3 1.2 2.4 1.6 2.8.3.3 1 .6 1.5.8l.6.4.3.1c.7.5 2.2 1.5 3.6 1.5 1.6 0 2.4-1.2 2.4-1.8h-.3c-1-.2-4.8-.9-4.8-5.4 0-3.8 3.9-6.1 3.9-6.1l.8.9s-3.5 2.4-3.5 5.2c0 2.9 2.5 4.2 4 4.2 0 0 .9-1.7-2.7-3.4 0 0 1.8-.4 2.7 1 .3.4.4.1.5 0 0-.1.6-.7 1.3-.4 0 0-1.1 1-.5 2.7 0 0 3-.7 3-3.9 0-2.3-2-4-3.5-5.3L31 17 30 16c-1-1-2.1-2.2-2.3-4 0 0-1.2-.4-1.2-1.9s1.8-3 1.9-3.1v.3c-.2.4-.4 1.3 0 1.3.7 0 1.8-1.5 1.9-1.8.1-.2.1.8-.5 1.7l-.8.8c-.4.5-.8 1-.5 1.3.4.5 1.3-.4 1.5-.8.2-.5-.2 1.6-1.3 2.1 0 0-.7 1 3.2 4.4 1.9 1.5 2.7 2.3 3 2.6 0 0 .2-.1.2-.7 0-.5.2-1 .5-1.3 0 0-.3 3 .3 3.3.3 0 .4-.2.4-.7.1-.3.4-.7.5-.6 0 0-.6 2.5.1 3l.3-.2zm-23.9-1.2c.2-2 1.2-2.7 1.3-2.7.2 0 .2-.3 0-.5 0-.2-.2-.2-.4-.1-.3.2-1.5 1-1.6 3.2 0 .3.1.5.3.5.2 0 .4-.2.4-.4zm5.2-12.8c-.4 0-.6-.2-.7-.4 0 0 1-.2 1-.4h-1.3l-.1-.5s0-.3.3-.3h1.7s.4 0 .4.3-.5.2-.5.2 0 1-.8 1zm.6 6.8l-.5.1.1.5c.2.2 1.2 1 .7 3.4 0 .2 0 .4.3.4.2 0 .3-.1.4-.3.6-2.9-.8-4-1-4.1zm-3.1 2.4c0-.2.3-.2.4-.1 0 0 .7.3 1 1.2.2 1 0 2-.8 3.3l-.3.2h-.2c-.2-.1-.2-.4-.1-.6.6-1 .8-2 .6-2.6-.2-.6-.6-.8-.6-.8v-.6zm-.4 7.7h.1c2.2-1.1 2.2-2.7 2.2-2.7 0-.2-.1-.4-.3-.4-.2 0-.4.1-.4.3 0 0-.1 1.2-1.8 2.1-.1 0-.2.3-.1.5l.3.2zm3.1-.1h-.1c-.1 0-.3 0-.3-.2-.1-.2 0-.4 0-.4a2.8 2.8 0 001.6-2.3c0-.2.1-.3.3-.3.2 0 .4.1.4.3 0 .1 0 1.9-1.9 2.9zm2.1-12.1s.4.6.2 2.7c0 .2.2.3.5.3.1 0 .4 0 .4-.3 0-1.4 0-2.2-.2-2.6.6 0 1-.1 1.3-.4l.2-.5c0-1-1.9-1.7-2.5-2-.2 0-.4 0-.5.3 0 .2 0 .4.2.5 1 .3 2 1 2 1.2 0 .1-.3.2-1.2.2-.2 0-.4 0-.4.2-.1.1 0 .3 0 .4zM15.7 1.7c0-.3-.2-.5-.4-.5L15 .4c.5 0 2 .7 2 1.3 0 .6-.7.7-.7.7 0 .8.7.8.7.8h.8c.6 0 .6-.8.6-.8s-.8-.2-.8-.6c0-.8 1.3-1.8 1.3-1.8s1.4 1 1.4 1.6c0 .7-.9.8-.9.8.2.7 1 .8 1 .8h.6c.9 0 .5-.9.5-.9s-.6 0-.6-.5C21 .8 23 .4 23 .4l-.2.8c-.3 0-.5.2-.5.5 0 .1 0 .3.3.3l-.5 2h-6.2l-.4-1.9.2-.4zm3.7 0c0-.3-.2-.5-.4-.5-.3 0-.5.2-.5.5s.2.5.5.5c.2 0 .4-.2.4-.5z"/>
  </g>
  <path d="M68.8 15.4a6.2 6.2 0 01-2 4.3 6.9 6.9 0 01-4.7 1.5 6.4 6.4 0 01-6-3.7 10 10 0 01-1-4.1v-1.6c0-1.6.4-3 1-4.3a6.5 6.5 0 016.1-3.8c1.9 0 3.4.5 4.5 1.5 1.2 1 1.9 2.5 2 4.4h-2.9c-.1-1.3-.5-2.1-1-2.7-.6-.5-1.5-.8-2.6-.8-1.3 0-2.3.5-3 1.4a7 7 0 00-1 4.2v1.5c0 1.8.3 3.2 1 4.2.6 1 1.6 1.4 2.9 1.4 1.1 0 2-.2 2.6-.7.6-.6 1-1.4 1.1-2.7h3zM85 13c0 1.7-.3 3.2-.8 4.4a6.6 6.6 0 01-2.5 3c-1 .6-2.3 1-3.7 1-1.4 0-2.6-.4-3.7-1-1.1-.8-2-1.7-2.5-3-.6-1.2-1-2.7-1-4.3v-1c0-1.6.4-3 1-4.4a6.7 6.7 0 012.4-2.9c1.1-.7 2.4-1 3.8-1a6.5 6.5 0 016.2 3.9c.5 1.2.8 2.7.8 4.4v1zm-3-.9c0-1.9-.3-3.3-1-4.3s-1.7-1.5-3-1.5-2.3.5-3 1.5c-.8 1-1.1 2.4-1.2 4.2v1c0 1.9.4 3.3 1.1 4.4.8 1 1.8 1.5 3 1.5 1.4 0 2.4-.5 3.1-1.5.7-1 1-2.5 1-4.4V12zm11.7 5.3l4.4-13.4h3.2L95.2 21h-2.9L86.2 4h3.2l4.3 13.3zm12.7 3.7h-3V4h3v17zm3.6 0V4h5c1.6 0 3 .3 4 1 1.3.6 2.2 1.6 2.8 2.8a9 9 0 011 4.2v.9a9 9 0 01-1 4.3A6.7 6.7 0 01119 20c-1.1.7-2.5 1-4 1h-5zm3-14.7v12.3h2c1.5 0 2.7-.5 3.5-1.4.8-1 1.3-2.4 1.3-4.2v-1c0-1.8-.4-3.2-1.2-4.2-.8-1-2-1.5-3.5-1.5H113zM58.7 39.7V46h-3V29h6.6c1.9 0 3.4.4 4.5 1.4a5 5 0 011.7 4c0 1.6-.6 3-1.7 3.9-1 .9-2.6 1.4-4.6 1.4h-3.5zm0-2.4h3.6c1 0 1.8-.3 2.4-.8.5-.5.8-1.2.8-2.1a3 3 0 00-.8-2.2c-.6-.6-1.4-.9-2.4-.9h-3.6v6zm26 .6c0 1.7-.3 3.2-.9 4.4a6.6 6.6 0 01-2.4 3c-1.1.6-2.4 1-3.8 1-1.3 0-2.6-.4-3.7-1-1-.8-1.9-1.7-2.5-3-.5-1.2-.8-2.7-.9-4.3v-1c0-1.6.3-3 1-4.4a6.7 6.7 0 012.4-2.9c1.1-.7 2.3-1 3.7-1a6.5 6.5 0 016.2 3.9c.6 1.2.9 2.7.9 4.4v1zm-3-.9c0-1.9-.3-3.3-1-4.3-.8-1-1.8-1.5-3-1.5-1.4 0-2.4.5-3 1.5-.8 1-1.2 2.4-1.2 4.2v1c0 1.9.4 3.3 1.1 4.4.7 1 1.8 1.5 3 1.5 1.4 0 2.4-.5 3-1.5.8-1 1.1-2.5 1.1-4.4V37zM94 39.4h-3.3V46h-3V29h6c2 0 3.5.4 4.6 1.3 1 .8 1.6 2.1 1.6 3.8 0 1.1-.3 2-.8 2.9-.6.7-1.3 1.3-2.3 1.7l3.8 7.1v.2h-3.2L94 39.4zM90.6 37h3c1 0 1.8-.2 2.4-.7.6-.5.9-1.2.9-2 0-1-.3-1.7-.8-2.2-.5-.5-1.3-.8-2.4-.8h-3V37zm23.8-5.7H109V46h-3V31.3h-5.3V29h13.6v2.4zM124.8 42h-6.6l-1.4 4h-3.1l6.4-17h2.7l6.5 17h-3.1l-1.4-4zm-5.8-2.4h5l-2.5-7-2.5 7zm3.4-15.2h3.2l-3.2 3.5H120l2.3-3.5zm11.8 19.2h7.7V46h-10.7V29h3v14.6z" fill="#fff"/>
  <defs>
    <clipPath id="clip0">
      <path fill="#fff" d="M0 0h38v50H0z"/>
    </clipPath>
  </defs>
</svg>