<svg width="155" height="64" viewBox="0 0 155 64" fill="none"
  xmlns="http://www.w3.org/2000/svg">
  <path d="M25.2202 39.7895C24.9541 39.8797 24.3331 39.8797 23.7121 38.9774C23.0912 38.0752 24.067 37.8947 24.067 37.2632C24.067 36.6316 22.6476 35.4586 22.1154 35.2782C21.5831 35.0977 21.9379 34.5564 21.6718 34.3759C21.4057 34.1955 20.8734 34.1053 16.9702 34.1053C13.067 34.1053 12.2686 36.4511 11.825 36.4511C10.5831 36.4511 9.51857 35.188 9.51857 35.188C9.34115 36.4511 11.0266 37.0827 10.4944 37.2632C9.69599 37.4436 9.25244 36.9925 8.0105 36.9925C4.81695 36.9925 4.55082 39.3383 4.55082 39.3383C6.41372 37.4436 12.2686 37.6241 12.2686 38.6165C12.2686 39.5188 11.2928 39.0677 11.2928 39.3383C11.2928 39.609 12.5347 41.4135 12.5347 43.7594C12.5347 47.3684 9.16373 48.3609 8.09921 48.3609C7.03469 48.3609 6.67985 47.188 5.79275 46.3759C4.90566 45.4737 3.75243 46.2857 3.75243 46.2857C3.75243 46.2857 4.28469 46.1955 4.28469 46.5564C4.28469 46.9173 3.84114 46.9173 3.84114 47.4586C3.84114 48.5413 5.43792 48.2707 5.70404 48.2707C5.97017 48.2707 6.59114 48.4511 6.59114 49.0827C6.59114 49.7143 1.88952 49.0827 2.5992 49.4436C3.30888 49.8045 3.04275 50.3459 3.04275 50.8872C3.04275 51.4286 3.4863 51.8797 4.01856 51.8797C4.55082 51.8797 5.08308 51.5188 5.61534 50.9774C6.14759 50.4361 6.50243 50.7068 6.67985 50.8872C6.85727 51.0677 6.85727 51.5188 6.59114 51.6992C6.05888 52.0601 4.3734 53.2331 4.72824 53.2331C5.08308 53.2331 5.43792 53.2331 5.43792 53.4135C5.43792 54.0451 6.05888 54.3158 6.41372 54.3158C6.76856 54.3158 7.74437 54.0451 7.74437 53.0526C7.74437 51.6992 8.27663 50.8872 8.98631 50.8872C9.69599 50.8872 9.69599 51.8797 9.69599 52.421C9.69599 52.9624 10.0508 53.3233 10.6718 53.3233C11.2928 53.3233 11.3815 52.6917 11.3815 52.421C11.3815 52.1504 12.2686 52.2406 12.446 52.2406C12.6234 52.2406 12.0024 51.6992 11.2041 51.1579C10.4057 50.6165 10.5831 50.3459 10.9379 50.2556C11.2928 50.1654 16.9702 48.6316 16.5266 48.4511C16.1718 48.2707 15.9944 47.8195 16.2605 47.3684C16.8815 46.2857 20.1637 48.5413 20.1637 48.5413C19.0992 46.6466 17.325 45.7444 16.5266 45.7444C15.7283 45.7444 15.7283 45.3835 15.7283 45.3835C14.9299 40.7819 16.0831 39.6992 17.5912 39.5188C19.0992 39.4286 20.5186 39.9699 22.3815 40.1504C24.5105 40.421 25.4863 39.6992 25.2202 39.7895Z" fill="white"/>
  <path d="M45.4737 14.7185C45.5639 14.1693 46.2857 13.4371 46.5564 12.6133C46.9173 11.6979 46.7368 10.2334 46.015 9.68421C45.2932 9.22655 44.3007 7.85355 44.3007 7.85355C44.3007 8.49428 44.9323 9.86728 44.3909 9.95881C43.1278 10.1419 42.1353 7.57895 42.1353 7.57895C42.1353 7.57895 41.9549 9.13501 42.8571 9.95881C43.8496 10.8741 44.9323 12.2471 44.1203 12.7963C43.3985 13.3455 42.3158 11.6064 42.3158 11.6064C42.0451 13.5286 44.03 14.2609 44.03 14.2609C44.2105 15.8169 40.421 19.1121 40.421 19.1121L41.6842 20.2105C43.7594 18.1053 45.2932 15.5423 45.4737 14.7185Z" fill="white"/>
  <path fill-rule="evenodd" clip-rule="evenodd" d="M46.8161 27.2918C46.9805 27.0842 47.2151 26.7879 48 27.0175C48 27.0175 46.5435 27.807 46.7149 29.5614C46.8862 31.3158 45.344 35.614 41.3173 36.2281C41.3173 36.2281 40.8032 40.1754 36.1767 39.7368C36.1767 39.7368 40.0321 43.7719 39.8608 48.3333C39.8608 48.3333 37.2905 40.7895 31.3788 37.5439C31.3788 37.5439 31.0361 37.4561 31.2075 38.1579C31.2932 38.7719 30.8648 40.0877 30.5221 40.7018C30.1794 41.3158 30.0937 47.2807 35.0629 48.6842C36.2624 48.9474 37.3762 48.5965 37.3762 48.5965C37.3762 48.5965 36.6908 49.9123 34.0348 49.8246C33.2637 49.8246 33.3494 50.9649 34.3775 50.9649C34.6345 50.9649 33.0924 57.0175 31.0361 59.2982C30.6172 59.6557 30.995 59.7801 31.2419 59.8614C31.2979 59.8798 31.3472 59.8961 31.3788 59.9123C31.5502 59.9123 32.4926 60.4386 32.921 60.7895C32.921 60.7895 32.3213 60.7018 32.2356 60.8772C32.2199 60.9093 32.2071 60.9678 32.1909 61.0421C32.1184 61.3735 31.9775 62.0175 31.2075 62.0175C30.2651 62.0175 30.008 61.0526 30.008 60.5263C30.008 60 29.494 60 29.3226 60.0877C29.1513 60.0877 28.4659 60.3509 28.2945 61.2281C28.1232 62.1053 27.8661 63.1579 27.0094 63.1579C26.1526 63.1579 25.8956 62.5439 25.8956 62.0175C25.8956 61.8944 25.8206 61.9057 25.6881 61.9256C25.5374 61.9483 25.3124 61.9822 25.0388 61.8421C25.0388 61.8421 27.5234 60.3509 27.2664 59.7368C27.0094 59.1228 26.581 59.2982 26.4096 59.4737C26.2383 59.6491 25.2102 60.4386 24.5248 60.5263C23.7537 60.614 23.411 59.5614 23.8394 58.7719C23.9359 58.6237 23.8149 58.559 23.6449 58.468C23.5131 58.3974 23.3519 58.3111 23.2396 58.1579C23.2396 58.1579 26.7523 58.5965 26.6667 57.807C26.581 57.0175 25.8956 57.1053 25.5529 57.193C25.2102 57.2807 24.1821 57.193 24.1821 56.4035C24.1821 56.172 24.3014 56.0382 24.4141 55.9119C24.5149 55.799 24.6104 55.692 24.6104 55.5263C24.6104 55.2632 24.2677 55.0877 24.2677 55.0877C24.2677 55.0877 24.9531 54.9123 25.6386 55.1754C25.9119 55.2804 26.2397 55.6503 26.6002 56.0573C27.1439 56.6708 27.762 57.3684 28.3802 57.3684C29.4083 57.3684 30.1794 55.7895 30.1794 52.7193C30.1794 49.7668 30.1001 49.7348 29.3321 49.4246L29.3308 49.424L29.328 49.4229L29.267 49.3982L29.2369 49.386C29.1708 49.3182 29.1685 49.1982 29.1659 49.0663C29.1619 48.8565 29.1573 48.6165 28.8942 48.5088C28.4659 48.3333 27.7805 49.2105 27.8661 52.8947C27.8661 52.8947 27.1807 51.579 27.095 49.7368C27.095 49.4743 27.119 49.224 27.1401 49.0043C27.1753 48.637 27.2023 48.3554 27.095 48.2456C27.0263 48.1752 26.8747 48.345 26.6403 48.6076C26.2907 48.9992 25.7569 49.5972 25.0388 49.9123C25.0388 49.9123 25.9813 48.3333 25.9813 47.2807C25.9813 46.9391 25.8369 46.7638 25.6419 46.527C25.2359 46.0339 24.6104 45.2742 24.6104 42.193C24.6104 41.149 24.771 40.5747 24.926 40.0206C25.0705 39.5038 25.2102 39.0045 25.2102 38.1579C25.2102 36.6188 22.5725 34.8771 20.884 33.7621C20.6478 33.6062 20.4302 33.4625 20.241 33.3333C18.7845 32.193 17.328 30.7018 17.0709 30.3509C16.9675 30.2097 17.2942 29.7702 17.6769 29.2553C18.2452 28.4907 18.937 27.5599 18.5274 27.193C17.9687 26.6925 17.5808 27.3577 17.1781 28.0483C17.0867 28.2049 16.9946 28.3628 16.8996 28.5088C16.3855 29.2983 15.6145 30 15.2718 30.1754C15.1443 30.2407 15.1709 29.8569 15.2061 29.3492C15.2656 28.4917 15.3496 27.2807 14.7577 27.2807C13.9009 27.2807 13.8153 28.2456 13.9866 28.5965C14.0571 28.7408 13.9102 28.7516 13.6712 28.7691C13.3289 28.7943 12.7976 28.8334 12.4444 29.2983L12.4271 29.3196C12.0022 29.8413 11.4985 30.4599 11.245 32.0175C11.245 32.0175 10.7309 30.7895 11.245 29.4737C11.4163 29.1228 9.70281 29.386 6.5328 30.1754C6.01874 30.2632 6.01874 30.614 6.01874 31.4912C6.10442 32.5439 6.10442 33.0702 6.01874 33.5088C5.93307 33.7719 5.76171 33.0702 5.76171 32.8947C5.76171 32.8466 5.63924 32.8711 5.46148 32.9066C4.99118 33.0006 4.13387 33.1719 4.13387 32.2807C4.13387 31.5813 4.35617 31.4509 4.54757 31.3387C4.69225 31.2538 4.81928 31.1793 4.81928 30.8772C4.81928 30.1754 4.3909 29.7368 3.70549 29.7368C3.35529 29.7368 3.09345 30.0444 2.80761 30.3802C2.46407 30.7838 2.08586 31.2281 1.47791 31.2281C0.449799 31.2281 0.278447 30.4386 0.278447 30.1754C0.278447 30.0439 0.321285 29.9342 0.364123 29.8246C0.406961 29.7149 0.449799 29.6053 0.449799 29.4737C0.449799 29.2105 0.192771 28.9474 0.021419 28.9474C-0.064257 28.9474 0.107095 28.7719 0.535475 28.7719C0.607697 28.7719 0.731059 28.7844 0.886263 28.8001L0.886301 28.8001C1.6517 28.8774 3.19143 29.0331 3.19143 28.1579C3.19143 27.8244 2.89414 27.8459 2.48796 27.8754C2.36003 27.8847 2.2213 27.8947 2.07764 27.8947C2.01355 27.8854 1.94065 27.877 1.86156 27.8679C1.20058 27.792 0.107095 27.6664 0.107095 26.4912C0.107095 25.7895 0.963855 25.614 0.963855 25.614C0.963855 25.614 1.13521 25.3509 1.04953 24.9123C0.878179 24.4737 2.76305 26.1404 3.10576 26.579C3.44846 27.0175 3.87684 26.7544 3.96252 26.6667C4.04819 26.579 4.30522 26.1404 3.70549 25.7895C3.02008 25.4386 2.9344 25.0877 2.9344 24.4737C2.9344 23.8597 3.53414 23.7719 3.70549 23.7719C3.87684 23.7719 3.96252 23.2456 3.79116 22.8947C3.61981 22.5439 4.64792 23.3333 5.0763 24.386C5.15203 24.5669 5.15339 24.8239 5.15487 25.1055C5.15843 25.7797 5.16273 26.5946 6.19009 26.8421C6.19009 26.8421 6.44712 26.9298 7.47523 26.4912C8.41767 26.0526 13.7296 24.1228 13.7296 24.1228C13.7296 24.1228 14.672 23.8597 14.415 23.3333C14.158 22.807 13.2155 22.7193 12.0161 23.6842C10.8166 24.6491 13.5582 19.6491 16.1285 19.6491C16.5569 19.6491 16.7282 19.386 16.7282 19.2105C16.7282 19.0351 16.6426 18.6842 15.6145 18.6842C14.5863 18.6842 13.1299 19.8246 12.5301 20.8772C12.4677 20.9411 12.371 20.8652 12.2154 20.7429C11.944 20.5297 11.4932 20.1754 10.7309 20.1754C9.53146 20.1754 8.76037 20.4386 8.58902 20.5263C8.33199 20.5263 9.18875 19.2983 10.6452 19.2983C10.9023 19.2983 10.9023 18.8597 10.3025 18.4211C9.90914 18.1334 9.2208 17.2417 8.69702 16.5632C8.42231 16.2074 8.19287 15.9102 8.07497 15.7895C7.73226 15.4386 7.04685 16.7544 6.61847 17.807C6.5328 18.0702 6.36145 17.4561 6.36145 17.193C6.36145 17.1076 6.23514 17.0591 6.06451 16.9937C5.7093 16.8574 5.16198 16.6475 5.16198 15.8772C5.16198 14.6491 6.10442 15 6.5328 15.1754C6.96118 15.3509 7.47523 14.7368 7.38956 14.2105C7.30388 13.6842 6.78983 13.0702 5.93306 13.1579C5.0763 13.2456 3.96252 12.6316 3.96252 11.7544C3.96252 11.112 4.33009 10.9871 4.59417 10.8974C4.6907 10.8645 4.77341 10.8364 4.81928 10.7895C4.99063 10.614 4.99063 10.0877 4.90495 9.91229C4.81928 9.73685 5.84739 10.4386 6.44712 11.2281C7.04685 11.9298 7.21821 12.1053 7.47523 11.9298C7.73226 11.7544 7.81794 11.2281 6.96118 10.5263C6.10442 9.82457 6.27577 8.94737 6.61847 8.42106C6.67962 8.35845 6.8608 8.38521 7.08022 8.41763C7.47566 8.47604 7.99534 8.55281 8.16064 8.1579C8.33199 7.45615 8.58902 9.47369 8.58902 10.4386C8.58902 11.1404 8.76037 11.3158 9.0174 11.3158C9.27443 11.3158 9.53146 11.2281 9.36011 10.0877C9.20475 8.97428 9.61282 8.79825 9.81806 8.70971C9.83919 8.70059 9.85817 8.6924 9.87416 8.68422C10.1312 8.5965 10.4739 8.5965 10.7309 8.85966C10.988 9.12281 11.4163 8.68422 11.4163 8.33334C11.4163 8.33334 11.8447 9.29825 11.3307 10.0877C11.2095 10.2737 11.0456 10.4451 10.8781 10.6203C10.3347 11.1885 9.7535 11.7962 10.4739 13.0702L15.1861 18.0702C15.1861 18.0702 15.5288 18.0702 15.2718 17.7193C15.0147 17.3684 15.1004 16.8421 15.2718 16.6667C15.2718 16.6667 16.8996 18.1579 20.0696 17.807C23.3253 17.4561 24.6104 15.1754 24.0964 14.6491C24.0964 14.6491 22.7256 16.1404 21.3548 16.1404C19.9839 16.1404 19.2129 14.7368 19.6412 13.7719C19.6412 13.7719 20.3266 14.5614 21.4404 14.5614C22.5542 14.5614 23.668 13.2456 23.411 12.5439C23.3105 12.3723 22.9348 12.496 22.284 12.7101C21.2706 13.0435 19.59 13.5965 17.2423 13.5965C13.3869 13.5965 12.7871 9.73685 15.5288 8.07018C15.5288 8.07018 13.3869 12.5439 18.3561 12.5439C21.0977 12.5439 23.0683 11.7544 23.0683 11.7544C23.0683 11.7544 22.8112 10.3509 21.3548 10.3509C19.8983 10.3509 19.4699 11.8421 19.4699 11.8421C19.4699 11.8421 18.2704 11.0526 18.5274 9.82457C18.5592 9.69444 18.7442 9.66083 18.9643 9.62083C19.3378 9.55297 19.8126 9.46671 19.8126 8.85966C19.8126 8.50878 19.5556 8.50878 19.4699 8.50878C19.2654 8.50878 19.1976 8.6686 19.1267 8.8357C19.0489 9.01875 18.9675 9.21053 18.6988 9.21053C18.1847 9.21053 18.1847 7.80702 19.2129 7.80702C19.2129 7.80702 20.0696 7.89474 20.0696 7.45615C20.0696 7.01755 21.4404 6.49123 24.0964 6.49123C26.6667 6.49123 27.4378 7.28071 27.4378 7.28071C27.4378 7.28071 27.6948 6.3158 28.8086 6.3158C29.9224 6.3158 30.008 7.19299 30.008 7.36843C30.008 7.76857 29.8625 8.05697 29.7611 8.25788C29.7069 8.36527 29.6653 8.44767 29.6653 8.50878C29.6653 8.55015 29.7606 8.69885 29.9063 8.92612C30.3782 9.66254 31.3788 11.2239 31.3788 12.6316C31.3788 14.4737 31.7215 16.6667 33.3494 18.4211C33.3494 18.4211 32.1499 18.2456 31.2075 17.2807C30.9505 17.1053 30.8648 21.2281 31.5502 22.4561C31.8072 22.7193 31.2932 22.6316 30.8648 22.1053C30.7405 21.9526 30.6306 21.7998 30.5331 21.6643C30.2945 21.3326 30.1297 21.1035 30.008 21.2281L30.0037 21.2369C29.8868 21.4749 28.6565 23.9794 30.008 26.2281C30.4364 26.7544 28.8086 26.0526 28.2945 25C28.1232 24.6491 27.1807 27.9825 28.4659 30.614C28.7229 31.1404 27.2664 30 27.0094 29.5614C26.7523 29.1228 26.324 30.0877 27.095 31.579C27.8661 33.1579 28.5515 34.5614 29.0656 35.0877C29.4154 35.4459 30.2413 35.8447 30.9224 36.1735L30.9225 36.1735C31.2422 36.3279 31.53 36.4669 31.7216 36.579C31.8078 36.6294 31.9278 36.7071 32.076 36.8032C32.9586 37.3748 34.8446 38.5965 36.6051 38.5965C38.6613 38.5965 39.6894 37.1053 39.6894 36.4035C39.6894 36.379 39.5626 36.358 39.3443 36.3217C37.9986 36.0982 33.178 35.2976 33.178 29.5614C33.178 24.7368 38.1473 21.8421 38.1473 21.8421L39.1754 22.9825C39.1754 22.9825 34.7202 25.9649 34.7202 29.5614C34.7202 33.1579 37.8902 34.9123 39.8608 34.9123C39.8608 34.9123 40.8889 32.7193 36.4337 30.614C36.4337 30.614 38.6613 30 39.7751 31.8421C40.1178 32.2807 40.2892 32.0175 40.3748 31.8421C40.4605 31.6667 41.1459 30.9649 42.0884 31.3158C42.0884 31.3158 40.6319 32.5439 41.4029 34.7368C41.4029 34.7368 45.1727 33.8597 45.1727 29.8246C45.1727 26.9023 42.7461 24.8082 40.8545 23.1757C40.1342 22.554 39.4914 21.9993 39.0897 21.4912C38.7063 21.0063 38.2516 20.5396 37.7835 20.0591C36.4735 18.7144 35.0584 17.2619 34.8059 15C34.8059 15 33.3494 14.5614 33.3494 12.6316C33.3494 10.7018 35.577 8.77194 35.7483 8.68422C35.7985 8.65853 35.7532 8.82086 35.6855 9.06329L35.6855 9.06332L35.6855 9.06336C35.522 9.64893 35.2281 10.7018 35.834 10.7018C36.6051 10.7018 38.0616 8.85966 38.1473 8.50878C38.3186 8.1579 38.3186 9.47369 37.4618 10.614C37.1983 11.0039 36.8646 11.3527 36.5601 11.671C35.9738 12.2839 35.4957 12.7837 35.834 13.2456C36.3481 13.9474 37.5475 12.7193 37.8046 12.193C38.0616 11.6667 37.5475 14.2105 36.091 14.9123C36.091 14.9123 35.2343 16.0526 40.2035 20.5263C42.5167 22.3684 43.5448 23.4211 43.8876 23.7719C43.8876 23.7719 44.2303 23.5965 44.2303 22.8947C44.2303 22.193 44.4873 21.4912 44.83 21.2281C44.83 21.2281 44.4016 25 45.2584 25.3509C45.6011 25.4386 45.6867 25.0877 45.7724 24.5614C45.8581 24.1228 46.2008 23.5965 46.3722 23.6842C46.3722 23.6842 45.6011 26.9298 46.5435 27.4561C46.662 27.4865 46.7292 27.4015 46.8161 27.2918ZM16.5569 25.7895C16.8139 23.2456 18.0991 22.3684 18.1848 22.3684C18.4418 22.2807 18.4418 21.9298 18.2704 21.7544C18.1848 21.4912 17.9277 21.4912 17.6707 21.579C17.6636 21.5862 17.6455 21.6 17.6181 21.6208L17.6181 21.6208L17.6181 21.6209L17.618 21.6209L17.618 21.6209L17.618 21.6209C17.3121 21.8536 15.8503 22.9655 15.6145 25.7018C15.6145 25.9649 15.7858 26.2281 16.0429 26.2281H16.1285C16.2999 26.2281 16.5569 26.0526 16.5569 25.7895ZM23.1539 9.56142C22.5542 9.56142 22.3828 9.29826 22.2114 9.03511C22.2114 9.03511 23.5823 8.85967 23.5823 8.59651C23.5823 8.42107 23.1539 8.50879 23.1539 8.50879H21.9544C21.9544 8.50879 21.6974 8.24563 21.6974 7.89475C21.6974 7.89475 21.6974 7.6316 22.1258 7.6316H24.2677C24.2677 7.6316 24.6961 7.6316 24.6961 7.98247C24.6961 8.33335 24.182 8.24563 24.182 8.24563C24.182 8.24563 24.182 9.56142 23.1539 9.56142ZM23.8393 18.1579C23.668 18.0702 23.4109 18.1579 23.2396 18.3334C23.1539 18.5965 23.1539 18.8597 23.4109 18.9474C23.4162 18.9528 23.4266 18.9614 23.4413 18.9737L23.4414 18.9738C23.6672 19.162 24.9111 20.1991 24.2677 23.2456C24.182 23.5088 24.3534 23.6842 24.6104 23.772H24.6961C24.8674 23.772 25.0388 23.5965 25.1245 23.4211C25.9246 19.7346 24.184 18.4198 23.8807 18.1907C23.8592 18.1745 23.845 18.1637 23.8393 18.1579ZM19.8983 21.2281C19.984 20.9649 20.3267 20.9649 20.4981 21.0527C20.4981 21.0527 21.3548 21.4913 21.6119 22.6316C21.9546 23.772 21.6119 25.1755 20.7551 26.7544C20.6694 26.9298 20.4981 27.0176 20.3267 27.0176C20.2411 27.0176 20.1554 27.0176 20.0697 26.9298C19.8127 26.8421 19.8127 26.4912 19.8983 26.3158C20.6694 25 20.9265 23.8597 20.6694 22.9825C20.4981 22.2807 19.984 21.9298 19.984 21.9298C19.8983 21.7544 19.8127 21.4913 19.8983 21.2281ZM19.4698 30.9649C19.4698 30.9649 19.5555 30.8772 19.6412 30.8772C22.2971 29.5614 22.3828 27.5439 22.3828 27.5439C22.3828 27.2807 22.2114 27.0176 21.9544 27.0176C21.6974 27.0176 21.4404 27.193 21.4404 27.4562C21.4404 27.4562 21.3547 28.9474 19.2128 30.0877C19.0414 30.1754 18.9557 30.4386 19.0414 30.7018C19.1271 30.8772 19.2985 30.9649 19.4698 30.9649ZM23.411 30.7895C23.3253 30.7895 23.2397 30.8772 23.2397 30.8772C23.0683 30.8772 22.897 30.7895 22.8113 30.614C22.7256 30.3509 22.8113 30.0877 22.9826 30C24.7818 29.0351 24.8675 27.2807 24.8675 27.193C24.8675 26.9298 25.0389 26.7544 25.2959 26.7544C25.5529 26.7544 25.7243 26.9298 25.7243 27.193C25.81 27.2807 25.7243 29.5614 23.411 30.7895ZM26.0669 15.5263C26.0669 15.5263 26.581 16.3158 26.324 18.9474C26.324 19.2106 26.4953 19.386 26.9237 19.386C27.095 19.386 27.3521 19.2106 27.3521 18.9474C27.4377 17.193 27.3521 16.2281 27.1807 15.6141C27.8661 15.6141 28.4659 15.5263 28.8086 15.1755C28.9799 15 29.0656 14.8246 29.0656 14.5614C29.0656 13.3334 26.6667 12.3685 25.8956 12.1053C25.6385 12.0176 25.3815 12.1053 25.2958 12.3685C25.2102 12.6316 25.2958 12.8948 25.5529 12.9825C26.838 13.4211 28.0375 14.2106 28.1232 14.5614C27.9518 14.6492 27.6091 14.7369 26.581 14.7369H26.4096C26.2383 14.7369 26.0669 14.8246 25.9813 15C25.8956 15.1755 25.9813 15.3509 26.0669 15.5263Z" fill="white"/>
  <path fill-rule="evenodd" clip-rule="evenodd" d="M19.8814 2.12742C19.8814 1.77285 19.6266 1.50693 19.2869 1.50693L18.9473 0.443213C19.6266 0.531856 21.4099 1.32964 21.4099 2.12742C21.4099 2.92521 20.5607 3.01385 20.5607 3.01385C20.5607 4.07756 21.4948 4.07756 21.4948 4.07756H22.5138C23.2781 4.07756 23.1932 3.01385 23.1932 3.01385C23.1932 3.01385 22.1742 2.83657 22.1742 2.30471C22.1742 1.241 23.8725 0 23.8725 0C23.8725 0 25.6558 1.241 25.6558 2.03878C25.6558 2.92521 24.5519 3.01385 24.5519 3.01385C24.8066 3.90028 25.6558 3.98892 25.6558 3.98892H26.5899C27.6089 3.98892 27.1843 2.92521 27.1843 2.92521C27.1843 2.92521 26.4201 2.83657 26.4201 2.21607C26.4201 1.06371 29.0525 0.531856 29.0525 0.531856L28.7978 1.50693C28.4581 1.50693 28.2033 1.77285 28.2033 2.12742C28.2033 2.30471 28.2883 2.48199 28.543 2.57064L27.8637 5.05263H20.1361L19.5417 2.65928C19.7115 2.57064 19.8814 2.39335 19.8814 2.12742ZM24.5521 2.12742C24.5521 1.77285 24.2973 1.50693 23.9577 1.50693C23.618 1.50693 23.3632 1.77285 23.3632 2.12742C23.3632 2.482 23.618 2.74792 23.9577 2.74792C24.2973 2.74792 24.5521 2.482 24.5521 2.12742Z" fill="white"/>
  <g clip-path="url(#clip0)">
    <path d="M75.4564 16.4453C75.2845 18.2656 74.6127 19.6875 73.4408 20.7109C72.2689 21.7266 70.7103 22.2344 68.765 22.2344C67.4056 22.2344 66.2064 21.9141 65.1674 21.2734C64.1361 20.625 63.3392 19.707 62.7767 18.5195C62.2142 17.332 61.9213 15.9531 61.8978 14.3828V12.7891C61.8978 11.1797 62.183 9.76172 62.7533 8.53516C63.3236 7.30859 64.14 6.36328 65.2025 5.69922C66.2728 5.03516 67.5072 4.70312 68.9056 4.70312C70.7885 4.70312 72.3041 5.21484 73.4525 6.23828C74.601 7.26172 75.2689 8.70703 75.4564 10.5742H72.5033C72.3627 9.34766 72.0033 8.46484 71.4252 7.92578C70.8549 7.37891 70.015 7.10547 68.9056 7.10547C67.6166 7.10547 66.6244 7.57812 65.9291 8.52344C65.2416 9.46094 64.89 10.8398 64.8744 12.6602V14.1719C64.8744 16.0156 65.2025 17.4219 65.8588 18.3906C66.5228 19.3594 67.4916 19.8438 68.765 19.8438C69.9291 19.8438 70.8041 19.582 71.39 19.0586C71.976 18.5352 72.347 17.6641 72.5033 16.4453H75.4564ZM91.7338 13.9141C91.7338 15.5859 91.4447 17.0547 90.8666 18.3203C90.2885 19.5781 89.4603 20.5469 88.3822 21.2266C87.3119 21.8984 86.0775 22.2344 84.6791 22.2344C83.2963 22.2344 82.0619 21.8984 80.976 21.2266C79.8978 20.5469 79.0619 19.582 78.4681 18.332C77.8822 17.082 77.5853 15.6406 77.5775 14.0078V13.0469C77.5775 11.3828 77.8705 9.91406 78.4564 8.64062C79.0502 7.36719 79.8822 6.39453 80.9525 5.72266C82.0306 5.04297 83.265 4.70312 84.6556 4.70312C86.0463 4.70312 87.2767 5.03906 88.347 5.71094C89.4252 6.375 90.2572 7.33594 90.8431 8.59375C91.4291 9.84375 91.726 11.3008 91.7338 12.9648V13.9141ZM88.7689 13.0234C88.7689 11.1328 88.4095 9.68359 87.6908 8.67578C86.9799 7.66797 85.9681 7.16406 84.6556 7.16406C83.3744 7.16406 82.3705 7.66797 81.6439 8.67578C80.9252 9.67578 80.558 11.0938 80.5424 12.9297V13.9141C80.5424 15.7891 80.9056 17.2383 81.6322 18.2617C82.3666 19.2852 83.3822 19.7969 84.6791 19.7969C85.9916 19.7969 86.9994 19.2969 87.7025 18.2969C88.4135 17.2969 88.7689 15.8359 88.7689 13.9141V13.0234ZM100.441 18.2852L104.777 4.9375H108.035L101.894 22H99.0228L92.9056 4.9375H96.1517L100.441 18.2852ZM113.097 22H110.144V4.9375H113.097V22ZM116.742 22V4.9375H121.781C123.288 4.9375 124.624 5.27344 125.788 5.94531C126.96 6.61719 127.867 7.57031 128.507 8.80469C129.148 10.0391 129.468 11.4531 129.468 13.0469V13.9023C129.468 15.5195 129.144 16.9414 128.495 18.168C127.855 19.3945 126.937 20.3398 125.742 21.0039C124.554 21.668 123.191 22 121.652 22H116.742ZM119.706 7.32812V19.6328H121.64C123.195 19.6328 124.386 19.1484 125.214 18.1797C126.05 17.2031 126.476 15.8047 126.492 13.9844V13.0352C126.492 11.1836 126.089 9.76953 125.285 8.79297C124.48 7.81641 123.312 7.32812 121.781 7.32812H119.706ZM65.4017 40.6602V47H62.4369V29.9375H68.9642C70.8705 29.9375 72.3822 30.4336 73.4994 31.4258C74.6244 32.418 75.1869 33.7305 75.1869 35.3633C75.1869 37.0352 74.6361 38.3359 73.5345 39.2656C72.4408 40.1953 70.9056 40.6602 68.9291 40.6602H65.4017ZM65.4017 38.2812H68.9642C70.0189 38.2812 70.8236 38.0352 71.3783 37.543C71.933 37.043 72.2103 36.3242 72.2103 35.3867C72.2103 34.4648 71.9291 33.7305 71.3666 33.1836C70.8041 32.6289 70.0306 32.3438 69.0463 32.3281H65.4017V38.2812ZM91.4056 38.9141C91.4056 40.5859 91.1166 42.0547 90.5385 43.3203C89.9603 44.5781 89.1322 45.5469 88.0541 46.2266C86.9838 46.8984 85.7494 47.2344 84.351 47.2344C82.9681 47.2344 81.7338 46.8984 80.6478 46.2266C79.5697 45.5469 78.7338 44.582 78.14 43.332C77.5541 42.082 77.2572 40.6406 77.2494 39.0078V38.0469C77.2494 36.3828 77.5424 34.9141 78.1283 33.6406C78.722 32.3672 79.5541 31.3945 80.6244 30.7227C81.7025 30.043 82.9369 29.7031 84.3275 29.7031C85.7181 29.7031 86.9486 30.0391 88.0189 30.7109C89.097 31.375 89.9291 32.3359 90.515 33.5938C91.101 34.8438 91.3978 36.3008 91.4056 37.9648V38.9141ZM88.4408 38.0234C88.4408 36.1328 88.0814 34.6836 87.3627 33.6758C86.6517 32.668 85.64 32.1641 84.3275 32.1641C83.0463 32.1641 82.0424 32.668 81.3158 33.6758C80.597 34.6758 80.2299 36.0938 80.2142 37.9297V38.9141C80.2142 40.7891 80.5775 42.2383 81.3041 43.2617C82.0385 44.2852 83.0541 44.7969 84.351 44.7969C85.6635 44.7969 86.6713 44.2969 87.3744 43.2969C88.0853 42.2969 88.4408 40.8359 88.4408 38.9141V38.0234ZM100.628 40.4258H97.3236V47H94.3588V29.9375H100.359C102.328 29.9375 103.847 30.3789 104.917 31.2617C105.988 32.1445 106.523 33.4219 106.523 35.0938C106.523 36.2344 106.245 37.1914 105.691 37.9648C105.144 38.7305 104.378 39.3203 103.394 39.7344L107.226 46.8477V47H104.05L100.628 40.4258ZM97.3236 38.0469H100.37C101.37 38.0469 102.152 37.7969 102.714 37.2969C103.277 36.7891 103.558 36.0977 103.558 35.2227C103.558 34.3086 103.296 33.6016 102.773 33.1016C102.257 32.6016 101.484 32.3438 100.453 32.3281H97.3236V38.0469ZM121.078 32.3281H115.757V47H112.816V32.3281H107.542V29.9375H121.078V32.3281ZM131.472 43.0273H124.863L123.48 47H120.398L126.843 29.9375H129.503L135.96 47H132.867L131.472 43.0273ZM125.695 40.6367H130.64L128.167 33.5586L125.695 40.6367ZM129.058 25.3672H132.304L129.058 28.918H126.773L129.058 25.3672ZM140.87 44.6328H148.617V47H137.906V29.9375H140.87V44.6328Z" fill="white"/>
  </g>
  <path d="M62.0833 53H151L147.854 58.5L151 64H62.0833V53Z" fill="#ECAE1A"/>
  <path d="M67.7478 59.1373V61H66.8767V55.987H68.7945C69.3546 55.987 69.7987 56.1327 70.1269 56.4242C70.4575 56.7157 70.6227 57.1014 70.6227 57.5811C70.6227 58.0723 70.4609 58.4545 70.1373 58.7276C69.8159 59.0008 69.3649 59.1373 68.7842 59.1373H67.7478ZM67.7478 58.4384H68.7945C69.1044 58.4384 69.3408 58.3661 69.5038 58.2215C69.6667 58.0746 69.7482 57.8634 69.7482 57.588C69.7482 57.3171 69.6656 57.1014 69.5003 56.9407C69.335 56.7777 69.1078 56.6939 68.8186 56.6894H67.7478V58.4384ZM74.048 61H73.1804V55.987H74.048V61ZM77.7316 60.3045H80.0074V61H76.8605V55.987H77.7316V60.3045ZM86.1974 58.6243C86.1974 59.1155 86.1125 59.5471 85.9426 59.9189C85.7728 60.2884 85.5295 60.5731 85.2127 60.7728C84.8983 60.9702 84.5356 61.0689 84.1247 61.0689C83.7185 61.0689 83.3558 60.9702 83.0367 60.7728C82.72 60.5731 82.4744 60.2896 82.2999 59.9223C82.1278 59.5551 82.0406 59.1316 82.0383 58.6519V58.3695C82.0383 57.8806 82.1243 57.4491 82.2965 57.075C82.4709 56.7008 82.7154 56.4151 83.0299 56.2177C83.3466 56.018 83.7093 55.9181 84.1178 55.9181C84.5264 55.9181 84.8879 56.0168 85.2024 56.2142C85.5191 56.4093 85.7636 56.6916 85.9358 57.0612C86.1079 57.4285 86.1951 57.8565 86.1974 58.3454V58.6243ZM85.3263 58.3627C85.3263 57.8072 85.2208 57.3814 85.0096 57.0853C84.8007 56.7892 84.5035 56.6412 84.1178 56.6412C83.7414 56.6412 83.4465 56.7892 83.233 57.0853C83.0218 57.3791 82.9139 57.7957 82.9093 58.3351V58.6243C82.9093 59.1752 83.0161 59.601 83.2295 59.9017C83.4453 60.2024 83.7437 60.3527 84.1247 60.3527C84.5103 60.3527 84.8064 60.2058 85.013 59.912C85.2219 59.6182 85.3263 59.189 85.3263 58.6243V58.3627ZM92.1327 56.6894H90.5695V61H89.7053V56.6894H88.156V55.987H92.1327V56.6894ZM98.5121 61H97.641L95.4065 57.4434V61H94.5354V55.987H95.4065L97.6479 59.5574V55.987H98.5121V61ZM102.202 61H101.335V55.987H102.202V61ZM102.013 54.6201H102.967L102.013 55.6633H101.342L102.013 54.6201ZM109.384 59.1373V61H108.513V55.987H110.43C110.99 55.987 111.434 56.1327 111.763 56.4242C112.093 56.7157 112.259 57.1014 112.259 57.5811C112.259 58.0723 112.097 58.4545 111.773 58.7276C111.452 59.0008 111.001 59.1373 110.42 59.1373H109.384ZM109.384 58.4384H110.43C110.74 58.4384 110.977 58.3661 111.14 58.2215C111.303 58.0746 111.384 57.8634 111.384 57.588C111.384 57.3171 111.301 57.1014 111.136 56.9407C110.971 56.7777 110.744 56.6939 110.454 56.6894H109.384V58.4384ZM116.607 59.0685H115.636V61H114.765V55.987H116.527C117.106 55.987 117.552 56.1167 117.867 56.376C118.181 56.6354 118.338 57.0107 118.338 57.5019C118.338 57.837 118.257 58.1182 118.094 58.3454C117.933 58.5704 117.708 58.7437 117.419 58.8653L118.545 60.9552V61H117.612L116.607 59.0685ZM115.636 58.3695H116.531C116.825 58.3695 117.054 58.2961 117.219 58.1492C117.385 58 117.467 57.7969 117.467 57.5398C117.467 57.2712 117.39 57.0635 117.237 56.9166C117.085 56.7697 116.858 56.6939 116.555 56.6894H115.636V58.3695ZM124.907 58.6243C124.907 59.1155 124.822 59.5471 124.652 59.9189C124.483 60.2884 124.239 60.5731 123.922 60.7728C123.608 60.9702 123.245 61.0689 122.834 61.0689C122.428 61.0689 122.066 60.9702 121.746 60.7728C121.43 60.5731 121.184 60.2896 121.01 59.9223C120.838 59.5551 120.75 59.1316 120.748 58.6519V58.3695C120.748 57.8806 120.834 57.4491 121.006 57.075C121.181 56.7008 121.425 56.4151 121.74 56.2177C122.056 56.018 122.419 55.9181 122.828 55.9181C123.236 55.9181 123.598 56.0168 123.912 56.2142C124.229 56.4093 124.473 56.6916 124.645 57.0612C124.818 57.4285 124.905 57.8565 124.907 58.3454V58.6243ZM124.036 58.3627C124.036 57.8072 123.93 57.3814 123.719 57.0853C123.51 56.7892 123.213 56.6412 122.828 56.6412C122.451 56.6412 122.156 56.7892 121.943 57.0853C121.732 57.3791 121.624 57.7957 121.619 58.3351V58.6243C121.619 59.1752 121.726 59.601 121.939 59.9017C122.155 60.2024 122.453 60.3527 122.834 60.3527C123.22 60.3527 123.516 60.2058 123.723 59.912C123.932 59.6182 124.036 59.189 124.036 58.6243V58.3627ZM129.207 59.9086L130.481 55.987H131.438L129.634 61H128.79L126.993 55.987H127.947L129.207 59.9086ZM137.7 58.6243C137.7 59.1155 137.615 59.5471 137.446 59.9189C137.276 60.2884 137.032 60.5731 136.716 60.7728C136.401 60.9702 136.039 61.0689 135.628 61.0689C135.221 61.0689 134.859 60.9702 134.54 60.7728C134.223 60.5731 133.977 60.2896 133.803 59.9223C133.631 59.5551 133.544 59.1316 133.541 58.6519V58.3695C133.541 57.8806 133.627 57.4491 133.799 57.075C133.974 56.7008 134.218 56.4151 134.533 56.2177C134.85 56.018 135.212 55.9181 135.621 55.9181C136.029 55.9181 136.391 56.0168 136.705 56.2142C137.022 56.4093 137.267 56.6916 137.439 57.0612C137.611 57.4285 137.698 57.8565 137.7 58.3454V58.6243ZM136.829 58.3627C136.829 57.8072 136.724 57.3814 136.513 57.0853C136.304 56.7892 136.006 56.6412 135.621 56.6412C135.244 56.6412 134.949 56.7892 134.736 57.0853C134.525 57.3791 134.417 57.7957 134.412 58.3351V58.6243C134.412 59.1752 134.519 59.601 134.733 59.9017C134.948 60.2024 135.247 60.3527 135.628 60.3527C136.013 60.3527 136.309 60.2058 136.516 59.912C136.725 59.6182 136.829 59.189 136.829 58.6243V58.3627ZM141.046 60.3045H143.725V61H139.993V60.4353L142.586 56.6894H140.01V55.987H143.643V56.5379L141.046 60.3045Z" fill="black"/>
  <defs>
    <clipPath id="clip0">
      <rect width="94" height="50" fill="white" transform="translate(61 1)"/>
    </clipPath>
  </defs>
</svg>
