<svg xmlns="http://www.w3.org/2000/svg" width="400" height="400" viewBox="0 0 400 400">
  <g fill="#2362A2" transform="translate(48 8)">
    <path d="M152.14 241.04C150.52 241.58 146.74 241.58 142.96 236.18 139.18 230.78 145.12 229.7 145.12 225.92 145.12 222.14 136.48 215.12 133.24 214.04 130 212.96 132.16 209.72 130.54 208.64 128.92 207.56 125.68 207.02 101.92 207.02 78.16 207.02 73.3 221.06 70.6 221.06 63.04 221.06 56.56 213.5 56.56 213.5 55.48 221.06 65.74 224.84 62.5 225.92 57.64 227 54.94 224.3 47.38 224.3 27.94 224.3 26.32 238.34 26.32 238.34 37.66 227 73.3 228.08 73.3 234.02 73.3 239.42 67.36 236.72 67.36 238.34 67.36 239.96 74.92 250.76 74.92 264.8 74.92 286.4 54.4 292.34 47.92 292.34 41.44 292.34 39.28 285.32 33.88 280.46 28.48 275.06 21.46 279.92 21.46 279.92 21.46 279.92 24.7 279.38 24.7 281.54 24.7 283.7 22 283.7 22 286.94 22 293.42 31.72 291.8 33.34 291.8 34.96 291.8 38.74 292.88 38.74 296.66 38.74 300.44 10.12 296.66 14.44 298.82 18.76 300.98 17.14 304.22 17.14 307.46 17.14 310.7 19.84 313.4 23.08 313.4 26.32 313.4 29.56 311.24 32.8 308 36.04 304.76 38.2 306.38 39.28 307.46 40.36 308.54 40.36 311.24 38.74 312.32 35.5 314.48 25.24 321.5 27.4 321.5 29.56 321.5 31.72 321.5 31.72 322.58 31.72 326.36 35.5 327.98 37.66 327.98 39.82 327.98 45.76 326.36 45.76 320.42 45.76 312.32 49 307.46 53.32 307.46 57.64 307.46 57.64 313.4 57.64 316.64 57.64 319.88 59.8 322.04 63.58 322.04 67.36 322.04 67.9 318.26 67.9 316.64 67.9 315.02 73.3 315.56 74.38 315.56 75.46 315.56 71.68 312.32 66.82 309.08 61.96 305.84 63.04 304.22 65.2 303.68 67.36 303.14 101.92 293.96 99.22 292.88 97.06 291.8 95.98 289.1 97.6 286.4 101.38 279.92 121.36 293.42 121.36 293.42 114.88 282.08 104.08 276.68 99.22 276.68 94.36 276.68 94.36 274.52 94.36 274.52 89.5 246.98 96.52 240.5 105.7 239.42 114.88 238.88 123.52 242.12 134.86 243.2 147.82 244.82 153.76 240.5 152.14 241.04zM286.06 88.22C286.6 84.98 290.92 80.66 292.54 75.8 294.7 70.4 293.62 61.76 289.3 58.52 284.98 55.82 279.04 47.72 279.04 47.72 279.04 51.5 282.82 59.6 279.58 60.14 272.02 61.22 266.08 46.1 266.08 46.1 266.08 46.1 265 55.28 270.4 60.14 276.34 65.54 282.82 73.64 277.96 76.88 273.64 80.12 267.16 69.86 267.16 69.86 265.54 81.2 277.42 85.52 277.42 85.52 278.5 94.7 255.82 114.14 255.82 114.14L263.38 120.62C275.8 108.2 284.98 93.08 286.06 88.22z"/>
    <path d="M302.8 161.66C295.24 159.5 295.78 164.9 293.62 164.36 287.68 161.12 292.54 141.14 292.54 141.14 291.46 140.6 289.3 143.84 288.76 146.54 288.22 149.78 287.68 151.94 285.52 151.4 280.12 149.24 282.82 126.02 282.82 126.02 280.66 127.64 279.04 131.96 279.04 136.28 279.04 140.6 276.88 141.68 276.88 141.68 274.72 139.52 268.24 133.04 253.66 121.7 222.34 94.16 227.74 87.14 227.74 87.14 236.92 82.82 240.16 67.16 238.54 70.4 236.92 73.64 229.36 81.2 226.12 76.88 222.88 72.56 231.52 67.7 236.38 60.68 241.78 53.66 241.78 45.56 240.7 47.72 240.16 49.88 230.98 61.22 226.12 61.22 220.72 61.22 226.66 48.26 225.58 48.8 224.5 49.34 210.46 61.22 210.46 73.1 210.46 84.98 219.64 87.68 219.64 87.68 221.8 106.58 237.46 116.3 246.64 127.64 255.82 138.98 284.98 154.1 284.98 178.94 284.98 203.78 261.22 209.18 261.22 209.18 256.36 195.68 265.54 188.12 265.54 188.12 259.6 185.96 255.28 190.28 254.74 191.36 254.2 192.44 253.12 194.06 250.96 191.36 243.94 180.02 229.9 183.8 229.9 183.8 257.98 196.76 251.5 210.26 251.5 210.26 239.08 210.26 219.1 199.46 219.1 177.32 219.1 155.18 247.18 136.82 247.18 136.82L240.7 129.8C240.7 129.8 209.38 147.62 209.38 177.32 209.38 218.36 250.42 218.36 250.42 219.44 250.42 223.76 243.94 232.94 230.98 232.94 218.02 232.94 203.98 222.68 200.2 220.52 196.42 218.36 186.7 214.58 183.46 211.34 180.22 208.1 175.9 199.46 171.04 189.74 166.18 180.56 168.88 174.62 170.5 177.32 172.12 180.02 181.3 187.04 179.68 183.8 171.58 167.6 177.52 147.08 178.6 149.24 181.84 155.72 192.1 160.04 189.4 156.8 180.76 142.76 188.86 127.1 189.4 126.02 190.48 124.94 192.1 128.18 194.8 131.42 197.5 134.66 200.74 135.2 199.12 133.58 194.8 126.02 195.34 100.64 196.96 101.72 202.9 107.66 210.46 108.74 210.46 108.74 200.2 97.94 198.04 84.44 198.04 73.1 198.04 61.76 187.24 48.8 187.24 47.72 187.24 46.64 189.4 44.48 189.4 40.7 189.4 39.62 188.86 34.22 181.84 34.22 174.82 34.22 173.2 40.16 173.2 40.16 173.2 40.16 168.34 35.3 152.14 35.3 135.4 35.3 126.76 38.54 126.76 41.24 126.76 43.94 121.36 43.4 121.36 43.4 114.88 43.4 114.88 52.04 118.12 52.04 121.36 52.04 120.28 47.72 122.98 47.72 123.52 47.72 125.14 47.72 125.14 49.88 125.14 55.82 117.58 53.66 117.04 55.82 115.42 63.38 122.98 68.24 122.98 68.24 122.98 68.24 125.68 59.06 134.86 59.06 144.04 59.06 145.66 67.7 145.66 67.7 145.66 67.7 133.24 72.56 115.96 72.56 84.64 72.56 98.14 45.02 98.14 45.02 80.86 55.28 84.64 79.04 108.94 79.04 133.24 79.04 146.2 69.86 147.82 72.56 149.44 76.88 142.42 84.98 135.4 84.98 128.38 84.98 124.06 80.12 124.06 80.12 121.36 86.06 126.22 94.7 134.86 94.7 143.5 94.7 152.14 85.52 152.14 85.52 155.38 88.76 147.28 102.8 126.76 104.96 106.78 107.12 96.52 97.94 96.52 97.94 95.44 99.02 94.9 102.26 96.52 104.42 98.14 106.58 95.98 106.58 95.98 106.58L66.28 75.8C60.34 65.54 68.44 62.3 71.68 57.44 74.92 52.58 72.22 46.64 72.22 46.64 72.22 48.8 69.52 51.5 67.9 49.88 66.28 48.26 64.12 48.26 62.5 48.8 61.42 49.34 58.18 49.88 59.26 57.44 60.34 64.46 58.72 65 57.1 65 55.48 65 54.4 63.92 54.4 59.6 54.4 53.66 52.78 41.24 51.7 45.56 50.08 49.34 43.06 46.1 41.98 47.18 39.82 50.42 38.74 55.82 44.14 60.14 49.54 64.46 49 67.7 47.38 68.78 45.76 69.86 44.68 68.78 40.9 64.46 37.12 59.6 30.64 55.28 31.18 56.36 31.72 57.44 31.72 60.68 30.64 61.76 29.56 62.84 25.24 62.3 25.24 67.7 25.24 73.1 32.26 76.88 37.66 76.34 43.06 75.8 46.3 79.58 46.84 82.82 47.38 86.06 44.14 89.84 41.44 88.76 38.74 87.68 32.8 85.52 32.8 93.08 32.8 100.1 40.36 99.56 40.36 101.18 40.36 102.8 41.44 106.58 41.98 104.96 44.68 98.48 49 90.38 51.16 92.54 53.32 94.7 61.42 106.04 65.2 108.74 68.98 111.44 68.98 114.14 67.36 114.14 58.18 114.14 52.78 121.7 54.4 121.7 55.48 121.16 60.34 119.54 67.9 119.54 75.46 119.54 78.16 124.94 79.24 123.86 83.02 117.38 92.2 110.36 98.68 110.36 105.16 110.36 105.7 112.52 105.7 113.6 105.7 114.68 104.62 116.3 101.92 116.3 85.72 116.3 68.44 147.08 76 141.14 83.56 135.2 89.5 135.74 91.12 138.98 92.74 142.22 86.8 143.84 86.8 143.84 86.8 143.84 53.32 155.72 47.38 158.42 40.9 161.12 39.28 160.58 39.28 160.58 30.1 158.42 33.88 149.24 32.26 145.46 29.56 138.98 23.08 134.12 24.16 136.28 25.24 138.44 24.7 141.68 23.62 141.68 22.54 141.68 18.76 142.22 18.76 146 18.76 149.78 19.3 151.94 23.62 154.1 27.4 156.26 25.78 158.96 25.24 159.5 24.7 160.04 22 161.66 19.84 158.96 17.68 156.26 5.8 146 6.88 148.7 7.42 151.4 6.34 153.02 6.34 153.02 6.34 153.02.94 154.1.94 158.42.94 166.52 9.58 166.52 13.36 167.06 17.14 167.06 20.38 165.98 20.38 168.68 20.38 175.16 6.34 172.46 3.64 172.46.94 172.46-.14 173.54.4 173.54 1.48 173.54 3.1 175.16 3.1 176.78 3.1 178.4 2.02 179.48 2.02 181.1 2.02 182.72 3.1 187.58 9.58 187.58 16.6 187.58 18.76 178.4 23.62 178.4 27.94 178.4 30.64 181.1 30.64 185.42 30.64 189.74 26.32 186.5 26.32 194.06 26.32 201.62 36.58 196.76 36.58 197.84 36.58 198.92 37.66 203.24 38.2 201.62 38.74 198.92 38.74 195.68 38.2 189.2 38.2 183.8 38.2 181.64 41.44 181.1 61.42 176.24 72.22 174.62 71.14 176.78 67.9 184.88 71.14 192.44 71.14 192.44 72.76 182.72 76 178.94 78.7 175.7 82.48 170.84 89.5 173.54 88.42 171.38 87.34 169.22 87.88 163.28 93.28 163.28 99.22 163.28 94.36 182.18 96.52 181.1 98.68 180.02 103.54 175.7 106.78 170.84 110.02 165.98 112.72 158.96 117.04 162.74 121.36 166.52 106.24 180.02 107.86 182.18 109.48 184.34 118.66 193.52 127.84 200.54 137.56 207.02 159.16 219.44 159.16 230.24 159.16 241.04 155.38 242.66 155.38 255.08 155.38 283.16 164.02 279.92 164.02 286.4 164.02 292.88 158.08 302.6 158.08 302.6 165.64 299.36 169.96 291.26 171.04 292.34 172.12 293.42 171.04 297.2 171.04 301.52 171.58 312.86 175.9 320.96 175.9 320.96 175.36 298.28 179.68 292.88 182.38 293.96 185.08 295.04 183.46 298.28 184.54 299.36 189.94 301.52 190.48 300.98 190.48 319.88 190.48 338.78 185.62 348.5 179.14 348.5 172.66 348.5 166.18 336.62 161.86 335 157.54 333.38 153.22 334.46 153.22 334.46 153.22 334.46 155.38 335.54 155.38 337.16 155.38 339.32 152.68 339.86 152.68 342.56 152.68 347.42 159.16 347.96 161.32 347.42 163.48 346.88 167.8 346.34 168.34 351.2 168.88 356.06 146.74 353.36 146.74 353.36 148.36 355.52 151.6 355.52 150.52 357.14 147.82 362 149.98 368.48 154.84 367.94 159.16 367.4 165.64 362.54 166.72 361.46 167.8 360.38 170.5 359.3 172.12 363.08 173.74 366.86 158.08 376.04 158.08 376.04 161.32 377.66 163.48 375.5 163.48 377.12 163.48 380.36 165.1 384.14 170.5 384.14 175.9 384.14 177.52 377.66 178.6 372.26 179.68 366.86 184 365.24 185.08 365.24 186.16 364.7 189.4 364.7 189.4 367.94 189.4 371.18 191.02 377.12 196.96 377.12 202.9 377.12 202.9 371.18 203.44 370.1 203.98 369.02 207.76 369.56 207.76 369.56 205.06 367.4 199.12 364.16 198.04 364.16 196.96 363.62 192.64 363.08 195.88 360.38 208.84 346.34 218.56 309.08 216.94 309.08 210.46 309.08 209.92 302.06 214.78 302.06 231.52 302.6 235.84 294.5 235.84 294.5 235.84 294.5 228.82 296.66 221.26 295.04 189.94 286.4 190.48 249.68 192.64 245.9 194.8 242.12 197.5 234.02 196.96 230.24 195.88 225.92 198.04 226.46 198.04 226.46 235.3 246.44 251.5 292.88 251.5 292.88 252.58 264.8 228.28 239.96 228.28 239.96 257.44 242.66 260.68 218.36 260.68 218.36 286.06 214.58 295.78 188.12 294.7 177.32 293.62 166.52 302.8 161.66 302.8 161.66zM114.88 133.04C114.34 133.04 106.24 138.44 104.62 154.1 104.62 155.72 103 156.8 101.92 156.8 101.92 156.8 101.92 156.8 101.38 156.8 99.76 156.8 98.68 155.18 98.68 153.56 100.3 135.2 111.1 128.72 111.64 128.18 113.26 127.64 114.88 127.64 115.42 129.26 116.5 130.34 116.5 132.5 114.88 133.04zM146.2 54.2C142.42 54.2 141.34 52.58 140.26 50.96 140.26 50.96 148.9 49.88 148.9 48.26 148.9 47.18 146.2 47.72 146.2 47.72L138.64 47.72C138.64 47.72 137.02 46.1 137.02 43.94 137.02 43.94 137.02 42.32 139.72 42.32L153.22 42.32C153.22 42.32 155.92 42.32 155.92 44.48 155.92 46.64 152.68 46.1 152.68 46.1 152.68 46.1 152.68 54.2 146.2 54.2zM146.74 108.2C147.82 107.12 149.44 106.58 150.52 107.12 151.06 107.66 164.02 115.22 158.62 139.52 158.08 140.6 157 141.68 155.92 141.68 155.92 141.68 155.38 141.68 155.38 141.68 153.76 141.14 152.68 140.06 153.22 138.44 157.54 118.46 148.36 112.52 147.82 111.98 146.2 111.44 146.2 109.82 146.74 108.2zM125.68 126.02C126.22 124.4 128.38 124.4 129.46 124.94 129.46 124.94 134.86 127.64 136.48 134.66 138.64 141.68 136.48 150.32 131.08 160.04 130.54 161.12 129.46 161.66 128.38 161.66 127.84 161.66 127.3 161.66 126.76 161.12 125.14 160.58 125.14 158.42 125.68 157.34 130.54 149.24 132.16 142.22 130.54 136.82 129.46 132.5 126.22 130.34 126.22 130.34 125.68 129.26 125.14 127.64 125.68 126.02zM124.06 185.42C123.52 185.42 122.98 185.96 122.98 185.96 121.9 185.96 120.82 185.42 120.28 184.34 119.74 182.72 120.28 181.1 121.36 180.56 134.86 173.54 135.4 164.36 135.4 164.36 135.4 162.74 137.02 161.66 138.64 161.66 140.26 161.66 141.34 163.28 141.34 164.9 141.34 164.9 140.8 177.32 124.06 185.42zM147.82 184.88C147.28 184.88 146.74 185.42 146.74 185.42 145.66 185.42 144.58 184.88 144.04 183.8 143.5 182.18 144.04 180.56 145.12 180.02 156.46 174.08 157 163.28 157 162.74 157 161.12 158.08 160.04 159.7 160.04 159.7 160.04 159.7 160.04 159.7 160.04 161.32 160.04 162.4 161.12 162.4 162.74 162.94 163.28 162.4 177.32 147.82 184.88zM166.18 111.98C167.8 95.78 164.56 90.92 164.56 90.92 164.02 89.84 163.48 88.76 164.02 87.68 164.56 86.6 165.64 86.06 166.72 86.06L167.8 86.06C174.28 86.06 176.44 85.52 177.52 84.98 176.98 82.82 169.42 77.96 161.32 75.26 159.7 74.72 159.16 73.1 159.7 71.48 160.24 69.86 161.86 69.32 163.48 69.86 168.34 71.48 183.46 77.42 183.46 84.98 183.46 86.6 182.92 87.68 181.84 88.76 179.68 90.92 175.9 91.46 171.58 91.46 172.66 95.24 173.2 101.18 172.66 111.98 172.66 113.6 171.04 114.68 169.96 114.68 169.96 114.68 169.96 114.68 169.96 114.68 167.26 114.68 166.18 113.6 166.18 111.98zM121.9 9.92C124.06 9.92 125.68 11.54 125.68 13.7 125.68 15.32 124.6 16.4 123.52 16.94L127.3 31.52 176.44 31.52 180.76 16.4C179.14 15.86 178.6 14.78 178.6 13.7 178.6 11.54 180.22 9.92 182.38 9.92 182.38 9.92 182.38 9.92 182.38 9.92L184 3.98C184 3.98 167.26 7.22 167.26 14.24 167.26 18.02 172.12 18.56 172.12 18.56 172.12 18.56 174.82 25.04 168.34 25.04 165.64 25.04 162.4 25.04 162.4 25.04 162.4 25.04 157 24.5 155.38 19.1 155.38 19.1 162.4 18.56 162.4 13.16 162.4 8.3 151.06.74 151.06.74 151.06.74 140.26 8.3 140.26 14.78 140.26 18.02 146.74 19.1 146.74 19.1 146.74 19.1 147.28 25.58 142.42 25.58 139.18 25.58 135.94 25.58 135.94 25.58 135.94 25.58 130 25.58 130 19.1 130 19.1 135.4 18.56 135.4 13.7 135.4 8.84 124.06 3.98 119.74 3.44L121.9 9.92C121.36 9.92 121.36 9.92 121.9 9.92zM151.6 9.92C153.76 9.92 155.38 11.54 155.38 13.7 155.38 15.86 153.76 17.48 151.6 17.48 149.44 17.48 147.82 15.86 147.82 13.7 147.82 11.54 149.44 9.92 151.6 9.92z"/>
  </g>
</svg>
