<svg width="155" height="64" fill="none" xmlns="http://www.w3.org/2000/svg"><path d="M25.22 39.79c-.266.09-.887.09-1.508-.813-.62-.902.355-1.082.355-1.714 0-.631-1.42-1.804-1.952-1.985-.532-.18-.177-.722-.443-.902-.266-.18-.799-.27-4.702-.27s-4.701 2.345-5.145 2.345c-1.242 0-2.306-1.263-2.306-1.263-.178 1.263 1.508 1.895.975 2.075-.798.18-1.242-.27-2.483-.27-3.194 0-3.46 2.345-3.46 2.345 1.863-1.894 7.718-1.714 7.718-.721 0 .902-.976.45-.976.721 0 .271 1.242 2.075 1.242 4.421 0 3.61-3.371 4.602-4.436 4.602-1.064 0-1.42-1.173-2.306-1.985-.887-.902-2.04-.09-2.04-.09s.532-.09.532.27c0 .361-.444.361-.444.903 0 1.082 1.597.812 1.863.812s.887.18.887.812c0 .631-4.701 0-3.992.36.71.361.444.903.444 1.444 0 .542.443.993.976.993.532 0 1.064-.361 1.596-.903.533-.54.887-.27 1.065-.09.177.18.177.632-.089.812-.532.361-2.218 1.534-1.863 1.534s.71 0 .71.18c0 .632.621.903.976.903s1.33-.27 1.33-1.263c0-1.354.533-2.166 1.242-2.166.71 0 .71.993.71 1.534s.355.902.976.902c.62 0 .71-.631.71-.902 0-.27.887-.18 1.064-.18.178 0-.444-.542-1.242-1.083-.798-.541-.62-.812-.266-.902.355-.09 6.032-1.624 5.589-1.805-.355-.18-.533-.632-.266-1.083.62-1.082 3.903 1.173 3.903 1.173-1.065-1.894-2.839-2.797-3.637-2.797-.799 0-.799-.36-.799-.36-.798-4.602.355-5.685 1.863-5.865 1.508-.09 2.928.45 4.79.631 2.13.271 3.105-.45 2.84-.36zM45.474 14.719c.09-.55.812-1.282 1.082-2.106.361-.915.18-2.38-.541-2.929-.722-.457-1.714-1.83-1.714-1.83 0 .64.631 2.013.09 2.105-1.263.183-2.256-2.38-2.256-2.38s-.18 1.556.722 2.38c.993.915 2.075 2.288 1.263 2.837-.721.55-1.804-1.19-1.804-1.19-.27 1.923 1.714 2.655 1.714 2.655.18 1.556-3.609 4.851-3.609 4.851l1.263 1.099c2.075-2.106 3.61-4.669 3.79-5.492z" fill="#fff"/><path fill-rule="evenodd" clip-rule="evenodd" d="M46.816 27.292c.164-.208.4-.504 1.184-.275 0 0-1.456.79-1.285 2.544.171 1.755-1.371 6.053-5.398 6.667 0 0-.514 3.947-5.14 3.509 0 0 3.855 4.035 3.684 8.596 0 0-2.57-7.544-8.482-10.79 0 0-.343-.087-.172.615.086.614-.342 1.93-.685 2.544-.343.614-.428 6.579 4.54 7.982 1.2.263 2.314-.087 2.314-.087s-.685 1.315-3.341 1.228c-.771 0-.686 1.14.343 1.14.257 0-1.286 6.052-3.342 8.333-.419.358-.041.482.206.563.056.019.105.035.137.051.171 0 1.114.527 1.542.877 0 0-.6-.087-.685.088a.894.894 0 00-.045.165c-.073.331-.214.975-.984.975-.942 0-1.199-.964-1.199-1.49 0-.527-.514-.527-.685-.44-.172 0-.857.264-1.029 1.141-.17.877-.428 1.93-1.285 1.93-.856 0-1.113-.614-1.113-1.14 0-.124-.075-.112-.208-.092-.15.022-.376.056-.65-.084 0 0 2.485-1.491 2.228-2.105-.257-.614-.685-.439-.856-.263-.172.175-1.2.965-1.885 1.052-.771.088-1.114-.965-.686-1.754.097-.148-.024-.213-.194-.304-.132-.07-.293-.157-.405-.31 0 0 3.512.438 3.427-.351-.086-.79-.771-.702-1.114-.614-.343.088-1.37 0-1.37-.79 0-.231.118-.365.231-.491.1-.113.196-.22.196-.386 0-.263-.342-.438-.342-.438s.685-.176 1.37.087c.274.105.602.475.962.882.544.614 1.162 1.311 1.78 1.311 1.028 0 1.8-1.579 1.8-4.649 0-2.952-.08-2.984-.848-3.294l-.001-.001-.003-.001-.061-.025-.03-.012c-.066-.068-.068-.188-.071-.32-.004-.21-.009-.45-.272-.557-.428-.176-1.113.702-1.028 4.386 0 0-.685-1.316-.771-3.158 0-.263.024-.513.045-.733.035-.367.062-.649-.045-.758-.069-.07-.22.099-.455.362-.35.391-.883.99-1.601 1.304 0 0 .942-1.579.942-2.631 0-.342-.144-.517-.34-.754-.405-.493-1.03-1.253-1.03-4.334 0-1.044.16-1.618.315-2.172.145-.517.284-1.017.284-1.863 0-1.54-2.637-3.28-4.326-4.396-.236-.156-.454-.3-.643-.429-1.456-1.14-2.913-2.631-3.17-2.982-.104-.141.223-.58.606-1.096.568-.764 1.26-1.695.85-2.062-.558-.5-.946.165-1.349.855-.091.157-.183.315-.278.46-.514.79-1.285 1.492-1.628 1.667-.128.066-.101-.318-.066-.826.06-.857.144-2.068-.448-2.068-.857 0-.943.965-.771 1.316.07.144-.077.155-.316.172-.342.025-.873.064-1.227.53l-.017.02c-.425.522-.928 1.14-1.182 2.698 0 0-.514-1.228 0-2.543.171-.351-1.542-.088-4.712.701-.514.088-.514.439-.514 1.316.085 1.053.085 1.58 0 2.018-.086.263-.257-.439-.257-.614 0-.048-.123-.024-.3.012-.47.094-1.328.265-1.328-.626 0-.7.222-.83.414-.942.144-.085.271-.16.271-.462 0-.702-.428-1.14-1.114-1.14-.35 0-.612.307-.897.643-.344.404-.722.848-1.33.848-1.028 0-1.2-.79-1.2-1.053 0-.131.043-.24.086-.35.043-.11.086-.22.086-.351 0-.264-.257-.527-.429-.527-.085 0 .086-.175.514-.175.073 0 .196.012.351.028.766.077 2.305.233 2.305-.642 0-.334-.297-.312-.703-.283-.128.01-.267.02-.41.02a7.709 7.709 0 00-.216-.027C1.2 27.792.107 27.666.107 26.49c0-.701.857-.877.857-.877s.171-.263.086-.702c-.172-.438 1.713 1.228 2.056 1.667.342.438.77.175.857.088.085-.088.342-.527-.258-.878-.685-.35-.77-.701-.77-1.315s.6-.702.77-.702c.172 0 .258-.526.086-.877-.171-.351.857.438 1.285 1.491.076.18.077.438.079.72.003.674.008 1.489 1.035 1.736 0 0 .257.088 1.285-.35.943-.44 6.255-2.37 6.255-2.37s.942-.262.685-.789c-.257-.526-1.2-.614-2.399.351-1.2.965 1.542-4.035 4.112-4.035.429 0 .6-.263.6-.439 0-.175-.085-.526-1.114-.526-1.028 0-2.484 1.14-3.084 2.193-.062.064-.159-.012-.315-.134-.271-.213-.722-.568-1.484-.568-1.2 0-1.97.264-2.142.351-.257 0 .6-1.228 2.056-1.228.257 0 .257-.438-.342-.877-.394-.288-1.082-1.18-1.606-1.858-.275-.356-.504-.653-.622-.773-.343-.351-1.028.964-1.457 2.017-.085.263-.257-.35-.257-.614 0-.085-.126-.134-.296-.2-.356-.136-.903-.345-.903-1.116 0-1.228.942-.877 1.37-.702.43.176.943-.438.858-.965a1.302 1.302 0 00-1.457-1.052c-.857.088-1.97-.526-1.97-1.404 0-.642.367-.767.631-.857.097-.033.18-.06.225-.107.172-.176.172-.702.086-.878-.086-.175.942.527 1.542 1.316.6.702.771.877 1.028.702.257-.176.343-.702-.514-1.404-.857-.701-.685-1.579-.343-2.105.062-.063.243-.036.462-.003.396.058.915.135 1.08-.26.172-.702.429 1.316.429 2.28 0 .702.171.878.428.878s.514-.088.343-1.228c-.155-1.114.253-1.29.458-1.378l.056-.026c.257-.087.6-.087.857.176s.685-.176.685-.527c0 0 .429.965-.085 1.755-.121.186-.285.357-.453.532-.543.569-1.124 1.176-.404 2.45l4.712 5s.343 0 .086-.35c-.257-.352-.172-.878 0-1.053 0 0 1.628 1.49 4.798 1.14 3.255-.35 4.54-2.632 4.026-3.158 0 0-1.37 1.491-2.741 1.491s-2.142-1.403-1.714-2.368c0 0 .686.79 1.8.79 1.113 0 2.227-1.316 1.97-2.018-.1-.172-.476-.048-1.127.166-1.013.333-2.694.886-5.042.886-3.855 0-4.455-3.86-1.713-5.526 0 0-2.142 4.474 2.827 4.474 2.742 0 4.712-.79 4.712-.79s-.257-1.403-1.713-1.403c-1.457 0-1.885 1.491-1.885 1.491s-1.2-.79-.943-2.017c.032-.13.217-.164.437-.204.374-.068.849-.154.849-.761 0-.351-.257-.351-.343-.351-.205 0-.272.16-.343.327-.078.183-.16.375-.428.375-.514 0-.514-1.404.514-1.404 0 0 .857.088.857-.35 0-.44 1.37-.966 4.026-.966 2.57 0 3.342.79 3.342.79s.257-.965 1.37-.965c1.114 0 1.2.877 1.2 1.052 0 .4-.145.689-.247.89-.054.107-.096.19-.096.25 0 .042.096.19.241.418.472.737 1.473 2.298 1.473 3.706 0 1.842.342 4.035 1.97 5.79 0 0-1.2-.176-2.141-1.141-.257-.176-.343 3.947.342 5.175.257.263-.257.176-.685-.35-.124-.153-.234-.306-.332-.442-.239-.331-.403-.56-.525-.436l-.004.009c-.117.238-1.348 2.742.004 4.991.428.526-1.2-.175-1.713-1.228-.172-.35-1.114 2.983.17 5.614.258.526-1.199-.614-1.456-1.053-.257-.438-.685.527.086 2.018.771 1.579 1.457 2.982 1.97 3.509.35.358 1.176.757 1.857 1.085.32.155.608.294.8.406.086.05.206.128.354.224.883.572 2.769 1.794 4.53 1.794 2.055 0 3.083-1.492 3.083-2.194 0-.024-.126-.045-.345-.081-1.345-.224-6.166-1.024-6.166-6.76 0-4.825 4.97-7.72 4.97-7.72l1.027 1.14s-4.455 2.983-4.455 6.58c0 3.596 3.17 5.35 5.14 5.35 0 0 1.029-2.193-3.426-4.298 0 0 2.227-.614 3.341 1.228.343.439.514.175.6 0 .086-.175.77-.877 1.713-.526 0 0-1.456 1.228-.685 3.42 0 0 3.77-.876 3.77-4.911 0-2.923-2.427-5.017-4.319-6.65-.72-.621-1.363-1.176-1.764-1.684-.384-.485-.838-.951-1.307-1.432-1.31-1.345-2.725-2.797-2.977-5.059 0 0-1.457-.439-1.457-2.368 0-1.93 2.228-3.86 2.4-3.948.05-.025.004.137-.064.38-.163.585-.457 1.638.149 1.638.771 0 2.228-1.842 2.313-2.193.172-.351.172.965-.685 2.105-.264.39-.597.739-.902 1.057-.586.613-1.064 1.113-.726 1.575.514.701 1.713-.527 1.97-1.053.258-.526-.257 2.018-1.713 2.72 0 0-.857 1.14 4.112 5.613 2.314 1.842 3.342 2.895 3.685 3.246 0 0 .342-.175.342-.877s.257-1.404.6-1.667c0 0-.428 3.772.428 4.123.343.088.429-.263.514-.79.086-.438.429-.965.6-.877 0 0-.77 3.246.172 3.772.118.03.185-.055.272-.164zm-30.26-1.503c.258-2.543 1.543-3.42 1.629-3.42.257-.088.257-.44.085-.615-.085-.263-.342-.263-.6-.175a.703.703 0 01-.052.042c-.306.233-1.768 1.345-2.003 4.08 0 .264.17.527.428.527h.085c.172 0 .429-.175.429-.439zm6.598-16.228c-.6 0-.771-.263-.943-.526 0 0 1.371-.175 1.371-.438 0-.176-.428-.088-.428-.088h-1.2s-.257-.263-.257-.614c0 0 0-.263.429-.263h2.142s.428 0 .428.35c0 .351-.514.264-.514.264s0 1.315-1.028 1.315zm.685 8.597c-.171-.088-.428 0-.6.175-.085.264-.085.527.172.614.005.006.016.014.03.027.226.188 1.47 1.225.827 4.272-.086.263.085.438.342.526h.086c.171 0 .343-.175.428-.35.8-3.687-.94-5.002-1.243-5.231a.52.52 0 01-.042-.033zm-3.94 3.07c.085-.263.428-.263.6-.175 0 0 .856.438 1.113 1.579.343 1.14 0 2.543-.857 4.122a.47.47 0 01-.428.264c-.086 0-.172 0-.257-.088-.257-.088-.257-.439-.172-.614.771-1.316 1.029-2.456.771-3.333-.17-.702-.685-1.053-.685-1.053-.086-.176-.171-.439-.086-.702zm-.43 9.737s.086-.088.172-.088c2.656-1.316 2.742-3.333 2.742-3.333 0-.263-.172-.526-.429-.526s-.514.175-.514.438c0 0-.085 1.491-2.227 2.632-.172.087-.257.35-.172.614a.47.47 0 00.429.263zm3.942-.175c-.086 0-.171.087-.171.087a.47.47 0 01-.429-.263c-.085-.263 0-.526.172-.614 1.799-.965 1.884-2.72 1.884-2.807 0-.263.172-.439.429-.439s.428.176.428.439c.086.088 0 2.368-2.313 3.596zm2.656-15.264s.514.79.257 3.421c0 .264.171.439.6.439.171 0 .428-.175.428-.439.086-1.754 0-2.719-.171-3.333.685 0 1.285-.088 1.628-.439a.806.806 0 00.257-.614c0-1.228-2.4-2.193-3.17-2.456-.258-.087-.515 0-.6.263-.086.264 0 .527.257.614 1.285.44 2.485 1.229 2.57 1.58-.171.087-.514.175-1.542.175h-.171a.47.47 0 00-.429.263c-.085.175 0 .35.086.526zM19.881 2.127c0-.354-.254-.62-.594-.62l-.34-1.064c.68.089 2.463.887 2.463 1.684 0 .798-.85.887-.85.887 0 1.064.935 1.064.935 1.064h1.019c.764 0 .68-1.064.68-1.064s-1.02-.177-1.02-.71C22.174 1.242 23.873 0 23.873 0s1.783 1.241 1.783 2.039c0 .886-1.104.975-1.104.975.255.886 1.104.975 1.104.975h.934c1.019 0 .594-1.064.594-1.064s-.764-.088-.764-.709c0-1.152 2.633-1.684 2.633-1.684l-.255.975c-.34 0-.595.266-.595.62 0 .178.085.355.34.444l-.68 2.482h-7.727l-.594-2.394a.599.599 0 00.34-.532zm4.671 0c0-.354-.255-.62-.594-.62-.34 0-.595.266-.595.62 0 .355.255.62.595.62.34 0 .594-.265.594-.62z" fill="#fff"/><g clip-path="url(#clip0)"><path d="M75.456 16.445c-.172 1.82-.843 3.242-2.015 4.266-1.172 1.016-2.73 1.523-4.676 1.523-1.36 0-2.559-.32-3.598-.96-1.03-.649-1.828-1.567-2.39-2.755-.563-1.187-.856-2.566-.88-4.136v-1.594c0-1.61.286-3.027.856-4.254.57-1.226 1.387-2.172 2.45-2.836 1.07-.664 2.304-.996 3.703-.996 1.882 0 3.398.512 4.546 1.535 1.149 1.024 1.817 2.469 2.004 4.336h-2.953c-.14-1.226-.5-2.11-1.078-2.648-.57-.547-1.41-.82-2.52-.82-1.288 0-2.28.472-2.976 1.417-.687.938-1.039 2.317-1.055 4.137v1.512c0 1.844.329 3.25.985 4.219.664.968 1.633 1.453 2.906 1.453 1.164 0 2.04-.262 2.625-.785.586-.524.957-1.395 1.113-2.614h2.953zm16.278-2.53c0 1.67-.29 3.14-.867 4.405-.579 1.258-1.407 2.227-2.485 2.907-1.07.671-2.305 1.007-3.703 1.007-1.383 0-2.617-.336-3.703-1.007-1.078-.68-1.914-1.645-2.508-2.895-.586-1.25-.883-2.691-.89-4.324v-.961c0-1.664.293-3.133.878-4.406.594-1.274 1.426-2.246 2.496-2.918 1.079-.68 2.313-1.02 3.704-1.02 1.39 0 2.62.336 3.691 1.008 1.078.664 1.91 1.625 2.496 2.883.586 1.25.883 2.707.89 4.37v.95zm-2.965-.892c0-1.89-.36-3.34-1.078-4.347-.711-1.008-1.723-1.512-3.035-1.512-1.282 0-2.285.504-3.012 1.512-.719 1-1.086 2.418-1.102 4.254v.984c0 1.875.364 3.324 1.09 4.348.735 1.023 1.75 1.535 3.047 1.535 1.313 0 2.32-.5 3.023-1.5.712-1 1.067-2.461 1.067-4.383v-.89zm11.672 5.262l4.336-13.348h3.258L101.894 22h-2.871L92.906 4.937h3.246l4.289 13.348zM113.097 22h-2.953V4.937h2.953V22zm3.645 0V4.937h5.039c1.507 0 2.843.336 4.007 1.008 1.172.672 2.079 1.625 2.719 2.86.641 1.234.961 2.648.961 4.242v.855c0 1.618-.324 3.04-.973 4.266a6.74 6.74 0 01-2.753 2.836c-1.188.664-2.551.996-4.09.996h-4.91zm2.964-14.672v12.305h1.934c1.555 0 2.746-.485 3.574-1.453.836-.977 1.262-2.375 1.278-4.196v-.949c0-1.851-.403-3.265-1.207-4.242-.805-.977-1.973-1.465-3.504-1.465h-2.075zM65.402 40.66V47h-2.965V29.937h6.527c1.907 0 3.418.497 4.535 1.489 1.125.992 1.688 2.305 1.688 3.937 0 1.672-.55 2.973-1.653 3.903-1.093.93-2.628 1.394-4.605 1.394h-3.527zm0-2.379h3.562c1.055 0 1.86-.246 2.414-.738.555-.5.832-1.219.832-2.156 0-.922-.28-1.657-.843-2.203-.563-.555-1.336-.84-2.32-.856h-3.645v5.953zm26.004.633c0 1.672-.29 3.14-.868 4.406-.578 1.258-1.406 2.227-2.484 2.907-1.07.671-2.305 1.007-3.703 1.007-1.383 0-2.617-.336-3.703-1.007-1.078-.68-1.914-1.645-2.508-2.895-.586-1.25-.883-2.691-.89-4.324v-.961c0-1.664.292-3.133.878-4.406.594-1.274 1.426-2.246 2.496-2.918 1.079-.68 2.313-1.02 3.704-1.02 1.39 0 2.62.336 3.69 1.008 1.079.664 1.911 1.625 2.497 2.883.586 1.25.883 2.707.89 4.37v.95zm-2.965-.89c0-1.891-.36-3.34-1.078-4.348-.711-1.008-1.723-1.512-3.035-1.512-1.282 0-2.286.504-3.012 1.512-.719 1-1.086 2.418-1.102 4.254v.984c0 1.875.364 3.324 1.09 4.348.734 1.023 1.75 1.535 3.047 1.535 1.313 0 2.32-.5 3.023-1.5.711-1 1.067-2.461 1.067-4.383v-.89zm12.187 2.402h-3.304V47h-2.965V29.937h6c1.969 0 3.488.442 4.558 1.325 1.071.883 1.606 2.16 1.606 3.832 0 1.14-.278 2.097-.832 2.87-.547.767-1.313 1.356-2.297 1.77l3.832 7.114V47h-3.176l-3.422-6.574zm-3.304-2.38h3.046c1 0 1.782-.25 2.344-.75.563-.507.844-1.198.844-2.073 0-.914-.262-1.621-.785-2.121-.516-.5-1.289-.758-2.32-.774h-3.13v5.719zm23.754-5.718h-5.321V47h-2.941V32.328h-5.274v-2.39h13.536v2.39zm10.394 10.7h-6.609L123.48 47h-3.082l6.445-17.063h2.66L135.96 47h-3.093l-1.395-3.973zm-5.777-2.391h4.945l-2.473-7.078-2.472 7.078zm3.363-15.27h3.246l-3.246 3.551h-2.285l2.285-3.55zm11.812 19.266h7.747V47h-10.711V29.937h2.964v14.696z" fill="#fff"/></g><path d="M62 53h32.917l-3.146 5.5 3.146 5.5H62V53z" fill="#ECAE1A"/><path d="M67.279 61v-5.013h1.718c.567 0 .998.114 1.294.34.296.228.444.567.444 1.017 0 .23-.062.436-.186.62a1.197 1.197 0 01-.544.426c.271.074.48.212.627.417.15.202.224.445.224.73 0 .47-.152.832-.455 1.084-.3.253-.732.379-1.294.379h-1.828zm.87-2.262v1.566h.968c.273 0 .487-.067.64-.203.154-.135.231-.323.231-.564 0-.521-.266-.788-.799-.8h-1.04zm0-.64h.855c.27 0 .482-.061.633-.183.154-.124.23-.298.23-.523 0-.248-.07-.427-.213-.537-.14-.11-.359-.166-.657-.166h-.847v1.408zm8.25.664h-2.06v1.542h2.407V61H73.47v-5.013h3.253v.702H74.34v1.384h2.059v.689zm6.49-2.073h-1.564V61h-.864v-4.31h-1.55v-.703h3.977v.702zm4.795 3.144h-1.942L85.336 61h-.906l1.894-5.013h.781L89.002 61h-.908l-.41-1.167zm-1.698-.703h1.453l-.726-2.08-.727 2.08z" fill="#000"/><defs><clipPath id="clip0"><path fill="#fff" transform="translate(61 1)" d="M0 0h94v50H0z"/></clipPath></defs></svg>