<svg
  width="144"
  height="50"
  viewBox="0 0 144 50"
  fill="none"
  xmlns="http://www.w3.org/2000/svg"
>
  <g clip-path="url(#clip0)">
    <path
      d="M19.9651 31.5C19.7544 31.5714 19.2628 31.5714 18.7712 30.8571C18.2796 30.1429 19.0521 30 19.0521 29.5C19.0521 29 17.9284 28.0714 17.5071 27.9286C17.0857 27.7857 17.3666 27.3571 17.1559 27.2143C16.9452 27.0714 16.5239 27 13.4338 27C10.3438 27 9.7117 28.8571 9.36056 28.8571C8.37736 28.8571 7.53461 27.8571 7.53461 27.8571C7.39415 28.8571 8.7285 29.3571 8.30713 29.5C7.67507 29.6429 7.32393 29.2857 6.34073 29.2857C3.8125 29.2857 3.60181 31.1429 3.60181 31.1429C5.07661 29.6429 9.7117 29.7857 9.7117 30.5714C9.7117 31.2857 8.93918 30.9286 8.93918 31.1429C8.93918 31.3571 9.92238 32.7857 9.92238 34.6429C9.92238 37.5 7.2537 38.2857 6.41095 38.2857C5.56821 38.2857 5.2873 37.3571 4.58501 36.7143C3.88272 36 2.96975 36.6429 2.96975 36.6429C2.96975 36.6429 3.39112 36.5714 3.39112 36.8571C3.39112 37.1429 3.03998 37.1429 3.03998 37.5714C3.03998 38.4286 4.3041 38.2143 4.51478 38.2143C4.72547 38.2143 5.21707 38.3571 5.21707 38.8571C5.21707 39.3571 1.49495 38.8571 2.05678 39.1429C2.61861 39.4286 2.40792 39.8571 2.40792 40.2857C2.40792 40.7143 2.75907 41.0714 3.18044 41.0714C3.60181 41.0714 4.02318 40.7857 4.44455 40.3571C4.86592 39.9286 5.14684 40.1429 5.2873 40.2857C5.42775 40.4286 5.42775 40.7857 5.21707 40.9286C4.7957 41.2143 3.46135 42.1429 3.74227 42.1429C4.02318 42.1429 4.3041 42.1429 4.3041 42.2857C4.3041 42.7857 4.7957 43 5.07661 43C5.35752 43 6.13004 42.7857 6.13004 42C6.13004 40.9286 6.55141 40.2857 7.11324 40.2857C7.67507 40.2857 7.67507 41.0714 7.67507 41.5C7.67507 41.9286 7.95598 42.2143 8.44758 42.2143C8.93918 42.2143 9.00941 41.7143 9.00941 41.5C9.00941 41.2857 9.7117 41.3571 9.85216 41.3571C9.99261 41.3571 9.50101 40.9286 8.86896 40.5C8.2369 40.0714 8.37736 39.8571 8.65827 39.7857C8.93918 39.7143 13.4338 38.5 13.0827 38.3571C12.8018 38.2143 12.6613 37.8571 12.872 37.5C13.3636 36.6429 15.962 38.4286 15.962 38.4286C15.1193 36.9286 13.7147 36.2143 13.0827 36.2143C12.4506 36.2143 12.4506 35.9286 12.4506 35.9286C11.8186 32.2857 12.7315 31.4286 13.9254 31.2857C15.1193 31.2143 16.243 31.6429 17.7178 31.7857C19.4032 32 20.1758 31.4286 19.9651 31.5Z"
      fill="white"
    />
    <path
      d="M35.999 11.6522C36.0705 11.2174 36.6419 10.6377 36.8562 9.98551C37.1419 9.26087 36.999 8.10145 36.4276 7.66667C35.8562 7.30435 35.0705 6.21739 35.0705 6.21739C35.0705 6.72464 35.5705 7.81159 35.1419 7.88406C34.1419 8.02899 33.3562 6 33.3562 6C33.3562 6 33.2133 7.23188 33.9276 7.88406C34.7133 8.6087 35.5705 9.69565 34.9276 10.1304C34.3562 10.5652 33.499 9.18841 33.499 9.18841C33.2847 10.7101 34.8562 11.2899 34.8562 11.2899C34.999 12.5217 31.999 15.1304 31.999 15.1304L32.999 16C34.6419 14.3333 35.8562 12.3043 35.999 11.6522Z"
      fill="white"
    />
    <path
      fill-rule="evenodd"
      clip-rule="evenodd"
      d="M37.0618 21.606C37.1919 21.4417 37.3777 21.2071 37.999 21.3889C37.999 21.3889 36.846 22.0139 36.9816 23.4028C37.1173 24.7917 35.8964 28.1944 32.7085 28.6806C32.7085 28.6806 32.3016 31.8056 28.6389 31.4583C28.6389 31.4583 31.6911 34.6528 31.5555 38.2639C31.5555 38.2639 29.5207 32.2917 24.8406 29.7222C24.8406 29.7222 24.5693 29.6528 24.705 30.2083C24.7728 30.6944 24.4337 31.7361 24.1623 32.2222C23.891 32.7083 23.8232 37.4306 27.7572 38.5417C28.7067 38.75 29.5885 38.4722 29.5885 38.4722C29.5885 38.4722 29.0459 39.5139 26.9432 39.4444C26.3328 39.4444 26.4006 40.3472 27.2146 40.3472C27.418 40.3472 26.1971 45.1389 24.5693 46.9444C24.2376 47.2274 24.5367 47.3259 24.7322 47.3903C24.7765 47.4049 24.8155 47.4177 24.8406 47.4306C24.9763 47.4306 25.7224 47.8472 26.0615 48.125C26.0615 48.125 25.5867 48.0556 25.5189 48.1944C25.5065 48.2199 25.4963 48.2662 25.4835 48.325C25.4261 48.5873 25.3145 49.0972 24.705 49.0972C23.9589 49.0972 23.7554 48.3333 23.7554 47.9167C23.7554 47.5 23.3484 47.5 23.2128 47.5694C23.0771 47.5694 22.5345 47.7778 22.3988 48.4722C22.2632 49.1667 22.0597 50 21.3814 50C20.7032 50 20.4997 49.5139 20.4997 49.0972C20.4997 48.9998 20.4403 49.0087 20.3354 49.0245C20.2161 49.0424 20.038 49.0692 19.8214 48.9583C19.8214 48.9583 21.7884 47.7778 21.5849 47.2917C21.3814 46.8056 21.0423 46.9444 20.9067 47.0833C20.771 47.2222 19.9571 47.8472 19.4145 47.9167C18.804 47.9861 18.5327 47.1528 18.8718 46.5278C18.9483 46.4104 18.8525 46.3592 18.7179 46.2872C18.6136 46.2313 18.4859 46.163 18.3971 46.0417C18.3971 46.0417 21.178 46.3889 21.1101 45.7639C21.0423 45.1389 20.4997 45.2083 20.2284 45.2778C19.9571 45.3472 19.1432 45.2778 19.1432 44.6528C19.1432 44.4695 19.2377 44.3636 19.3269 44.2636C19.4067 44.1742 19.4823 44.0895 19.4823 43.9583C19.4823 43.75 19.211 43.6111 19.211 43.6111C19.211 43.6111 19.7536 43.4722 20.2962 43.6806C20.5126 43.7636 20.7721 44.0565 21.0575 44.3787C21.4879 44.8644 21.9773 45.4167 22.4667 45.4167C23.2806 45.4167 23.891 44.1667 23.891 41.7361C23.891 39.3987 23.8283 39.3733 23.2202 39.1278L23.1449 39.0972C23.0926 39.0436 23.0907 38.9486 23.0887 38.8442C23.0855 38.6781 23.0819 38.4881 22.8736 38.4028C22.5345 38.2639 21.9919 38.9583 22.0597 41.875C22.0597 41.875 21.5171 40.8333 21.4493 39.375C21.4493 39.1671 21.4683 38.969 21.4849 38.7951C21.5128 38.5043 21.5342 38.2814 21.4493 38.1944C21.3948 38.1387 21.2748 38.2731 21.0893 38.481C20.8125 38.791 20.3899 39.2645 19.8214 39.5139C19.8214 39.5139 20.5675 38.2639 20.5675 37.4306C20.5675 37.1601 20.4532 37.0214 20.2989 36.8338C19.9775 36.4435 19.4823 35.8421 19.4823 33.4028C19.4823 32.5763 19.6094 32.1217 19.7321 31.6829C19.8465 31.2738 19.9571 30.8785 19.9571 30.2083C19.9571 28.9899 17.869 27.611 16.5322 26.7283C16.3452 26.6049 16.1729 26.4911 16.0231 26.3889C14.8701 25.4861 13.717 24.3056 13.5135 24.0278C13.4316 23.916 13.6903 23.568 13.9932 23.1604C14.4431 22.5551 14.9908 21.8183 14.6666 21.5278C14.2243 21.1315 13.9172 21.6581 13.5983 22.2049L13.5983 22.2049C13.526 22.3289 13.4531 22.4539 13.3779 22.5694C12.9709 23.1944 12.3605 23.75 12.0892 23.8889C11.9883 23.9405 12.0093 23.6367 12.0372 23.2347C12.0843 22.556 12.1508 21.5972 11.6822 21.5972C11.0039 21.5972 10.9361 22.3611 11.0718 22.6389C11.1275 22.7531 11.0113 22.7617 10.8221 22.7756C10.5511 22.7955 10.1304 22.8264 9.85087 23.1944L9.83713 23.2113C9.50081 23.6244 9.10204 24.1141 8.9013 25.3472C8.9013 25.3472 8.49434 24.375 8.9013 23.3333C9.03695 23.0556 7.68042 23.2639 5.17082 23.8889C4.76386 23.9583 4.76386 24.2361 4.76386 24.9306C4.83169 25.7639 4.83169 26.1806 4.76386 26.5278C4.69603 26.7361 4.56038 26.1806 4.56038 26.0417C4.56038 26.0036 4.46342 26.0229 4.3227 26.0511C3.95037 26.1255 3.27167 26.2611 3.27167 25.5556C3.27167 25.0019 3.44766 24.8987 3.59918 24.8098C3.71372 24.7426 3.81428 24.6836 3.81428 24.4444C3.81428 23.8889 3.47515 23.5417 2.93254 23.5417C2.65529 23.5417 2.44801 23.7852 2.22171 24.051C1.94975 24.3705 1.65033 24.7222 1.16904 24.7222C0.355115 24.7222 0.219461 24.0972 0.219461 23.8889C0.219461 23.7847 0.253374 23.6979 0.287288 23.6111C0.321201 23.5243 0.355114 23.4375 0.355114 23.3333C0.355114 23.125 0.151634 22.9167 0.0159802 22.9167C-0.0518467 22.9167 0.083807 22.7778 0.422941 22.7778C0.480122 22.7778 0.577794 22.7876 0.700679 22.8001C1.30662 22.8613 2.52557 22.9845 2.52557 22.2917C2.52557 22.0276 2.29022 22.0447 1.96866 22.068C1.86738 22.0754 1.75755 22.0833 1.64382 22.0833C1.59309 22.0759 1.53537 22.0693 1.47276 22.0621C0.949478 22.002 0.083807 21.9026 0.083807 20.9722C0.083807 20.4167 0.762076 20.2778 0.762076 20.2778C0.762076 20.2778 0.897729 20.0694 0.829903 19.7222C0.694249 19.375 2.18644 20.6944 2.45775 21.0417C2.72905 21.3889 3.06819 21.1806 3.13602 21.1111C3.20384 21.0417 3.40732 20.6944 2.93254 20.4167C2.38992 20.1389 2.32209 19.8611 2.32209 19.375C2.32209 18.8889 2.79688 18.8194 2.93254 18.8194C3.06819 18.8194 3.13602 18.4028 3.00036 18.125C2.86471 17.8472 3.67863 18.4722 4.01777 19.3056C4.07772 19.4488 4.07879 19.6523 4.07997 19.8752C4.08278 20.409 4.08618 21.0541 4.89951 21.25C4.89951 21.25 5.10299 21.3194 5.91692 20.9722C6.66301 20.625 10.8683 19.0972 10.8683 19.0972C10.8683 19.0972 11.6144 18.8889 11.4109 18.4722C11.2074 18.0556 10.4613 17.9861 9.51174 18.75C8.56216 19.5139 10.7326 15.5556 12.7674 15.5556C13.1066 15.5556 13.2422 15.3472 13.2422 15.2083C13.2422 15.0694 13.1744 14.7917 12.3605 14.7917C11.5465 14.7917 10.3935 15.6944 9.9187 16.5278C9.86926 16.5784 9.79277 16.5183 9.66954 16.4215C9.45471 16.2527 9.09778 15.9722 8.49434 15.9722C7.54476 15.9722 6.93432 16.1806 6.79867 16.25C6.59519 16.25 7.27345 15.2778 8.42651 15.2778C8.62999 15.2778 8.62999 14.9306 8.1552 14.5833C7.84376 14.3556 7.29883 13.6497 6.88416 13.1126L6.88415 13.1125C6.66668 12.8308 6.48504 12.5956 6.39171 12.5C6.1204 12.2222 5.57778 13.2639 5.23865 14.0972C5.17082 14.3056 5.03517 13.8194 5.03517 13.6111C5.03517 13.5435 4.93518 13.5052 4.80009 13.4533C4.51888 13.3455 4.08559 13.1793 4.08559 12.5694C4.08559 11.5972 4.83169 11.875 5.17082 12.0139C5.50996 12.1528 5.91692 11.6667 5.84909 11.25C5.78126 10.8333 5.3743 10.3472 4.69603 10.4167C4.01777 10.4861 3.13602 10 3.13602 9.30556C3.13602 8.797 3.42701 8.69811 3.63608 8.62707C3.7125 8.6011 3.77797 8.57885 3.81428 8.54167C3.94994 8.40278 3.94994 7.98611 3.88211 7.84722C3.81428 7.70833 4.62821 8.26389 5.10299 8.88889C5.57778 9.44444 5.71344 9.58333 5.91692 9.44444C6.1204 9.30556 6.18822 8.88889 5.50996 8.33333C4.83169 7.77778 4.96734 7.08333 5.23865 6.66667C5.28706 6.6171 5.43049 6.63829 5.6042 6.66395C5.91725 6.71019 6.32867 6.77097 6.45953 6.45833C6.59519 5.90278 6.79867 7.5 6.79867 8.26389C6.79867 8.81944 6.93432 8.95833 7.1378 8.95833C7.34128 8.95833 7.54476 8.88889 7.40911 7.98611C7.28612 7.10464 7.60917 6.96527 7.77165 6.89518C7.78838 6.88796 7.80341 6.88148 7.81607 6.875C8.01955 6.80556 8.29086 6.80556 8.49434 7.01389C8.69782 7.22222 9.03695 6.875 9.03695 6.59722C9.03695 6.59722 9.37609 7.36111 8.96913 7.98611C8.87324 8.13336 8.74348 8.26905 8.61087 8.40771L8.61086 8.40771C8.18064 8.85757 7.72055 9.33865 8.29086 10.3472L12.0213 14.3056C12.0213 14.3056 12.2926 14.3056 12.0892 14.0278C11.8857 13.75 11.9535 13.3333 12.0892 13.1944C12.0892 13.1944 13.3779 14.375 15.8875 14.0972C18.4649 13.8194 19.4823 12.0139 19.0753 11.5972C19.0753 11.5972 17.9901 12.7778 16.9049 12.7778C15.8196 12.7778 15.2092 11.6667 15.5483 10.9028C15.5483 10.9028 16.0909 11.5278 16.9727 11.5278C17.8544 11.5278 18.7362 10.4861 18.5327 9.93056C18.4531 9.79477 18.1557 9.89262 17.6405 10.0621C16.8383 10.3261 15.5078 10.7639 13.6492 10.7639C10.597 10.7639 10.1222 7.70833 12.2926 6.38889C12.2926 6.38889 10.597 9.93056 14.5309 9.93056C16.7014 9.93056 18.2614 9.30556 18.2614 9.30556C18.2614 9.30556 18.0579 8.19444 16.9049 8.19444C15.7518 8.19444 15.4127 9.375 15.4127 9.375C15.4127 9.375 14.4631 8.75 14.6666 7.77778C14.6917 7.67476 14.8382 7.64815 15.0125 7.61648C15.3081 7.56276 15.684 7.49447 15.684 7.01389C15.684 6.73611 15.4805 6.73611 15.4127 6.73611C15.2508 6.73611 15.1971 6.86264 15.141 6.99492C15.0794 7.13984 15.015 7.29167 14.8022 7.29167C14.3953 7.29167 14.3953 6.18056 15.2092 6.18056C15.2092 6.18056 15.8875 6.25 15.8875 5.90278C15.8875 5.55556 16.9727 5.13889 19.0753 5.13889C21.1101 5.13889 21.7206 5.76389 21.7206 5.76389C21.7206 5.76389 21.9241 5 22.8058 5C23.6876 5 23.7554 5.69444 23.7554 5.83333C23.7554 6.15012 23.6402 6.37843 23.5599 6.53748C23.517 6.6225 23.4841 6.68773 23.4841 6.73611C23.4841 6.76887 23.5595 6.88659 23.6748 7.0665C24.0485 7.64951 24.8406 8.88558 24.8406 10C24.8406 11.4583 25.1119 13.1944 26.4006 14.5833C26.4006 14.5833 25.4511 14.4444 24.705 13.6806C24.5015 13.5417 24.4337 16.8056 24.9763 17.7778C25.1797 17.9861 24.7728 17.9167 24.4337 17.5C24.3353 17.3791 24.2483 17.2582 24.1711 17.1509C23.9821 16.8883 23.8517 16.707 23.7554 16.8056L23.752 16.8125C23.6594 17.001 22.6854 18.9837 23.7554 20.7639C24.0945 21.1806 22.8058 20.625 22.3988 19.7917C22.2632 19.5139 21.5171 22.1528 22.5345 24.2361C22.738 24.6528 21.5849 23.75 21.3814 23.4028C21.178 23.0556 20.8388 23.8194 21.4493 25C22.0597 26.25 22.6023 27.3611 23.0093 27.7778C23.2862 28.0613 23.9401 28.377 24.4792 28.6373C24.7324 28.7596 24.9602 28.8696 25.1119 28.9583C25.18 28.9982 25.2747 29.0595 25.3917 29.1353L25.3918 29.1354L25.3921 29.1355L25.3921 29.1356L25.3925 29.1358L25.3926 29.1358C26.0912 29.5884 27.5844 30.5556 28.9781 30.5556C30.6059 30.5556 31.4198 29.375 31.4198 28.8194C31.4198 28.8001 31.3194 28.7834 31.1466 28.7547C30.0812 28.5777 26.265 27.9439 26.265 23.4028C26.265 19.5833 30.1989 17.2917 30.1989 17.2917L31.0129 18.1944C31.0129 18.1944 27.4859 20.5556 27.4859 23.4028C27.4859 26.25 29.9955 27.6389 31.5555 27.6389C31.5555 27.6389 32.3694 25.9028 28.8424 24.2361C28.8424 24.2361 30.6059 23.75 31.4876 25.2083C31.759 25.5556 31.8946 25.3472 31.9624 25.2083C32.0303 25.0694 32.5729 24.5139 33.319 24.7917C33.319 24.7917 32.1659 25.7639 32.7764 27.5C32.7764 27.5 35.7607 26.8056 35.7607 23.6111C35.7607 21.2976 33.8397 19.6398 32.3422 18.3474C31.7719 17.8552 31.263 17.4161 30.945 17.0139C30.6415 16.63 30.2815 16.2605 29.9109 15.8801C28.8738 14.8156 27.7536 13.6657 27.5537 11.875C27.5537 11.875 26.4006 11.5278 26.4006 10C26.4006 8.47222 28.1641 6.94444 28.2998 6.875C28.3395 6.85467 28.3036 6.98317 28.2501 7.17508L28.25 7.1751C28.1206 7.63867 27.8879 8.47222 28.3676 8.47222C28.9781 8.47222 30.1311 7.01389 30.1989 6.73611C30.3346 6.45833 30.3346 7.5 29.6563 8.40278C29.4476 8.71138 29.1835 8.98752 28.9424 9.23952C28.4783 9.72473 28.0998 10.1205 28.3676 10.4861C28.7746 11.0417 29.7241 10.0694 29.9276 9.65278C30.1311 9.23611 29.7241 11.25 28.5711 11.8056C28.5711 11.8056 27.8928 12.7083 31.8268 16.25C33.6581 17.7083 34.472 18.5417 34.7433 18.8194C34.7433 18.8194 35.0146 18.6806 35.0146 18.125C35.0146 17.5694 35.2181 17.0139 35.4894 16.8056C35.4894 16.8056 35.1503 19.7917 35.8286 20.0694C36.0999 20.1389 36.1677 19.8611 36.2355 19.4444C36.3033 19.0972 36.5747 18.6806 36.7103 18.75C36.7103 18.75 36.0999 21.3194 36.846 21.7361C36.9397 21.7601 36.993 21.6929 37.0618 21.606ZM13.1066 20.4167C13.31 18.4028 14.3274 17.7083 14.3953 17.7083C14.5988 17.6389 14.5988 17.3611 14.4631 17.2222C14.3953 17.0139 14.1918 17.0139 13.9883 17.0833C13.9827 17.0891 13.9683 17.1 13.9466 17.1166C13.7044 17.3007 12.5472 18.181 12.3605 20.3472C12.3605 20.5556 12.4961 20.7639 12.6996 20.7639H12.7674C12.9031 20.7639 13.1066 20.625 13.1066 20.4167ZM18.3292 7.56944C17.8544 7.56944 17.7188 7.36111 17.5831 7.15278C17.5831 7.15278 18.6684 7.01389 18.6684 6.80556C18.6684 6.66667 18.3292 6.73611 18.3292 6.73611H17.3797C17.3797 6.73611 17.1762 6.52778 17.1762 6.25C17.1762 6.25 17.1762 6.04167 17.5153 6.04167H19.211C19.211 6.04167 19.5501 6.04167 19.5501 6.31944C19.5501 6.59722 19.1432 6.52778 19.1432 6.52778C19.1432 6.52778 19.1432 7.56944 18.3292 7.56944ZM18.8718 14.375C18.7362 14.3056 18.5327 14.375 18.3971 14.5139C18.3292 14.7222 18.3292 14.9306 18.5327 15C18.5369 15.0043 18.5451 15.0111 18.5568 15.0209C18.7356 15.1699 19.7203 15.9909 19.211 18.4028C19.1432 18.6111 19.2788 18.75 19.4823 18.8194H19.5501C19.6858 18.8194 19.8214 18.6806 19.8893 18.5417C20.5227 15.6232 19.1448 14.5823 18.9046 14.401L18.9046 14.4009L18.9045 14.4009L18.9045 14.4009C18.8876 14.3881 18.8763 14.3796 18.8718 14.375ZM15.7518 16.8056C15.8196 16.5972 16.0909 16.5972 16.2266 16.6667C16.2266 16.6667 16.9049 17.0139 17.1083 17.9167C17.3797 18.8194 17.1083 19.9306 16.4301 21.1806C16.3623 21.3194 16.2266 21.3889 16.0909 21.3889C16.0231 21.3889 15.9553 21.3889 15.8875 21.3194C15.684 21.25 15.684 20.9722 15.7518 20.8333C16.3623 19.7917 16.5657 18.8889 16.3623 18.1944C16.2266 17.6389 15.8196 17.3611 15.8196 17.3611C15.7518 17.2222 15.684 17.0139 15.7518 16.8056ZM15.4127 24.5139C15.4127 24.5139 15.4805 24.4444 15.5483 24.4444C17.651 23.4028 17.7188 21.8056 17.7188 21.8056C17.7188 21.5972 17.5831 21.3889 17.3797 21.3889C17.1762 21.3889 16.9727 21.5278 16.9727 21.7361C16.9727 21.7361 16.9049 22.9167 15.2092 23.8194C15.0735 23.8889 15.0057 24.0972 15.0735 24.3056C15.1414 24.4444 15.277 24.5139 15.4127 24.5139ZM18.5327 24.375C18.4649 24.375 18.3971 24.4444 18.3971 24.4444C18.2614 24.4444 18.1258 24.375 18.0579 24.2361C17.9901 24.0278 18.0579 23.8194 18.1936 23.75C19.6179 22.9861 19.6858 21.5972 19.6858 21.5278C19.6858 21.3194 19.8214 21.1806 20.0249 21.1806C20.2284 21.1806 20.364 21.3194 20.364 21.5278C20.4319 21.5972 20.364 23.4028 18.5327 24.375ZM20.6353 12.2917C20.6353 12.2917 21.0423 12.9167 20.8388 15C20.8388 15.2083 20.9745 15.3472 21.3136 15.3472C21.4493 15.3472 21.6528 15.2083 21.6528 15C21.7206 13.6111 21.6528 12.8472 21.5171 12.3611C22.0597 12.3611 22.5345 12.2917 22.8058 12.0139C22.9415 11.875 23.0093 11.7361 23.0093 11.5278C23.0093 10.5556 21.1101 9.79167 20.4997 9.58333C20.2962 9.51389 20.0927 9.58333 20.0249 9.79167C19.9571 10 20.0249 10.2083 20.2284 10.2778C21.2458 10.625 22.1954 11.25 22.2632 11.5278C22.1275 11.5972 21.8562 11.6667 21.0423 11.6667H20.9067C20.771 11.6667 20.6353 11.7361 20.5675 11.875C20.4997 12.0139 20.5675 12.1528 20.6353 12.2917Z"
      fill="white"
    />
    <path
      fill-rule="evenodd"
      clip-rule="evenodd"
      d="M15.7385 1.68421C15.7385 1.40351 15.5368 1.19298 15.2679 1.19298L14.999 0.350877C15.5368 0.421053 16.9486 1.05263 16.9486 1.68421C16.9486 2.31579 16.2763 2.38596 16.2763 2.38596C16.2763 3.22807 17.0158 3.22807 17.0158 3.22807H17.8226C18.4276 3.22807 18.3604 2.38596 18.3604 2.38596C18.3604 2.38596 17.5536 2.24561 17.5536 1.82456C17.5536 0.982456 18.8982 0 18.8982 0C18.8982 0 20.3099 0.982456 20.3099 1.61404C20.3099 2.31579 19.436 2.38596 19.436 2.38596C19.6377 3.08772 20.3099 3.15789 20.3099 3.15789H21.0494C21.8562 3.15789 21.52 2.31579 21.52 2.31579C21.52 2.31579 20.915 2.24561 20.915 1.75439C20.915 0.842105 22.999 0.421053 22.999 0.421053L22.7973 1.19298C22.5284 1.19298 22.3268 1.40351 22.3268 1.68421C22.3268 1.82456 22.394 1.96491 22.5957 2.03509L22.0578 4H15.9402L15.4696 2.10526C15.6041 2.03509 15.7385 1.89474 15.7385 1.68421ZM19.436 1.68421C19.436 1.40351 19.2343 1.19298 18.9654 1.19298C18.6965 1.19298 18.4948 1.40351 18.4948 1.68421C18.4948 1.96491 18.6965 2.17544 18.9654 2.17544C19.2343 2.17544 19.436 1.96491 19.436 1.68421Z"
      fill="white"
    />
  </g>
  <path
    d="M68.7529 15.4453C68.5811 17.2656 67.9092 18.6875 66.7373 19.7109C65.5654 20.7266 64.0068 21.2344 62.0615 21.2344C60.7021 21.2344 59.5029 20.9141 58.4639 20.2734C57.4326 19.625 56.6357 18.707 56.0732 17.5195C55.5107 16.332 55.2178 14.9531 55.1943 13.3828V11.7891C55.1943 10.1797 55.4795 8.76172 56.0498 7.53516C56.6201 6.30859 57.4365 5.36328 58.499 4.69922C59.5693 4.03516 60.8037 3.70312 62.2021 3.70312C64.085 3.70312 65.6006 4.21484 66.749 5.23828C67.8975 6.26172 68.5654 7.70703 68.7529 9.57422H65.7998C65.6592 8.34766 65.2998 7.46484 64.7217 6.92578C64.1514 6.37891 63.3115 6.10547 62.2021 6.10547C60.9131 6.10547 59.9209 6.57812 59.2256 7.52344C58.5381 8.46094 58.1865 9.83984 58.1709 11.6602V13.1719C58.1709 15.0156 58.499 16.4219 59.1553 17.3906C59.8193 18.3594 60.7881 18.8438 62.0615 18.8438C63.2256 18.8438 64.1006 18.582 64.6865 18.0586C65.2725 17.5352 65.6436 16.6641 65.7998 15.4453H68.7529ZM85.0303 12.9141C85.0303 14.5859 84.7412 16.0547 84.1631 17.3203C83.585 18.5781 82.7568 19.5469 81.6787 20.2266C80.6084 20.8984 79.374 21.2344 77.9756 21.2344C76.5928 21.2344 75.3584 20.8984 74.2725 20.2266C73.1943 19.5469 72.3584 18.582 71.7646 17.332C71.1787 16.082 70.8818 14.6406 70.874 13.0078V12.0469C70.874 10.3828 71.167 8.91406 71.7529 7.64062C72.3467 6.36719 73.1787 5.39453 74.249 4.72266C75.3271 4.04297 76.5615 3.70312 77.9521 3.70312C79.3428 3.70312 80.5732 4.03906 81.6436 4.71094C82.7217 5.375 83.5537 6.33594 84.1396 7.59375C84.7256 8.84375 85.0225 10.3008 85.0303 11.9648V12.9141ZM82.0654 12.0234C82.0654 10.1328 81.7061 8.68359 80.9873 7.67578C80.2764 6.66797 79.2646 6.16406 77.9521 6.16406C76.6709 6.16406 75.667 6.66797 74.9404 7.67578C74.2217 8.67578 73.8545 10.0938 73.8389 11.9297V12.9141C73.8389 14.7891 74.2021 16.2383 74.9287 17.2617C75.6631 18.2852 76.6787 18.7969 77.9756 18.7969C79.2881 18.7969 80.2959 18.2969 80.999 17.2969C81.71 16.2969 82.0654 14.8359 82.0654 12.9141V12.0234ZM93.7373 17.2852L98.0732 3.9375H101.331L95.1904 21H92.3193L86.2021 3.9375H89.4482L93.7373 17.2852ZM106.394 21H103.44V3.9375H106.394V21ZM110.038 21V3.9375H115.077C116.585 3.9375 117.921 4.27344 119.085 4.94531C120.257 5.61719 121.163 6.57031 121.804 7.80469C122.444 9.03906 122.765 10.4531 122.765 12.0469V12.9023C122.765 14.5195 122.44 15.9414 121.792 17.168C121.151 18.3945 120.233 19.3398 119.038 20.0039C117.851 20.668 116.487 21 114.948 21H110.038ZM113.003 6.32812V18.6328H114.937C116.491 18.6328 117.683 18.1484 118.511 17.1797C119.347 16.2031 119.772 14.8047 119.788 12.9844V12.0352C119.788 10.1836 119.386 8.76953 118.581 7.79297C117.776 6.81641 116.608 6.32812 115.077 6.32812H113.003ZM58.6982 39.6602V46H55.7334V28.9375H62.2607C64.167 28.9375 65.6787 29.4336 66.7959 30.4258C67.9209 31.418 68.4834 32.7305 68.4834 34.3633C68.4834 36.0352 67.9326 37.3359 66.8311 38.2656C65.7373 39.1953 64.2021 39.6602 62.2256 39.6602H58.6982ZM58.6982 37.2812H62.2607C63.3154 37.2812 64.1201 37.0352 64.6748 36.543C65.2295 36.043 65.5068 35.3242 65.5068 34.3867C65.5068 33.4648 65.2256 32.7305 64.6631 32.1836C64.1006 31.6289 63.3271 31.3438 62.3428 31.3281H58.6982V37.2812ZM84.7021 37.9141C84.7021 39.5859 84.4131 41.0547 83.835 42.3203C83.2568 43.5781 82.4287 44.5469 81.3506 45.2266C80.2803 45.8984 79.0459 46.2344 77.6475 46.2344C76.2646 46.2344 75.0303 45.8984 73.9443 45.2266C72.8662 44.5469 72.0303 43.582 71.4365 42.332C70.8506 41.082 70.5537 39.6406 70.5459 38.0078V37.0469C70.5459 35.3828 70.8389 33.9141 71.4248 32.6406C72.0186 31.3672 72.8506 30.3945 73.9209 29.7227C74.999 29.043 76.2334 28.7031 77.624 28.7031C79.0146 28.7031 80.2451 29.0391 81.3154 29.7109C82.3936 30.375 83.2256 31.3359 83.8115 32.5938C84.3975 33.8438 84.6943 35.3008 84.7021 36.9648V37.9141ZM81.7373 37.0234C81.7373 35.1328 81.3779 33.6836 80.6592 32.6758C79.9482 31.668 78.9365 31.1641 77.624 31.1641C76.3428 31.1641 75.3389 31.668 74.6123 32.6758C73.8936 33.6758 73.5264 35.0938 73.5107 36.9297V37.9141C73.5107 39.7891 73.874 41.2383 74.6006 42.2617C75.335 43.2852 76.3506 43.7969 77.6475 43.7969C78.96 43.7969 79.9678 43.2969 80.6709 42.2969C81.3818 41.2969 81.7373 39.8359 81.7373 37.9141V37.0234ZM93.9248 39.4258H90.6201V46H87.6553V28.9375H93.6553C95.624 28.9375 97.1436 29.3789 98.2139 30.2617C99.2842 31.1445 99.8193 32.4219 99.8193 34.0938C99.8193 35.2344 99.542 36.1914 98.9873 36.9648C98.4404 37.7305 97.6748 38.3203 96.6904 38.7344L100.522 45.8477V46H97.3467L93.9248 39.4258ZM90.6201 37.0469H93.667C94.667 37.0469 95.4482 36.7969 96.0107 36.2969C96.5732 35.7891 96.8545 35.0977 96.8545 34.2227C96.8545 33.3086 96.5928 32.6016 96.0693 32.1016C95.5537 31.6016 94.7803 31.3438 93.749 31.3281H90.6201V37.0469ZM114.374 31.3281H109.054V46H106.112V31.3281H100.839V28.9375H114.374V31.3281ZM124.769 42.0273H118.159L116.776 46H113.694L120.14 28.9375H122.8L129.257 46H126.163L124.769 42.0273ZM118.991 39.6367H123.937L121.464 32.5586L118.991 39.6367ZM122.354 24.3672H125.601L122.354 27.918H120.069L122.354 24.3672ZM134.167 43.6328H141.913V46H131.202V28.9375H134.167V43.6328Z"
    fill="white"
  />
  <defs>
    <clipPath id="clip0">
      <rect
        width="38"
        height="50"
        fill="white"
        transform="translate(-0.000976562)"
      />
    </clipPath>
  </defs>
</svg>