<?xml version="1.0" encoding="utf-8"?>
<!-- Generator: Adobe Illustrator 21.0.0, SVG Export Plug-In . SVG Version: 6.00 Build 0)  -->
<svg version="1.1" id="Layer_1" xmlns="http://www.w3.org/2000/svg" xmlns:xlink="http://www.w3.org/1999/xlink" x="0px" y="0px"
	 viewBox="0 0 58.1 74.3" style="enable-background:new 0 0 58.1 74.3;" xml:space="preserve">
<style type="text/css">
	.st0{fill:#FFFFFF;}
</style>
<g>
	<g>
		<g>
			<g>
				<g>
					<g>
						<g>
							<g>
								<g>
									<g>
										<g>
											<g>
												<g>
													<g>
														<g>
															<g>
																<g>
																	<g>
																		<g>
																			<g>
																				<g>
																					<g>
																						<g>
																							<g>
																								<g>
																									<g>
																										<g>
																											<g>
																												<path class="st0" d="M29.1,46.1c-0.3,0.1-1,0.1-1.7-0.9c-0.7-1,0.4-1.2,0.4-1.9s-1.6-2-2.2-2.2
																													c-0.6-0.2-0.2-0.8-0.5-1s-0.9-0.3-5.3-0.3s-5.3,2.6-5.8,2.6c-1.4,0-2.6-1.4-2.6-1.4
																													c-0.2,1.4,1.7,2.1,1.1,2.3c-0.9,0.2-1.4-0.3-2.8-0.3c-3.6,0-3.9,2.6-3.9,2.6c2.1-2.1,8.7-1.9,8.7-0.8
																													c0,1-1.1,0.5-1.1,0.8c0,0.3,1.4,2.3,1.4,4.9c0,4-3.8,5.1-5,5.1c-1.2,0-1.6-1.3-2.6-2.2
																													c-1-1-2.3-0.1-2.3-0.1s0.6-0.1,0.6,0.3c0,0.4-0.5,0.4-0.5,1c0,1.2,1.8,0.9,2.1,0.9c0.3,0,1,0.2,1,0.9
																													c0,0.7-5.3,0-4.5,0.4c0.8,0.4,0.5,1,0.5,1.6c0,0.6,0.5,1.1,1.1,1.1s1.2-0.4,1.8-1
																													c0.6-0.6,1-0.3,1.2-0.1c0.2,0.2,0.2,0.7-0.1,0.9c-0.6,0.4-2.5,1.7-2.1,1.7c0.4,0,0.8,0,0.8,0.2
																													c0,0.7,0.7,1,1.1,1s1.5-0.3,1.5-1.4c0-1.5,0.6-2.4,1.4-2.4c0.8,0,0.8,1.1,0.8,1.7c0,0.6,0.4,1,1.1,1
																													c0.7,0,0.8-0.7,0.8-1c0-0.3,1-0.2,1.2-0.2c0.2,0-0.5-0.6-1.4-1.2c-0.9-0.6-0.7-0.9-0.3-1
																													c0.4-0.1,6.8-1.8,6.3-2c-0.4-0.2-0.6-0.7-0.3-1.2c0.7-1.2,4.4,1.3,4.4,1.3c-1.2-2.1-3.2-3.1-4.1-3.1
																													c-0.9,0-0.9-0.4-0.9-0.4c-0.9-5.1,0.4-6.3,2.1-6.5c1.7-0.1,3.3,0.5,5.4,0.7
																													C28.3,46.8,29.4,46,29.1,46.1z"/>
																												<path class="st0" d="M53.9,17.8c0.1-0.6,0.9-1.4,1.2-2.3c0.4-1,0.2-2.6-0.6-3.2c-0.8-0.5-1.9-2-1.9-2
																													c0,0.7,0.7,2.2,0.1,2.3c-1.4,0.2-2.5-2.6-2.5-2.6s-0.2,1.7,0.8,2.6c1.1,1,2.3,2.5,1.4,3.1
																													c-0.8,0.6-2-1.3-2-1.3c-0.3,2.1,1.9,2.9,1.9,2.9c0.2,1.7-4,5.3-4,5.3l1.4,1.2
																													C52,21.5,53.7,18.7,53.9,17.8z"/>
																												<path class="st0" d="M57,31.4c-1.4-0.4-1.3,0.6-1.7,0.5c-1.1-0.6-0.2-4.3-0.2-4.3
																													c-0.2-0.1-0.6,0.5-0.7,1c-0.1,0.6-0.2,1-0.6,0.9c-1-0.4-0.5-4.7-0.5-4.7c-0.4,0.3-0.7,1.1-0.7,1.9
																													c0,0.8-0.4,1-0.4,1c-0.4-0.4-1.6-1.6-4.3-3.7c-5.8-5.1-4.8-6.4-4.8-6.4c1.7-0.8,2.3-3.7,2-3.1
																													c-0.3,0.6-1.7,2-2.3,1.2c-0.6-0.8,1-1.7,1.9-3c1-1.3,1-2.8,0.8-2.4c-0.1,0.4-1.8,2.5-2.7,2.5
																													c-1,0,0.1-2.4-0.1-2.3c-0.2,0.1-2.8,2.3-2.8,4.5s1.7,2.7,1.7,2.7c0.4,3.5,3.3,5.3,5,7.4
																													c1.7,2.1,7.1,4.9,7.1,9.5c0,4.6-4.4,5.6-4.4,5.6c-0.9-2.5,0.8-3.9,0.8-3.9c-1.1-0.4-1.9,0.4-2,0.6
																													c-0.1,0.2-0.3,0.5-0.7,0c-1.3-2.1-3.9-1.4-3.9-1.4c5.2,2.4,4,4.9,4,4.9c-2.3,0-6-2-6-6.1
																													c0-4.1,5.2-7.5,5.2-7.5l-1.2-1.3c0,0-5.8,3.3-5.8,8.8c0,7.6,7.6,7.6,7.6,7.8c0,0.8-1.2,2.5-3.6,2.5
																													c-2.4,0-5-1.9-5.7-2.3c-0.7-0.4-2.5-1.1-3.1-1.7c-0.6-0.6-1.4-2.2-2.3-4c-0.9-1.7-0.4-2.8-0.1-2.3
																													c0.3,0.5,2,1.8,1.7,1.2c-1.5-3-0.4-6.8-0.2-6.4c0.6,1.2,2.5,2,2,1.4c-1.6-2.6-0.1-5.5,0-5.7
																													c0.2-0.2,0.5,0.4,1,1c0.5,0.6,1.1,0.7,0.8,0.4c-0.8-1.4-0.7-6.1-0.4-5.9c1.1,1.1,2.5,1.3,2.5,1.3
																													c-1.9-2-2.3-4.5-2.3-6.6s-2-4.5-2-4.7c0-0.2,0.4-0.6,0.4-1.3c0-0.2-0.1-1.2-1.4-1.2
																													c-1.3,0-1.6,1.1-1.6,1.1S32.1,8,29.1,8c-3.1,0-4.7,0.6-4.7,1.1c0,0.5-1,0.4-1,0.4
																													c-1.2,0-1.2,1.6-0.6,1.6s0.4-0.8,0.9-0.8c0.1,0,0.4,0,0.4,0.4c0,1.1-1.4,0.7-1.5,1.1
																													c-0.3,1.4,1.1,2.3,1.1,2.3s0.5-1.7,2.2-1.7c1.7,0,2,1.6,2,1.6s-2.3,0.9-5.5,0.9c-5.8,0-3.3-5.1-3.3-5.1
																													c-3.2,1.9-2.5,6.3,2,6.3c4.5,0,6.9-1.7,7.2-1.2c0.3,0.8-1,2.3-2.3,2.3c-1.3,0-2.1-0.9-2.1-0.9
																													c-0.5,1.1,0.4,2.7,2,2.7c1.6,0,3.2-1.7,3.2-1.7c0.6,0.6-0.9,3.2-4.7,3.6c-3.7,0.4-5.6-1.3-5.6-1.3
																													c-0.2,0.2-0.3,0.8,0,1.2c0.3,0.4-0.1,0.4-0.1,0.4l-5.5-5.7c-1.1-1.9,0.4-2.5,1-3.4c0.6-0.9,0.1-2,0.1-2
																													c0,0.4-0.5,0.9-0.8,0.6c-0.3-0.3-0.7-0.3-1-0.2c-0.2,0.1-0.8,0.2-0.6,1.6c0.2,1.3-0.1,1.4-0.4,1.4
																													c-0.3,0-0.5-0.2-0.5-1c0-1.1-0.3-3.4-0.5-2.6c-0.3,0.7-1.6,0.1-1.8,0.3c-0.4,0.6-0.6,1.6,0.4,2.4
																													c1,0.8,0.9,1.4,0.6,1.6c-0.3,0.2-0.5,0-1.2-0.8c-0.7-0.9-1.9-1.7-1.8-1.5c0.1,0.2,0.1,0.8-0.1,1
																													c-0.2,0.2-1,0.1-1,1.1c0,1,1.3,1.7,2.3,1.6c1-0.1,1.6,0.6,1.7,1.2c0.1,0.6-0.5,1.3-1,1.1S7,17.3,7,18.7
																													c0,1.3,1.4,1.2,1.4,1.5s0.2,1,0.3,0.7c0.5-1.2,1.3-2.7,1.7-2.3c0.4,0.4,1.9,2.5,2.6,3
																													c0.7,0.5,0.7,1,0.4,1c-1.7,0-2.7,1.4-2.4,1.4c0.2-0.1,1.1-0.4,2.5-0.4c1.4,0,1.9,1,2.1,0.8
																													c0.7-1.2,2.4-2.5,3.6-2.5c1.2,0,1.3,0.4,1.3,0.6c0,0.2-0.2,0.5-0.7,0.5c-3,0-6.2,5.7-4.8,4.6
																													c1.4-1.1,2.5-1,2.8-0.4c0.3,0.6-0.8,0.9-0.8,0.9s-6.2,2.2-7.3,2.7c-1.2,0.5-1.5,0.4-1.5,0.4
																													c-1.7-0.4-1-2.1-1.3-2.8c-0.5-1.2-1.7-2.1-1.5-1.7c0.2,0.4,0.1,1-0.1,1s-0.9,0.1-0.9,0.8
																													c0,0.7,0.1,1.1,0.9,1.5c0.7,0.4,0.4,0.9,0.3,1c-0.1,0.1-0.6,0.4-1-0.1c-0.4-0.5-2.6-2.4-2.4-1.9
																													c0.1,0.5-0.1,0.8-0.1,0.8s-1,0.2-1,1c0,1.5,1.6,1.5,2.3,1.6c0.7,0,1.3-0.2,1.3,0.3
																													c0,1.2-2.6,0.7-3.1,0.7c-0.5,0-0.7,0.2-0.6,0.2c0.2,0,0.5,0.3,0.5,0.6c0,0.3-0.2,0.5-0.2,0.8
																													s0.2,1.2,1.4,1.2c1.3,0,1.7-1.7,2.6-1.7c0.8,0,1.3,0.5,1.3,1.3c0,0.8-0.8,0.2-0.8,1.6
																													c0,1.4,1.9,0.5,1.9,0.7c0,0.2,0.2,1,0.3,0.7c0.1-0.5,0.1-1.1,0-2.3C8,35.5,8,35.1,8.6,35
																													c3.7-0.9,5.7-1.2,5.5-0.8c-0.6,1.5,0,2.9,0,2.9c0.3-1.8,0.9-2.5,1.4-3.1c0.7-0.9,2-0.4,1.8-0.8
																													s-0.1-1.5,0.9-1.5c1.1,0,0.2,3.5,0.6,3.3c0.4-0.2,1.3-1,1.9-1.9s1.1-2.2,1.9-1.5c0.8,0.7-2,3.2-1.7,3.6
																													c0.3,0.4,2,2.1,3.7,3.4c1.8,1.2,5.8,3.5,5.8,5.5c0,2-0.7,2.3-0.7,4.6c0,5.2,1.6,4.6,1.6,5.8
																													c0,1.2-1.1,3-1.1,3c1.4-0.6,2.2-2.1,2.4-1.9c0.2,0.2,0,0.9,0,1.7c0.1,2.1,0.9,3.6,0.9,3.6
																													c-0.1-4.2,0.7-5.2,1.2-5c0.5,0.2,0.2,0.8,0.4,1c1,0.4,1.1,0.3,1.1,3.8c0,3.5-0.9,5.3-2.1,5.3
																													c-1.2,0-2.4-2.2-3.2-2.5c-0.8-0.3-1.6-0.1-1.6-0.1s0.4,0.2,0.4,0.5c0,0.4-0.5,0.5-0.5,1
																													c0,0.9,1.2,1,1.6,0.9c0.4-0.1,1.2-0.2,1.3,0.7c0.1,0.9-4,0.4-4,0.4c0.3,0.4,0.9,0.4,0.7,0.7
																													c-0.5,0.9-0.1,2.1,0.8,2c0.8-0.1,2-1,2.2-1.2c0.2-0.2,0.7-0.4,1,0.3c0.3,0.7-2.6,2.4-2.6,2.4
																													c0.6,0.3,1-0.1,1,0.2c0,0.6,0.3,1.3,1.3,1.3c1,0,1.3-1.2,1.5-2.2s1-1.3,1.2-1.3
																													c0.2-0.1,0.8-0.1,0.8,0.5s0.3,1.7,1.4,1.7c1.1,0,1.1-1.1,1.2-1.3c0.1-0.2,0.8-0.1,0.8-0.1
																													c-0.5-0.4-1.6-1-1.8-1c-0.2-0.1-1-0.2-0.4-0.7c2.4-2.6,4.2-9.5,3.9-9.5c-1.2,0-1.3-1.3-0.4-1.3
																													c3.1,0.1,3.9-1.4,3.9-1.4s-1.3,0.4-2.7,0.1c-5.8-1.6-5.7-8.4-5.3-9.1c0.4-0.7,0.9-2.2,0.8-2.9
																													c-0.2-0.8,0.2-0.7,0.2-0.7c6.9,3.7,9.9,12.3,9.9,12.3c0.2-5.2-4.3-9.8-4.3-9.8c5.4,0.5,6-4,6-4
																													c4.7-0.7,6.5-5.6,6.3-7.6C55.3,32.3,57,31.4,57,31.4z M22.2,26.1c-0.1,0-1.6,1-1.9,3.9
																													c0,0.3-0.3,0.5-0.5,0.5c0,0,0,0-0.1,0c-0.3,0-0.5-0.3-0.5-0.6c0.3-3.4,2.3-4.6,2.4-4.7
																													c0.3-0.1,0.6-0.1,0.7,0.2C22.5,25.6,22.5,26,22.2,26.1z M28,11.5c-0.7,0-0.9-0.3-1.1-0.6
																													c0,0,1.6-0.2,1.6-0.5c0-0.2-0.5-0.1-0.5-0.1l-1.4,0c0,0-0.3-0.3-0.3-0.7c0,0,0-0.3,0.5-0.3h2.5
																													c0,0,0.5,0,0.5,0.4S29.2,10,29.2,10S29.2,11.5,28,11.5z M28.1,21.5c0.2-0.2,0.5-0.3,0.7-0.2
																													c0.1,0.1,2.5,1.5,1.5,6c-0.1,0.2-0.3,0.4-0.5,0.4c0,0-0.1,0-0.1,0c-0.3-0.1-0.5-0.3-0.4-0.6
																													c0.8-3.7-0.9-4.8-1-4.9C28,22.1,28,21.8,28.1,21.5z M24.2,24.8c0.1-0.3,0.5-0.3,0.7-0.2
																													c0,0,1,0.5,1.3,1.8c0.4,1.3,0,2.9-1,4.7c-0.1,0.2-0.3,0.3-0.5,0.3c-0.1,0-0.2,0-0.3-0.1
																													c-0.3-0.1-0.3-0.5-0.2-0.7c0.9-1.5,1.2-2.8,0.9-3.8c-0.2-0.8-0.8-1.2-0.8-1.2
																													C24.2,25.4,24.1,25.1,24.2,24.8z M23.9,35.8c-0.1,0-0.2,0.1-0.2,0.1c-0.2,0-0.4-0.1-0.5-0.3
																													c-0.1-0.3,0-0.6,0.2-0.7c2.5-1.3,2.6-3,2.6-3c0-0.3,0.3-0.5,0.6-0.5c0.3,0,0.5,0.3,0.5,0.6
																													C27.1,32,27,34.3,23.9,35.8z M28.3,35.7c-0.1,0-0.2,0.1-0.2,0.1c-0.2,0-0.4-0.1-0.5-0.3
																													c-0.1-0.3,0-0.6,0.2-0.7c2.1-1.1,2.2-3.1,2.2-3.2c0-0.3,0.2-0.5,0.5-0.5c0,0,0,0,0,0
																													c0.3,0,0.5,0.2,0.5,0.5C31.1,31.7,31,34.3,28.3,35.7z M31.7,22.2c0.3-3-0.3-3.9-0.3-3.9
																													c-0.1-0.2-0.2-0.4-0.1-0.6c0.1-0.2,0.3-0.3,0.5-0.3l0.2,0c1.2,0,1.6-0.1,1.8-0.2
																													c-0.1-0.4-1.5-1.3-3-1.8c-0.3-0.1-0.4-0.4-0.3-0.7c0.1-0.3,0.4-0.4,0.7-0.3c0.9,0.3,3.7,1.4,3.7,2.8
																													c0,0.3-0.1,0.5-0.3,0.7c-0.4,0.4-1.1,0.5-1.9,0.5c0.2,0.7,0.3,1.8,0.2,3.8c0,0.3-0.3,0.5-0.5,0.5
																													c0,0,0,0,0,0C31.9,22.7,31.7,22.5,31.7,22.2z"/>
																												<path class="st0" d="M23.5,3.3c0.4,0,0.7,0.3,0.7,0.7c0,0.3-0.2,0.5-0.4,0.6l0.7,2.7h9.1l0.8-2.8
																													C34.1,4.4,34,4.2,34,4c0-0.4,0.3-0.7,0.7-0.7c0,0,0,0,0,0L35,2.2c0,0-3.1,0.6-3.1,1.9
																													c0,0.7,0.9,0.8,0.9,0.8s0.5,1.2-0.7,1.2c-0.5,0-1.1,0-1.1,0s-1-0.1-1.3-1.1c0,0,1.3-0.1,1.3-1.1
																													c0-0.9-2.1-2.3-2.1-2.3S26.9,3,26.9,4.2c0,0.6,1.2,0.8,1.2,0.8s0.1,1.2-0.8,1.2c-0.6,0-1.2,0-1.2,0
																													S25,6.2,25,5c0,0,1-0.1,1-1c0-0.9-2.1-1.8-2.9-1.9L23.5,3.3C23.4,3.3,23.4,3.3,23.5,3.3z M29,3.3
																													c0.4,0,0.7,0.3,0.7,0.7c0,0.4-0.3,0.7-0.7,0.7S28.3,4.4,28.3,4C28.3,3.6,28.6,3.3,29,3.3z"/>
																											</g>
																										</g>
																									</g>
																								</g>
																							</g>
																						</g>
																					</g>
																				</g>
																			</g>
																		</g>
																	</g>
																</g>
															</g>
														</g>
													</g>
												</g>
											</g>
										</g>
									</g>
								</g>
							</g>
						</g>
					</g>
				</g>
			</g>
		</g>
	</g>
</g>
</svg>
