<svg version="1.1" viewBox="0 0 40 50" xmlns="http://www.w3.org/2000/svg">
  <g fill="none" fill-rule="evenodd">
    <g transform="translate(-32 -26)" fill="#fff">
      <g transform="translate(32 25)">
        <g transform="translate(0 1)" fill-rule="nonzero">
          <path d="m19.966 31.5c-0.21069 0.071429-0.70229 0.071429-1.1939-0.64286-0.4916-0.71429 0.28091-0.85714 0.28091-1.3571s-1.1237-1.4286-1.545-1.5714c-0.42137-0.14286-0.14046-0.57143-0.35114-0.71429-0.21069-0.14286-0.63206-0.21429-3.7221-0.21429-3.0901 0-3.7221 1.8571-4.0733 1.8571-0.9832 0-1.8259-1-1.8259-1-0.14046 1 1.1939 1.5 0.77251 1.6429-0.63206 0.14286-0.9832-0.21429-1.9664-0.21429-2.5282 0-2.7389 1.8571-2.7389 1.8571 1.4748-1.5 6.1099-1.3571 6.1099-0.57143 0 0.71429-0.77251 0.35714-0.77251 0.57143 0 0.21429 0.9832 1.6429 0.9832 3.5 0 2.8571-2.6687 3.6429-3.5114 3.6429s-1.1237-0.92857-1.8259-1.5714c-0.70229-0.71429-1.6153-0.071429-1.6153-0.071429s0.42137-0.071428 0.42137 0.21429c0 0.28571-0.35114 0.28571-0.35114 0.71429 0 0.85714 1.2641 0.64286 1.4748 0.64286s0.70229 0.14286 0.70229 0.64286-3.7221 0-3.1603 0.28571c0.56183 0.28571 0.35114 0.71429 0.35114 1.1429s0.35114 0.78571 0.77251 0.78571 0.84274-0.28571 1.2641-0.71429c0.42137-0.42857 0.70229-0.21429 0.84274-0.071429 0.14046 0.14286 0.14046 0.5-0.070229 0.64286-0.42137 0.28571-1.7557 1.2143-1.4748 1.2143 0.28091 0 0.56183 0 0.56183 0.14286 0 0.5 0.4916 0.71429 0.77251 0.71429s1.0534-0.21429 1.0534-1c0-1.0714 0.42137-1.7143 0.9832-1.7143 0.56183 0 0.56183 0.78571 0.56183 1.2143s0.28091 0.71429 0.77251 0.71429 0.56183-0.5 0.56183-0.71429 0.70229-0.14286 0.84274-0.14286c0.14046 0-0.35114-0.42857-0.9832-0.85714s-0.4916-0.64286-0.21069-0.71429 4.7755-1.2857 4.4244-1.4286c-0.28091-0.14286-0.42137-0.5-0.21069-0.85714 0.4916-0.85714 3.0901 0.92857 3.0901 0.92857-0.84274-1.5-2.2473-2.2143-2.8794-2.2143s-0.63206-0.28571-0.63206-0.28571c-0.63206-3.6429 0.28091-4.5 1.4748-4.6429 1.1939-0.071429 2.3175 0.35714 3.7923 0.5 1.6855 0.21429 2.458-0.35714 2.2473-0.28571z"/>
          <path d="m36 11.652c0.071429-0.43478 0.64286-1.0145 0.85714-1.6667 0.28571-0.72464 0.14286-1.8841-0.42857-2.3188-0.57143-0.36232-1.3571-1.4493-1.3571-1.4493 0 0.50725 0.5 1.5942 0.071428 1.6667-1 0.14493-1.7857-1.8841-1.7857-1.8841s-0.14286 1.2319 0.57143 1.8841c0.78571 0.72464 1.6429 1.8116 1 2.2464-0.57143 0.43478-1.4286-0.94203-1.4286-0.94203-0.21429 1.5217 1.3571 2.1014 1.3571 2.1014 0.14286 1.2319-2.8571 3.8406-2.8571 3.8406l1 0.86957c1.6429-1.6667 2.8571-3.6957 3-4.3478z"/>
          <path d="m38 21.389c-0.94958-0.27778-0.88175 0.41667-1.1531 0.34722-0.7461-0.41667-0.13565-2.9861-0.13565-2.9861-0.13565-0.069444-0.40696 0.34722-0.47479 0.69444-0.067827 0.41667-0.13565 0.69444-0.40696 0.625-0.67827-0.27778-0.33913-3.2639-0.33913-3.2639-0.27131 0.20833-0.47479 0.76389-0.47479 1.3194s-0.27131 0.69444-0.27131 0.69444c-0.27131-0.27778-1.0852-1.1111-2.9166-2.5694-3.934-3.5417-3.2557-4.4444-3.2557-4.4444 1.1531-0.55556 1.56-2.5694 1.3565-2.1528-0.20348 0.41667-1.1531 1.3889-1.56 0.83333-0.40696-0.55556 0.67827-1.1806 1.2887-2.0833 0.67827-0.90278 0.67827-1.9444 0.54261-1.6667-0.067827 0.27778-1.2209 1.7361-1.8313 1.7361-0.67827 0 0.067827-1.6667-0.067827-1.5972s-1.8992 1.5972-1.8992 3.125c0 1.5278 1.1531 1.875 1.1531 1.875 0.27131 2.4306 2.2383 3.6806 3.3913 5.1389 1.1531 1.4583 4.8157 3.4028 4.8157 6.5972 0 3.1944-2.9844 3.8889-2.9844 3.8889-0.61044-1.7361 0.54262-2.7083 0.54262-2.7083-0.7461-0.27778-1.2887 0.27778-1.3565 0.41667s-0.20348 0.34722-0.47479 0c-0.88175-1.4583-2.6452-0.97222-2.6452-0.97222 3.527 1.6667 2.7131 3.4028 2.7131 3.4028-1.56 0-4.0696-1.3889-4.0696-4.2361s3.527-5.2083 3.527-5.2083l-0.81392-0.90278s-3.934 2.2917-3.934 6.1111c0 5.2778 5.1548 5.2778 5.1548 5.4167 0 0.55556-0.81392 1.7361-2.4418 1.7361s-3.3913-1.3194-3.8661-1.5972c-0.47479-0.27778-1.6957-0.76389-2.1026-1.1806-0.40696-0.41667-0.94958-1.5278-1.56-2.7778-0.61044-1.1806-0.27131-1.9444-0.067827-1.5972s1.3565 1.25 1.1531 0.83333c-1.0174-2.0833-0.27131-4.7222-0.13565-4.4444 0.40696 0.83333 1.6957 1.3889 1.3565 0.97222-1.0852-1.8056-0.067827-3.8194 0-3.9583 0.13565-0.13889 0.33913 0.27778 0.67827 0.69444s0.7461 0.48611 0.54261 0.27778c-0.54261-0.97222-0.47479-4.2361-0.27131-4.0972 0.7461 0.76389 1.6957 0.90278 1.6957 0.90278-1.2887-1.3889-1.56-3.125-1.56-4.5833 0-1.4583-1.3565-3.125-1.3565-3.2639s0.27131-0.41667 0.27131-0.90278c0-0.13889-0.067827-0.83333-0.94958-0.83333s-1.0852 0.76389-1.0852 0.76389-0.61044-0.625-2.6452-0.625c-2.1026 0-3.1879 0.41667-3.1879 0.76389s-0.67827 0.27778-0.67827 0.27778c-0.81392 0-0.81392 1.1111-0.40696 1.1111 0.40696 0 0.27131-0.55556 0.61044-0.55556 0.067827 0 0.27131 0 0.27131 0.27778 0 0.76389-0.94958 0.48611-1.0174 0.76389-0.20348 0.97222 0.7461 1.5972 0.7461 1.5972s0.33913-1.1806 1.4922-1.1806 1.3565 1.1111 1.3565 1.1111-1.56 0.625-3.7305 0.625c-3.934 0-2.2383-3.5417-2.2383-3.5417-2.1705 1.3194-1.6957 4.375 1.3565 4.375 3.0522 0 4.6801-1.1806 4.8835-0.83333 0.20348 0.55556-0.67827 1.5972-1.56 1.5972-0.88175 0-1.4244-0.625-1.4244-0.625-0.33913 0.76389 0.27131 1.875 1.3565 1.875s2.1705-1.1806 2.1705-1.1806c0.40696 0.41667-0.61044 2.2222-3.1879 2.5-2.5096 0.27778-3.7983-0.90278-3.7983-0.90278-0.13565 0.13889-0.20348 0.55556 0 0.83333s-0.067827 0.27778-0.067827 0.27778l-3.7305-3.9583c-0.7461-1.3194 0.27131-1.7361 0.67827-2.3611s0.067827-1.3889 0.067827-1.3889c0 0.27778-0.33913 0.625-0.54261 0.41667s-0.47479-0.20833-0.67827-0.13889c-0.13565 0.069444-0.54261 0.13889-0.40696 1.1111 0.13565 0.90278-0.067827 0.97222-0.27131 0.97222s-0.33913-0.13889-0.33913-0.69444c0-0.76389-0.20348-2.3611-0.33913-1.8056-0.20348 0.48611-1.0852 0.069444-1.2209 0.20833-0.27131 0.41667-0.40696 1.1111 0.27131 1.6667 0.67827 0.55556 0.61044 0.97222 0.40696 1.1111-0.20348 0.13889-0.33913 0-0.81392-0.55556-0.47479-0.625-1.2887-1.1806-1.2209-1.0417 0.067827 0.13889 0.067827 0.55556-0.067827 0.69444-0.13565 0.13889-0.67827 0.069444-0.67827 0.76389 0 0.69444 0.88175 1.1806 1.56 1.1111 0.67827-0.069444 1.0852 0.41667 1.1531 0.83333 0.067827 0.41667-0.33913 0.90278-0.67827 0.76389-0.33913-0.13889-1.0852-0.41667-1.0852 0.55556 0 0.90278 0.94958 0.83333 0.94958 1.0417s0.13565 0.69444 0.20348 0.48611c0.33913-0.83333 0.88175-1.875 1.1531-1.5972s1.2887 1.7361 1.7635 2.0833c0.47479 0.34722 0.47479 0.69444 0.27131 0.69444-1.1531 0-1.8313 0.97222-1.6278 0.97222 0.13565-0.069444 0.7461-0.27778 1.6957-0.27778s1.2887 0.69444 1.4244 0.55556c0.47479-0.83333 1.6278-1.7361 2.4418-1.7361 0.81392 0 0.88175 0.27778 0.88175 0.41667s-0.13565 0.34722-0.47479 0.34722c-2.0348 0-4.2053 3.9583-3.2557 3.1944 0.94958-0.76389 1.6957-0.69444 1.8992-0.27778 0.20348 0.41667-0.54261 0.625-0.54261 0.625s-4.2053 1.5278-4.9514 1.875c-0.81392 0.34722-1.0174 0.27778-1.0174 0.27778-1.1531-0.27778-0.67827-1.4583-0.88175-1.9444-0.33913-0.83333-1.1531-1.4583-1.0174-1.1806 0.13565 0.27778 0.067827 0.69444-0.067827 0.69444-0.13565 0-0.61044 0.069444-0.61044 0.55556s0.067827 0.76389 0.61044 1.0417c0.47479 0.27778 0.27131 0.625 0.20348 0.69444-0.067827 0.069444-0.40696 0.27778-0.67827-0.069444-0.27131-0.34722-1.7635-1.6667-1.6278-1.3194 0.067827 0.34722-0.067827 0.55556-0.067827 0.55556s-0.67827 0.13889-0.67827 0.69444c0 1.0417 1.0852 1.0417 1.56 1.1111 0.47479 0 0.88175-0.13889 0.88175 0.20833 0 0.83333-1.7635 0.48611-2.1026 0.48611-0.33913 0-0.47479 0.13889-0.40696 0.13889 0.13565 0 0.33913 0.20833 0.33913 0.41667 0 0.20833-0.13565 0.34722-0.13565 0.55556s0.13565 0.83333 0.94958 0.83333c0.88175 0 1.1531-1.1806 1.7635-1.1806 0.54261 0 0.88175 0.34722 0.88175 0.90278 0 0.55556-0.54261 0.13889-0.54261 1.1111 0 0.97222 1.2887 0.34722 1.2887 0.48611s0.13565 0.69444 0.20348 0.48611c0.067827-0.34722 0.067827-0.76389 0-1.5972 0-0.69444 0-0.97222 0.40696-1.0417 2.5096-0.625 3.8661-0.83333 3.7305-0.55556-0.40696 1.0417 0 2.0139 0 2.0139 0.20348-1.25 0.61044-1.7361 0.94958-2.1528 0.47479-0.625 1.3565-0.27778 1.2209-0.55556s-0.067827-1.0417 0.61044-1.0417c0.7461 0 0.13565 2.4306 0.40696 2.2917 0.27131-0.13889 0.88175-0.69444 1.2887-1.3194 0.40696-0.625 0.7461-1.5278 1.2887-1.0417s-1.3565 2.2222-1.1531 2.5c0.20348 0.27778 1.3565 1.4583 2.5096 2.3611 1.2209 0.83333 3.934 2.4306 3.934 3.8194s-0.47479 1.5972-0.47479 3.1944c0 3.6111 1.0852 3.1944 1.0852 4.0278 0 0.83333-0.7461 2.0833-0.7461 2.0833 0.94958-0.41667 1.4922-1.4583 1.6278-1.3194 0.13565 0.13889 0 0.625 0 1.1806 0.067827 1.4583 0.61044 2.5 0.61044 2.5-0.067827-2.9167 0.47479-3.6111 0.81392-3.4722 0.33913 0.13889 0.13565 0.55556 0.27131 0.69444 0.67827 0.27778 0.7461 0.20833 0.7461 2.6389 0 2.4306-0.61044 3.6806-1.4244 3.6806-0.81392 0-1.6278-1.5278-2.1705-1.7361-0.54261-0.20833-1.0852-0.069444-1.0852-0.069444s0.27131 0.13889 0.27131 0.34722c0 0.27778-0.33913 0.34722-0.33913 0.69444 0 0.625 0.81392 0.69444 1.0852 0.625 0.27131-0.069444 0.81392-0.13889 0.88175 0.48611s-2.7131 0.27778-2.7131 0.27778c0.20348 0.27778 0.61044 0.27778 0.47479 0.48611-0.33913 0.625-0.067827 1.4583 0.54261 1.3889 0.54261-0.069444 1.3565-0.69444 1.4922-0.83333s0.47479-0.27778 0.67827 0.20833c0.20348 0.48611-1.7635 1.6667-1.7635 1.6667 0.40696 0.20833 0.67827-0.069444 0.67827 0.13889 0 0.41667 0.20348 0.90278 0.88175 0.90278 0.67827 0 0.88175-0.83333 1.0174-1.5278 0.13565-0.69444 0.67827-0.90278 0.81392-0.90278 0.13565-0.069444 0.54261-0.069444 0.54261 0.34722 0 0.41667 0.20348 1.1806 0.94958 1.1806 0.7461 0 0.7461-0.76389 0.81392-0.90278 0.067827-0.13889 0.54261-0.069444 0.54261-0.069444-0.33913-0.27778-1.0852-0.69444-1.2209-0.69444-0.13565-0.069444-0.67827-0.13889-0.27131-0.48611 1.6278-1.8056 2.8487-6.5972 2.6452-6.5972-0.81392 0-0.88175-0.90278-0.27131-0.90278 2.1026 0.069444 2.6452-0.97222 2.6452-0.97222s-0.88175 0.27778-1.8313 0.069444c-3.934-1.1111-3.8661-5.8333-3.5948-6.3194 0.27131-0.48611 0.61044-1.5278 0.54262-2.0139-0.13565-0.55556 0.13565-0.48611 0.13565-0.48611 4.6801 2.5694 6.7149 8.5417 6.7149 8.5417 0.13565-3.6111-2.9166-6.8056-2.9166-6.8056 3.6627 0.34722 4.0696-2.7778 4.0696-2.7778 3.1879-0.48611 4.4087-3.8889 4.2731-5.2778-0.13565-1.3889 1.0174-2.0139 1.0174-2.0139zm-23.604-3.6806c-0.067827 0-1.0852 0.69444-1.2887 2.7083 0 0.20833-0.20348 0.34722-0.33913 0.34722h-0.067827c-0.20348 0-0.33913-0.20833-0.33913-0.41667 0.20348-2.3611 1.56-3.1944 1.6278-3.2639 0.20348-0.069444 0.40696-0.069444 0.47479 0.13889 0.13565 0.13889 0.13565 0.41667-0.067827 0.48611zm3.934-10.139c-0.47479 0-0.61044-0.20833-0.7461-0.41667 0 0 1.0852-0.13889 1.0852-0.34722 0-0.13889-0.33913-0.069444-0.33913-0.069444h-0.94958s-0.20348-0.20833-0.20348-0.48611c0 0 0-0.20833 0.33913-0.20833h1.6957s0.33913 0 0.33913 0.27778c0 0.27778-0.40696 0.20833-0.40696 0.20833s0 1.0417-0.81392 1.0417zm0.067827 6.9444c0.13565-0.13889 0.33913-0.20833 0.47479-0.13889 0.067827 0.069444 1.6957 1.0417 1.0174 4.1667-0.067827 0.13889-0.20348 0.27778-0.33913 0.27778h-0.067827c-0.20348-0.069444-0.33913-0.20833-0.27131-0.41667 0.54262-2.5694-0.61044-3.3333-0.67827-3.4028-0.20348-0.069444-0.20348-0.27778-0.13565-0.48611zm-2.6452 2.2917c0.067827-0.20833 0.33913-0.20833 0.47479-0.13889 0 0 0.67827 0.34722 0.88175 1.25 0.27131 0.90278 0 2.0139-0.67827 3.2639-0.067827 0.13889-0.20348 0.20833-0.33913 0.20833-0.067827 0-0.13565 0-0.20348-0.069444-0.20348-0.069444-0.20348-0.34722-0.13565-0.48611 0.61044-1.0417 0.81392-1.9444 0.61044-2.6389-0.13565-0.55556-0.54261-0.83333-0.54261-0.83333-0.067827-0.13889-0.13565-0.34722-0.067827-0.55556zm-0.20348 7.6389c-0.067827 0-0.13565 0.069444-0.13565 0.069444-0.13565 0-0.27131-0.069444-0.33913-0.20833-0.067827-0.20833 0-0.41667 0.13565-0.48611 1.6957-0.90278 1.7635-2.0833 1.7635-2.0833 0-0.20833 0.20348-0.34722 0.40696-0.34722 0.20348 0 0.33913 0.20833 0.33913 0.41667 0 0-0.067827 1.5972-2.1705 2.6389zm2.9844-0.069444c-0.067827 0-0.13565 0.069444-0.13565 0.069444-0.13565 0-0.27131-0.069444-0.33913-0.20833-0.067827-0.20833 0-0.41667 0.13565-0.48611 1.4244-0.76389 1.4922-2.1528 1.4922-2.2222 0-0.20833 0.13565-0.34722 0.33913-0.34722s0.33913 0.13889 0.33913 0.34722c0.067827 0.069444 0 1.875-1.8313 2.8472zm2.3061-9.375c0.20348-2.0833-0.20348-2.7083-0.20348-2.7083-0.067827-0.13889-0.13565-0.27778-0.067827-0.41667s0.20348-0.20833 0.33913-0.20833h0.13565c0.81392 0 1.0852-0.069444 1.2209-0.13889-0.067827-0.27778-1.0174-0.90278-2.0348-1.25-0.20348-0.069444-0.27131-0.27778-0.20348-0.48611 0.067827-0.20833 0.27131-0.27778 0.47479-0.20833 0.61044 0.20833 2.5096 0.97222 2.5096 1.9444 0 0.20833-0.067827 0.34722-0.20348 0.48611-0.27131 0.27778-0.7461 0.34722-1.2887 0.34722 0.13565 0.48611 0.20348 1.25 0.13565 2.6389 0 0.20833-0.20348 0.34722-0.33913 0.34722-0.33913 0-0.47479-0.13889-0.47479-0.34722z"/>
          <path d="m15.269 1.193c0.26891 0 0.47059 0.21053 0.47059 0.49123 0 0.21053-0.13445 0.35088-0.26891 0.42105l0.47059 1.8947h6.1176l0.53782-1.9649c-0.20168-0.070175-0.26891-0.21053-0.26891-0.35088 0-0.2807 0.20168-0.49123 0.47059-0.49123l0.20168-0.77193s-2.084 0.42105-2.084 1.3333c0 0.49123 0.60504 0.5614 0.60504 0.5614s0.33613 0.84211-0.47059 0.84211h-0.7395s-0.67227-0.070175-0.87395-0.77193c0 0 0.87395-0.070175 0.87395-0.77193 0-0.63158-1.4118-1.614-1.4118-1.614s-1.3445 0.98246-1.3445 1.8246c0 0.42105 0.80672 0.5614 0.80672 0.5614s0.067227 0.84211-0.53782 0.84211h-0.80672s-0.7395 0-0.7395-0.84211c0 0 0.67227-0.070175 0.67227-0.70175 0-0.63158-1.4118-1.2632-1.9496-1.3333l0.26891 0.84211c-0.067227 0-0.067227 0 0 0zm3.6975 0c0.26891 0 0.47059 0.21053 0.47059 0.49123 0 0.2807-0.20168 0.49123-0.47059 0.49123-0.26891 0-0.47059-0.21053-0.47059-0.49123 0-0.2807 0.20168-0.49123 0.47059-0.49123z"/>
        </g>
      </g>
    </g>
  </g>
</svg>
